<?xml version="1.0" encoding="utf-8"?>
<!-- Generator: Adobe Illustrator 27.0.0, SVG Export Plug-In . SVG Version: 6.00 Build 0)  -->
<svg version="1.2" baseProfile="tiny" id="Layer_1" xmlns="http://www.w3.org/2000/svg" xmlns:xlink="http://www.w3.org/1999/xlink"
	 x="0px" y="0px" viewBox="0 0 800 800" overflow="visible" xml:space="preserve">
<g id="Page-1">
	<g id="mastercard">
		<path id="Rectangle-1" fill="#FFFDFD" d="M42.7,148.8h714.7c23.6,0,42.7,19.1,42.7,42.7v417.1c0,23.6-19.1,42.7-42.7,42.7H42.7
			C19.1,651.2,0,632.1,0,608.5V191.5C0,167.9,19.1,148.8,42.7,148.8z"/>
	</g>
</g>
<g>
	<polyline fill-rule="evenodd" fill="#231F20" points="674.7,474.8 145.7,474.8 145.7,356.5 674.7,356.5 674.7,474.8 	"/>
	<polyline fill-rule="evenodd" fill="#231F20" points="246.7,255.9 185.8,255.9 185.8,240.6 246.7,240.6 246.7,255.9 	"/>
	<polyline fill-rule="evenodd" fill="#A74C10" points="722,349.8 403.3,218.8 246.7,286.9 246.7,259.3 185.8,259.3 185.8,313.4 
		102,349.8 120,349.8 144.6,342.3 144.6,350.2 673.9,350.2 673.9,342.3 698.8,349.8 722,349.8 	"/>
	<polyline fill="#231F20" points="674.8,554.1 674.8,498 671.8,498 671.8,554.1 	"/>
	<polyline fill="#FFFFFF" points="187.5,420.9 228.5,420.9 228.5,405.7 187.5,405.7 187.5,383.7 231.2,383.7 231.2,368.3 
		166.4,368.3 166.4,461.4 232.7,461.4 232.7,445.9 187.5,445.9 187.5,420.9 	"/>
	<path fill="#FFFFFF" d="M337.1,412.7c0-28.9-17.7-45.8-45.9-45.8c-28.7,0-46.7,18.1-46.7,47.7c0,14.4,4.4,26.7,11.5,34.3
		c8.8,9.9,19.6,13.5,35.2,13.8h0.9c7.2,0,14.5-1.4,21.6-1.4h27v-14.3h-17.3C331.9,440.2,337.1,427.8,337.1,412.7 M291.2,448.8
		c-16.1,0-24.8-11.8-24.8-34.7c0-22.5,8.9-34.1,24.8-34.1c15.7,0,24.7,11.7,24.7,34.1C315.9,437,307.4,448.8,291.2,448.8"/>
	<path fill="#FFFFFF" d="M416.9,426.1c0,14.6-6.5,21.5-21.2,21.5c-14.6,0-21.8-6.8-21.8-20.6v-58.7h-20.8v57.2
		c0,25.3,13.4,37.3,41.9,37.3c28.2,0,42-12.2,42-37.3v-57.2h-20.1V426.1"/>
	<polyline fill="#FFFFFF" points="455.4,461.4 476.1,461.4 476.1,368.3 455.4,368.3 455.4,461.4 	"/>
	<polyline fill="#FFFFFF" points="487.1,383.5 515.9,383.5 515.9,461.4 536.8,461.4 536.8,383.5 565.7,383.5 565.7,368.3 
		487.1,368.3 487.1,383.5 	"/>
	<polyline fill="#FFFFFF" points="633.2,368.3 613,408.2 590.6,368.3 568.6,368.3 601.6,427 601.6,461.4 622.4,461.4 622.4,427 
		654.9,368.3 633.2,368.3 	"/>
	<path fill="#A74C10" d="M177.8,522.4c6.4-2.1,9.6-6.2,9.6-12.6c0-10.4-6.8-14.8-21.1-14.9h-1.1h-20.1v58.2h20.1h1.1
		c8.7,0,14.9-0.6,19.4-5.1c2.7-2.7,4.1-6.5,4.1-11.1C189.8,529.4,185.7,524.5,177.8,522.4 M157.2,503.8h8.1h1.1
		c6.3,0.2,9.1,1.7,9.1,7.6c0,5.3-2.8,6.9-9.1,7.1h-1.1h-8.1V503.8z M166.4,543.8h-1.1h-8.1v-16.4h8.1h1.1c7.8,0.1,11.2,1.6,11.2,8.2
		C177.6,542.6,174.2,543.7,166.4,543.8"/>
	<path fill="#A74C10" d="M232.4,528.3c0-5.3-0.1-9.2-3.6-12.6c-2.8-2.6-7.2-4.3-13.2-4.3h-0.9c-10.9,0.2-16.2,4.3-16.3,12.5h11.7
		c0.2-3.7,1.7-5.4,4.6-5.7l0.9-0.1c4,0,5.7,2.3,5.7,7.3c0,0.5-0.1,1.1-0.1,1.7c-0.9,0-1.8-0.1-2.7-0.1c-1.4,0-2.7,0-3.9,0.1
		c-12,0.8-18,5.9-18,14.4c0,7.6,5.3,13,12.9,13c1.8,0,3.5-0.4,5.1-0.9c2.9-1,5.5-3,7.7-6.1c0.1,2.3,0.4,4.1,0.5,5.6H233
		c-0.4-6.1-0.6-10.2-0.6-12.4V528.3 M214.6,546.1h-0.8c-3.4,0-5.7-2.2-5.7-5.3c0-3.3,2.2-5.7,6.5-6.6c1.5-0.4,3.2-0.5,5.2-0.5h1.2
		c0.2,0.7,0.2,1.5,0.2,2.2C221.2,542.1,218.8,545.6,214.6,546.1"/>
	<path fill="#A74C10" d="M267.4,511.5c-6.1,0-10.1,2.2-13.2,7.1l-0.2-6.2h-11.3c0.2,2.7,0.5,5.3,0.5,7.9v32.8h11.6v-25.1
		c0-4.8,3-7.9,7.5-7.9c4.9,0,6.7,2.7,6.7,8.4v24.6h11.7V527C280.6,516.6,276.3,511.5,267.4,511.5"/>
	<polyline fill="#A74C10" points="314.5,529.8 328.4,512.5 314.9,512.5 302.8,528.5 302.8,494.9 291.2,494.9 291.2,553.1 
		302.8,553.1 302.8,531.5 315.2,553.1 329.4,553.1 314.5,529.8 	"/>
	<polyline fill="#231F20" points="353.1,498 360.5,498 360.5,518.9 363.7,518.9 363.7,498 371.3,498 371.3,495.3 353.1,495.3 
		353.1,498 	"/>
	<path fill="#231F20" d="M382.2,502.2c-2.4,0-4.3,1.2-5,2.9v-9.8h-3v23.6h3v-10.6c0-2.3,1.7-3.7,4.3-3.7c2.5,0,3.5,1.3,3.5,4v10.4
		h2.9v-10.1c0-1.9,0-3.2-0.7-4.2C386.2,503,384.4,502.2,382.2,502.2"/>
	<path fill="#231F20" d="M399.3,502.1h-0.1c-4.5,0-7.1,3-7.1,9c0,5.3,2.4,8.1,7.1,8.2h0.3c3.9,0,6.4-2.1,6.6-5.6h-2.8
		c-0.1,2.2-1.6,3.5-3.9,3.5h-0.2c-2.7-0.1-4.2-1.9-4.2-5v-0.6v-0.4h4.2h7c0.1-0.6,0.1-1.3,0.1-2
		C406.3,504.7,403.7,502.1,399.3,502.1 M403.3,509h-4.1H395c0-2.9,1.9-4.9,4.2-4.9h0.2c2.2,0,3.9,1.7,3.9,4.5V509z"/>
	<polyline fill="#231F20" points="432.8,516.1 422.4,516.1 422.4,495.3 419.4,495.3 419.4,518.9 432.8,518.9 432.8,516.1 	"/>
	<polyline fill="#231F20" points="439.2,518.9 439.2,502.4 436.2,502.4 436.2,518.9 	"/>
	<polyline fill="#231F20" points="439.5,498.5 439.5,495.3 436,495.3 436,498.5 	"/>
	<path fill="#231F20" d="M455.8,514.2c0-2.3-1.2-3.7-3.6-4.5l-3.6-1c-1.7-0.5-2.4-1.1-2.4-2.2c0-1.3,1.3-2.5,3.3-2.5
		c1.8,0,3,1,3,2.7v0.1h3v-0.5c0-2.7-2.2-4.4-5.8-4.4c-4,0-6.4,2.2-6.4,5.1c0,2.2,1.5,3.5,4.2,4.2l3.4,0.8c1.3,0.3,2,1,2,2.2
		c0,1.5-1.4,2.6-3.4,2.6c-2.1,0-3.4-1.1-3.4-2.9v-0.1H443v0.4c0,3.5,2,4.9,6.4,4.9C453.4,519.2,455.8,517.2,455.8,514.2"/>
	<path fill="#231F20" d="M460.3,515.7c0,2.7,1.2,3.5,4.1,3.5c0.6,0,1.3,0,2.3-0.3v-2.3c-0.5,0.1-1,0.2-1.4,0.2
		c-1.7,0-2.1-0.5-2.1-2.2v-10h3.6v-2.2h-3.6v-4.5l-2.9,1.1v3.4h-2.7v2.2h2.7V515.7"/>
	<path fill="#231F20" d="M476.2,502.1h-0.1c-4.6,0-7.1,3-7.1,9c0,5.3,2.4,8.1,7.1,8.2h0.4c3.9,0,6.4-2.1,6.4-5.6h-2.8
		c0,2.2-1.4,3.5-3.7,3.5h-0.2c-2.7-0.1-4.2-1.9-4.2-5v-0.6v-0.4h4.2h7c0.1-0.6,0.1-1.3,0.1-2C483.3,504.7,480.6,502.1,476.2,502.1
		 M480.3,509h-4.1H472c0-2.9,1.7-4.9,4.1-4.9h0.2c2.2,0,3.9,1.7,3.9,4.5V509z"/>
	<path fill="#231F20" d="M495.4,502.2c-2.4,0-4.2,1.2-5,2.9l-0.1-2.7h-3c0.1,1.2,0.1,2.3,0.1,3.4v13h3v-10.6c0-2.3,1.7-3.7,4.2-3.7
		c2.6,0,3.5,1.3,3.5,4v10.4h2.9v-10.3c0-1.8,0-3.1-0.7-4.1C499.4,503,497.5,502.2,495.4,502.2"/>
	<polyline fill="#231F20" points="509.3,498.5 509.3,495.3 505.7,495.3 505.7,498.5 	"/>
	<polyline fill="#231F20" points="509,518.9 509,502.4 506,502.4 506,518.9 	"/>
	<path fill="#231F20" d="M522,502.2c-2.3,0-4.2,1.2-4.9,2.9l-0.1-2.7h-3c0.1,1.2,0.3,2.3,0.3,3.4v13h2.9v-10.6
		c0-2.3,1.7-3.7,4.2-3.7c2.6,0,3.5,1.3,3.5,4v10.4h2.9v-10.3c0-1.8,0-3.1-0.7-4.1C526,503,524.2,502.2,522,502.2"/>
	<path fill="#231F20" d="M539.3,523.2c-2.3,0-3.5-1.1-3.5-3.4h-3.2c0.1,3.9,2.1,5.6,6.5,5.6h0.2c5-0.1,7.2-2.2,7.2-7v-13.1
		c0-0.6,0-1.5,0.1-2.9h-2.8l-0.1,2.1c-0.9-1.5-2.3-2.3-4.4-2.4h-0.7c-4,0-6.8,3-6.8,8c0,5.3,2.5,8.1,6.9,8.1h0.6
		c2-0.2,3.6-1.2,4.1-2.4v3.1C543.4,521.8,542.2,523.2,539.3,523.2 M539.4,516.2h-0.1c-2.6,0-4.5-2.2-4.5-5.8c0-4.2,1.9-6.4,4.5-6.4
		c2.7,0,4.5,2.2,4.5,5.8C543.7,514,541.9,516.2,539.4,516.2"/>
	<polyline fill="#231F20" points="552.1,514.9 549.9,523 552.1,523 555.7,514.9 552.1,514.9 	"/>
	<path fill="#231F20" d="M577.4,516.6c-4,0-6.3-3.4-6.3-9.5c0-6.4,2.4-9.8,6.3-9.8c2.8,0,4.8,1.6,5,4.1h3.3c-0.1-4.1-3-6.5-8-6.5
		c-6.3,0-9.8,4.3-9.8,12.2c0,8,3.4,12.1,9.5,12.1c5.1,0,8.2-2.6,8.4-6.7h-3.4C582.1,515,580.2,516.6,577.4,516.6"/>
	<path fill="#231F20" d="M601.6,516.2v-9.1c0-3.5-1.7-5.1-6.3-5.1h-0.2c-3.6,0-5.5,1.7-5.5,4.5v0.2h2.8c0-1.7,1.1-2.7,2.8-2.9h0.5
		c2,0,3.2,0.9,3.2,2.7v1.9h-2.8l-0.8,0.1c-4.2,0.2-6.6,2.4-6.6,5.5c0,2.9,2,4.9,5.3,4.9c0.5,0,0.9,0,1.3,0c1.8-0.3,3.1-1.2,3.7-2.8
		c0.1,1.2,0.1,2,0.4,2.5h2.6c-0.2-0.8-0.2-1.3-0.2-1.6V516.2 M598.7,512.3c0,2.7-1.4,4.3-3.6,4.5h-0.6c-1.8,0-3-1.2-3-2.8
		c0-1.7,1.2-3,3.6-3.3l1.1-0.1h2.6V512.3z"/>
	<path fill="#231F20" d="M609.2,509.7c0-3,1.6-4.5,4.1-4.5c0.4,0,0.9,0,1.7,0.1v-2.8c-0.4-0.1-0.8-0.1-1.2-0.1c-2.4,0-4,1-4.6,3.1
		v-3.1h-2.9v2.6v0.7v13.2h2.9V509.7"/>
	<polyline fill="#231F20" points="621.4,498.6 621.4,495.3 618,495.3 618,498.6 	"/>
	<polyline fill="#231F20" points="621.2,518.9 621.2,502.4 618.2,502.4 618.2,518.9 	"/>
	<path fill="#231F20" d="M629.2,518.9v-10.6c0-2.3,1.7-3.7,4.2-3.7c2.5,0,3.5,1.3,3.5,4v10.4h2.9v-10.3c0-1.8,0-3.1-0.7-4.1
		c-1-1.5-2.9-2.3-5-2.3c-2.5,0-4.3,1.2-5,2.9l-0.1-2.7h-3c0.1,1.2,0.1,2.3,0.1,3.4v13H629.2"/>
	<path fill="#231F20" d="M651.5,525.4c4.8-0.1,7.1-2.2,7.1-7v-13.1c0-0.6,0-1.5,0.1-2.9h-2.8l-0.1,2.1c-0.9-1.5-2.3-2.3-4.4-2.4
		h-0.8c-4,0-6.7,3-6.7,8c0,5.3,2.4,8.1,6.9,8.1h0.6c1.9-0.2,3.6-1.2,4.1-2.4v3.1c0,2.9-1.2,4.4-4.1,4.4c-2.3,0-3.5-1.1-3.5-3.4h-3.3
		c0.1,3.9,2.1,5.6,6.5,5.6H651.5 M651.6,516.2h-0.1c-2.7,0-4.5-2.2-4.5-5.8c0-4.2,1.9-6.4,4.5-6.4c2.7,0,4.5,2.2,4.5,5.8
		C655.9,514,654.2,516.2,651.6,516.2"/>
	<polyline fill="#231F20" points="355.2,553.1 358.3,553.1 358.3,542.4 368,542.4 368,539.6 358.3,539.6 358.3,532.3 368.6,532.3 
		368.6,529.5 355.2,529.5 355.2,553.1 	"/>
	<polyline fill="#231F20" points="379.1,553.1 379.1,536.7 376.1,536.7 376.1,553.1 	"/>
	<polyline fill="#231F20" points="379.3,532.8 379.3,529.5 375.8,529.5 375.8,532.8 	"/>
	<path fill="#231F20" d="M396.1,536.4c-2.3,0-4.2,1.2-4.9,2.9l-0.1-2.7h-2.9c0,1.2,0.1,2.3,0.1,3.4v13.1h2.9v-10.7
		c0-2.2,1.8-3.7,4.2-3.7c2.5,0,3.5,1.3,3.5,4v10.4h3v-10.3c0-1.8-0.1-3.1-0.8-4.1C400.1,537.3,398.3,536.4,396.1,536.4"/>
	<path fill="#231F20" d="M423,550.5v-9.1c0-3.5-1.7-5.1-6.3-5.1h-0.3c-3.6,0-5.6,1.7-5.6,4.5v0.2h2.8c0.1-1.6,1.1-2.6,2.8-2.8h0.5
		c2.1,0,3.2,0.8,3.2,2.7v1.9h-2.8l-0.9,0.1c-4.2,0.2-6.6,2.4-6.6,5.6c0,3,2,5,5.3,5h1.3c1.8-0.4,3.1-1.3,3.8-2.9
		c0.1,1.2,0.1,2.1,0.4,2.6h2.6c-0.1-0.9-0.2-1.4-0.2-1.6V550.5 M420.1,546.6c0,2.6-1.3,4.2-3.6,4.5h-0.6c-1.8,0-3-1.2-3-2.8
		c0-1.7,1.2-2.9,3.6-3.3h1.1h2.5V546.6z"/>
	<path fill="#231F20" d="M440,536.4c-2.3,0-4.2,1.2-5,2.9l-0.1-2.7H432c0.1,1.2,0.1,2.3,0.1,3.4v13.1h2.9v-10.7
		c0-2.2,1.8-3.7,4.2-3.7c2.6,0,3.7,1.3,3.7,4v10.4h2.9v-10.3c0-1.8-0.1-3.1-0.8-4.1C443.9,537.3,442.1,536.4,440,536.4"/>
	<path fill="#231F20" d="M460.9,551.2c-2.7,0-4-2.2-4-6.6c0-3.9,1.6-6.2,4-6.2c1.8,0,3.3,1.4,3.3,3.4h2.9v-0.1c0-3.3-2.3-5.4-6-5.4
		c-4.6,0-7.3,3.3-7.3,8.9c0,5.3,2.6,8.3,7,8.3c3.9,0,6.1-2.1,6.3-6h-2.9C464.3,549.9,462.9,551.2,460.9,551.2"/>
	<polyline fill="#231F20" points="478.3,553.1 478.3,536.7 475.4,536.7 475.4,553.1 	"/>
	<polyline fill="#231F20" points="478.5,532.8 478.5,529.5 475,529.5 475,532.8 	"/>
	<path fill="#231F20" d="M499.5,550.5v-9.1c0-3.5-1.9-5.1-6.3-5.1h-0.4c-3.7,0-5.6,1.7-5.6,4.5v0.2h2.9c0-1.6,1.1-2.6,2.7-2.8h0.5
		c2.2,0,3.1,0.8,3.1,2.7v1.9h-2.7l-0.9,0.1c-4.3,0.2-6.7,2.4-6.7,5.6c0,3,2.1,5,5.3,5h1.4c1.9-0.4,3.1-1.3,3.9-2.9
		c0.1,1.2,0.1,2.1,0.2,2.6h2.7c-0.1-0.9-0.1-1.4-0.1-1.6V550.5 M496.5,546.6c0,2.6-1.2,4.2-3.6,4.5h-0.6c-1.6,0-3-1.2-3-2.8
		c0-1.7,1.2-2.9,3.7-3.3h1.2h2.4V546.6z"/>
	<polyline fill="#231F20" points="511.3,553.1 511.3,529.5 508.4,529.5 508.4,553.1 	"/>
	<path fill="#231F20" d="M541.6,529.5h-0.3h-7.7v23.6h3.1v-10.4h3.4h1.2c5.2-0.2,7.7-2.3,7.7-6.8C549,531.6,546.5,529.5,541.6,529.5
		 M541.2,539.8H541h-4.4v-7.6h4.4h0.2c3.1,0.1,4.6,1.1,4.6,3.9C545.8,538.8,544.4,539.8,541.2,539.8"/>
	<path fill="#231F20" d="M567,550.5v-9.1c0-3.5-1.7-5.1-6.3-5.1h-0.2c-3.6,0-5.7,1.7-5.7,4.5v0.2h2.9c0-1.6,1.1-2.6,2.8-2.8h0.5
		c2.1,0,3.1,0.8,3.1,2.7v1.9h-2.7l-0.9,0.1c-4.4,0.2-6.7,2.4-6.7,5.6c0,3,1.9,5,5.3,5h1.3c1.8-0.4,3.1-1.3,3.8-2.9
		c0.1,1.2,0.1,2.1,0.3,2.6h2.5c-0.1-0.9-0.1-1.4-0.1-1.6V550.5 M564.1,546.6c0,2.6-1.3,4.2-3.6,4.5h-0.7c-1.7,0-3-1.2-3-2.8
		c0-1.7,1.2-2.9,3.7-3.3h1.1h2.5V546.6z"/>
	<path fill="#231F20" d="M578.7,539.8v-3.2h-2.9v2.5v0.7v13.2h2.9v-9.2c0-3,1.6-4.5,4.1-4.5c0.5,0,0.9,0,1.6,0.1v-2.8
		c-0.3-0.2-0.7-0.2-1.2-0.2C580.9,536.7,579.3,537.8,578.7,539.8"/>
	<path fill="#231F20" d="M595.3,532.3l-2.9,1v3.4h-2.8v2.2h2.8V550c0,2.7,1.2,3.5,4.1,3.5c0.5,0,1.4-0.1,2.3-0.4v-2.3
		c-0.5,0.1-0.9,0.3-1.5,0.3c-1.7,0-2-0.5-2-2.2v-10h3.5v-2.2h-3.5V532.3"/>
	<path fill="#231F20" d="M614.1,536.4c-2.4,0-4.3,1.2-5,2.9l-0.1-2.7h-3c0.1,1.2,0.1,2.3,0.1,3.4v13.1h3v-10.7
		c0-2.1,1.7-3.7,4.3-3.7c2.4,0,3.5,1.3,3.5,4v10.4h2.9v-10.3c0-1.8,0-3.1-0.7-4.1C618,537.3,616.3,536.4,614.1,536.4"/>
	<path fill="#231F20" d="M635.3,536.3h-0.1c-4.5,0-7.1,3-7.1,8.9c0,5.3,2.4,8.1,7.1,8.3h0.4c3.8,0,6.4-2.2,6.5-5.7h-2.9
		c0,2.2-1.5,3.5-3.8,3.5h-0.2c-2.7-0.1-4.2-1.8-4.2-4.9v-0.6v-0.4h4.2h7c0.1-0.7,0.1-1.3,0.1-1.9C642.3,539,639.6,536.3,635.3,536.3
		 M639.2,543.2h-4.1H631c0-2.9,1.8-4.7,4.1-4.8h0.2c2.2,0,3.8,1.7,3.8,4.5V543.2z"/>
	<path fill="#231F20" d="M657.9,536.7c-2.4,0-4,1.1-4.5,3.2l-0.1-3.2h-2.9v2.5v0.7v13.2h3v-9.2c0-3,1.5-4.5,4-4.5
		c0.5,0,0.9,0,1.6,0.1v-2.8C658.6,536.7,658.2,536.7,657.9,536.7"/>
</g>
</svg>
