<svg xmlns="http://www.w3.org/2000/svg" version="1.1" xmlns:xlink="http://www.w3.org/1999/xlink" xmlns:svgjs="http://svgjs.com/svgjs" width="512" height="512" x="0" y="0" viewBox="0 0 512 512" style="enable-background:new 0 0 512 512" xml:space="preserve" class=""><g><path fill="#92d2fe" fill-rule="evenodd" d="m284.754 343.033 44.952-45.28 73.705-74.243H108.589l73.706 74.243 44.951 45.279v158.561l57.508-57.927z" data-original="#92d2fe"></path><circle cx="187.955" cy="143.286" r="68.603" fill="#ffd54f" data-original="#ffd54f" class=""></circle><path fill="#ffc107" fill-rule="evenodd" d="M205.055 164.21c1.365-1.682 2.151-3.558 2.184-5.508.151-8.739-9.699-10.622-19.368-12.47-13.237-2.53-26.238-5.016-26.238-20.46 0-6.009 3.355-11.316 8.779-15.036 3.717-2.549 8.464-4.356 13.725-5.066v-7.438a5 5 0 0 1 10 0v7.441c3.129.425 6.08 1.239 8.744 2.368 4.376 1.854 7.997 4.591 10.411 7.897a4.977 4.977 0 0 1-8.047 5.859c-1.341-1.836-3.509-3.423-6.231-4.576-2.818-1.195-6.199-1.884-9.877-1.884-5.193 0-9.82 1.392-13.1 3.642-2.72 1.866-4.404 4.278-4.404 6.794 0 7.193 8.975 8.909 18.113 10.655 13.747 2.627 27.751 5.305 27.454 22.431a18.023 18.023 0 0 1-.908 5.352h-11.237z" data-original="#ffc107"></path><circle cx="329.344" cy="79.01" r="68.603" fill="#ffd54f" transform="rotate(-5.73 327.697 79.005)" data-original="#ffd54f" class=""></circle><path fill="#ffc107" fill-rule="evenodd" d="M301.05 105.294a4.977 4.977 0 0 1 8.047-5.859c1.601 2.192 4.17 4.078 7.383 5.439 3.294 1.396 7.235 2.202 11.512 2.202.564 0 1.122-.014 1.674-.042.28-.049.568-.074.862-.074.067 0 .132.002.199.004 4.925-.406 9.263-1.898 12.496-4.116 3.303-2.265 5.353-5.245 5.408-8.423.151-8.739-9.699-10.622-19.368-12.47-13.236-2.53-26.238-5.016-26.238-20.46 0-6.009 3.355-11.316 8.779-15.036 3.717-2.549 8.464-4.356 13.725-5.066v-7.438a5 5 0 0 1 10 0v7.441c3.129.425 6.08 1.239 8.744 2.368 4.376 1.854 7.997 4.591 10.411 7.897a4.977 4.977 0 0 1-8.047 5.859c-1.341-1.836-3.509-3.423-6.231-4.576-2.819-1.195-6.199-1.884-9.877-1.884-5.193 0-9.819 1.392-13.1 3.642-2.72 1.866-4.404 4.278-4.404 6.794 0 7.193 8.976 8.909 18.113 10.655 13.747 2.627 27.751 5.305 27.454 22.431-.114 6.625-3.807 12.437-9.744 16.509-3.669 2.517-8.236 4.373-13.32 5.307v7.666a5 5 0 0 1-10 0v-7.061c-4.669-.274-9.064-1.318-12.915-2.95-4.867-2.062-8.889-5.098-11.563-8.76z" data-original="#ffc107"></path><path fill="#43bdfd" d="M108.589 164.21h294.822v59.3H108.589z" data-original="#43bdfd" class=""></path></g></svg>
