<svg xmlns="http://www.w3.org/2000/svg" version="1.1" xmlns:xlink="http://www.w3.org/1999/xlink" xmlns:svgjs="http://svgjs.com/svgjs" width="512" height="512" x="0" y="0" viewBox="0 0 64 64" style="enable-background:new 0 0 512 512" xml:space="preserve" class=""><g><path fill="#6a7f91" d="m44.095 26.401 11 19.053L63 40.89V15.487z" data-original="#6a7f91"></path><path fill="#788d9e" d="m44.095 26.401 11 19.053L63 40.89V15.487z" data-original="#788d9e"></path><path fill="#6a7f91" d="m45.096 28.133 9.999 17.321L63 40.89V17.796z" data-original="#6a7f91"></path><path fill="#f5c0a6" d="m35.188 58.1 8.283-4.782a15 15 0 0 0 6.294-7.1l4.33-2.5-9-15.589-4.33 2.5-3.556-.541a8 8 0 0 0-5.2.98l-7.962 4.6" data-original="#f5c0a6"></path><path fill="#fcd4c5" d="M32.467 54.679 36 58.892a2.5 2.5 0 0 1-.308 3.523 2.5 2.5 0 0 1-3.521-.307L28.812 58.1l1.032 1.2-9.315-5.98a15 15 0 0 1-6.294-7.1l-4.33-2.5 9-15.589 4.33 2.5 3.556-.541a8 8 0 0 1 5.2.98l7.962 4.6" data-original="#fcd4c5" class=""></path><path fill="#fcd4c5" d="m37.53 37.377 11.248 13.406a2.5 2.5 0 0 1-.308 3.522A2.5 2.5 0 0 1 44.948 54L33.7 40.591" data-original="#fcd4c5" class=""></path><path fill="#fcd4c5" d="m33.7 40.591 12.312 14.674a2.5 2.5 0 0 1-.308 3.522 2.5 2.5 0 0 1-3.522-.309L29.869 43.805M29.869 43.805l11.249 13.406a2.5 2.5 0 0 1-.308 3.522 2.5 2.5 0 0 1-3.522-.308L26.039 47.019" data-original="#fcd4c5" class=""></path><path fill="#f9c9b2" d="M38.978 49.216a.75.75 0 0 1 .093-1.057.75.75 0 0 1 1.056.092l5.885 7.014a2.5 2.5 0 0 1-.308 3.522 2.473 2.473 0 0 1-.657.384 2.49 2.49 0 0 0-.184-2.942z" data-original="#f9c9b2"></path><g fill="#f5c0a6"><rect width="7.728" height="5" x="14.15" y="48.845" rx="2.5" transform="rotate(-49.98 18.027 51.35)" fill="#f5c0a6" data-original="#f5c0a6"></rect><rect width="9.383" height="5" x="16.62" y="52.693" rx="2.5" transform="rotate(-49.98 21.326 55.196)" fill="#f5c0a6" data-original="#f5c0a6"></rect><rect width="7.728" height="5" x="21.81" y="55.273" rx="2.5" transform="rotate(-49.98 25.689 57.777)" fill="#f5c0a6" data-original="#f5c0a6"></rect><path d="m28.004 58.906.468-.557a2.5 2.5 0 0 1 3.522-.307 2.5 2.5 0 0 1 .308 3.522l-.47.559a2.5 2.5 0 0 1-3.522.307 2.5 2.5 0 0 1-.306-3.524zM40.765 30.633l-3.556-.541a8 8 0 0 0-5.2.98l-8.36 4.828a2.5 2.5 0 0 0-.915 3.415 2.5 2.5 0 0 0 3.415.915l6.495-3.75a8 8 0 0 0 10.929 2.929" fill="#f5c0a6" data-original="#f5c0a6"></path></g><path fill="#f5fdff" d="m44.094 26.4 5.196-3 11 19.052-5.196 3z" data-original="#f5fdff"></path><path fill="#788d9e" d="m19.905 26.401-11 19.053L1 40.89V15.487z" data-original="#788d9e"></path><path fill="#6a7f91" d="m1 40.89 7.905 4.564 9.999-17.321L1 17.796z" data-original="#6a7f91"></path><path fill="#f5fdff" d="m3.707 42.454 11-19.052 5.196 3-11 19.052z" data-original="#f5fdff"></path><path fill="#f9c9b2" d="M36.3 51.465a.749.749 0 0 0-1.056-.092.75.75 0 0 0-.093 1.057l4.821 5.745a2.492 2.492 0 0 1 .185 2.942 2.467 2.467 0 0 0 .656-.384 2.5 2.5 0 0 0 .308-3.523zM31.318 55.644a.75.75 0 0 1 .092-1.057.751.751 0 0 1 1.057.092L36 58.893a2.5 2.5 0 0 1-.308 3.522 2.473 2.473 0 0 1-.657.384 2.49 2.49 0 0 0-.184-2.942z" data-original="#f9c9b2"></path><path fill="#ebb69d" d="M19.656 50.943 17.9 53.032a2.491 2.491 0 0 1-2.865.693 2.459 2.459 0 0 0 .493.58A2.5 2.5 0 0 0 19.052 54l1.753-2.09A2.468 2.468 0 0 0 19.84 48a2.493 2.493 0 0 1-.184 2.943zM23.486 54.157l-2.817 3.357a2.493 2.493 0 0 1-2.866.693 2.467 2.467 0 0 0 4.015.271l2.817-3.357a2.469 2.469 0 0 0-.964-3.907 2.493 2.493 0 0 1-.185 2.943zM27.316 57.371l-1.753 2.089a2.492 2.492 0 0 1-2.866.693 2.467 2.467 0 0 0 4.015.272l1.753-2.09a2.469 2.469 0 0 0-.964-3.907 2.493 2.493 0 0 1-.185 2.943zM31.149 60.584l-.468.558a2.492 2.492 0 0 1-2.867.692 2.47 2.47 0 0 0 4.016.272l.468-.557a2.5 2.5 0 0 0-.308-3.522 2.447 2.447 0 0 0-.655-.384 2.492 2.492 0 0 1-.186 2.941z" data-original="#ebb69d"></path><path fill="#e6f5fa" d="m3.707 42.454 10-17.32 5.196 3-10 17.32z" data-original="#e6f5fa"></path><path fill="#f5fdff" d="m44.094 26.4 5.196-3 11 19.052-5.196 3z" data-original="#f5fdff"></path><path fill="#e6f5fa" d="m45.095 28.132 5.196-3 10 17.32-5.196 3z" data-original="#e6f5fa"></path><circle cx="32" cy="13" r="12" fill="#b6f085" data-original="#b6f085"></circle><path fill="#a0e576" d="M34 3a11.988 11.988 0 0 0-9.419 19.419A11.988 11.988 0 0 0 41.419 5.581 11.93 11.93 0 0 0 34 3z" data-original="#a0e576"></path><path fill="#ffffff" d="m29.525 15.121-2.475-2.475a1.5 1.5 0 0 0-2.121 0 1.5 1.5 0 0 0 0 2.122l3.535 3.532a1.5 1.5 0 0 0 2.122 0l8.485-8.485a1.5 1.5 0 0 0 0-2.121 1.5 1.5 0 0 0-2.121 0z" data-original="#ffffff"></path></g></svg>
