<svg xmlns="http://www.w3.org/2000/svg" version="1.1" xmlns:xlink="http://www.w3.org/1999/xlink" xmlns:svgjs="http://svgjs.com/svgjs" width="512" height="512" x="0" y="0" viewBox="0 0 64 64" style="enable-background:new 0 0 512 512" xml:space="preserve" class=""><g><path fill="#ffc250" d="M18 5a5.006 5.006 0 0 0-5 5v20a1 1 0 0 0 1 1h8a1 1 0 0 0 1-1V10a5.006 5.006 0 0 0-5-5z" data-original="#ffc250"></path><path fill="#61a2f9" d="M55 14v38.78A6.263 6.263 0 0 1 48.78 59H27a6 6 0 0 1-6-6V9a4 4 0 0 0-3.33-3.94A.881.881 0 0 1 18 5h28a9.026 9.026 0 0 1 9 9z" data-original="#61a2f9"></path><path fill="#80b4fb" d="M55 14v38.78a6.116 6.116 0 0 1-1.19 3.63 6.193 6.193 0 0 1-3.59 1.15H28.44a5.992 5.992 0 0 1-6-6v-44A3.913 3.913 0 0 0 21.5 5H46a9.026 9.026 0 0 1 9 9z" data-original="#80b4fb"></path><path fill="#ffe07d" d="M38 18a3 3 0 1 1 3-3 1 1 0 0 1-2 0 1 1 0 1 0-1 1 1 1 0 0 1 0 2z" data-original="#ffe07d"></path><path fill="#ffe07d" d="M38 22a3 3 0 0 1-3-3 1 1 0 0 1 2 0 1 1 0 1 0 1-1 1 1 0 0 1 0-2 3 3 0 0 1 0 6zM38 14a1 1 0 0 1-1-1v-1.333a1 1 0 0 1 2 0V13a1 1 0 0 1-1 1z" data-original="#ffe07d"></path><path fill="#ffe07d" d="M38 23.333a1 1 0 0 1-1-1V21a1 1 0 0 1 2 0v1.333a1 1 0 0 1-1 1z" data-original="#ffe07d"></path><g fill="#eaf7ff"><path d="M48 29h-4a1 1 0 0 1 0-2h4a1 1 0 0 1 0 2zM41 29H28a1 1 0 0 1 0-2h13a1 1 0 0 1 0 2zM48 39h-2a1 1 0 0 1 0-2h2a1 1 0 0 1 0 2zM43 39H28a1 1 0 0 1 0-2h15a1 1 0 0 1 0 2zM31 34h-3a1 1 0 0 1 0-2h3a1 1 0 0 1 0 2zM48 34H34a1 1 0 0 1 0-2h14a1 1 0 0 1 0 2zM48 44H28a1 1 0 0 1 0-2h20a1 1 0 0 1 0 2z" fill="#eaf7ff" data-original="#eaf7ff"></path></g><path fill="#ffc250" d="M29 47a11.994 11.994 0 0 1-20.89 8.05A11.88 11.88 0 0 1 5 47a12.01 12.01 0 0 1 12-12 12.017 12.017 0 0 1 12 12z" data-original="#ffc250"></path><path fill="#ffe07d" d="M26 43A13.01 13.01 0 0 1 8.11 55.05 11.88 11.88 0 0 1 5 47a12.01 12.01 0 0 1 12-12 11.88 11.88 0 0 1 8.05 3.11A13.026 13.026 0 0 1 26 43z" data-original="#ffe07d"></path><path fill="#c6e5ff" d="M25 47a8.016 8.016 0 1 1-1.87-5.13A8.011 8.011 0 0 1 25 47z" data-original="#c6e5ff"></path><path fill="#eaf7ff" d="M25 47a7.992 7.992 0 0 1-13.13 6.13 7.992 7.992 0 0 1 11.26-11.26A7.992 7.992 0 0 1 25 47z" data-original="#eaf7ff"></path><path fill="#fe9c39" d="M16 50a1 1 0 0 1-.707-.293l-2-2a1 1 0 0 1 1.414-1.414L16 47.586l3.293-3.293a1 1 0 0 1 1.414 1.414l-4 4A1 1 0 0 1 16 50z" data-original="#fe9c39"></path><path fill="#4665e8" d="M59 49v3a7.008 7.008 0 0 1-7 7H28a.866.866 0 0 1-.32-.06 3.994 3.994 0 0 0 2.46-1.46A3.9 3.9 0 0 0 31 55v-6a1 1 0 0 1 1-1h26a1 1 0 0 1 1 1z" data-original="#4665e8"></path><path fill="#566ff8" d="M57.48 48v2.48a7.008 7.008 0 0 1-7 7H30.14A3.9 3.9 0 0 0 31 55v-6a1 1 0 0 1 1-1z" data-original="#566ff8"></path></g></svg>
