<svg xmlns="http://www.w3.org/2000/svg" version="1.1" xmlns:xlink="http://www.w3.org/1999/xlink" xmlns:svgjs="http://svgjs.com/svgjs" width="512" height="512" x="0" y="0" viewBox="0 0 512 512" style="enable-background:new 0 0 512 512" xml:space="preserve" class=""><g><linearGradient id="a" x1="233.5" x2="233.5" y1="421" y2="31" gradientUnits="userSpaceOnUse"><stop offset="0" stop-color="#a93aff"></stop><stop offset="1" stop-color="#ff81ff"></stop></linearGradient><linearGradient id="b" x1="286" x2="286" y1="481" y2="91" gradientUnits="userSpaceOnUse"><stop offset="0" stop-color="#ffbef9"></stop><stop offset="1" stop-color="#fff1ff"></stop></linearGradient><path fill="url(#a)" d="M454.256 284.843C445.906 276.054 434.158 271 422 271s-23.906 5.054-31.641 13.213l-28.477 28.315C353.738 305.175 343.045 301 332 301c-12.158 0-23.906 5.054-31.143 12.729C292.068 322.094 287 333.856 287 346c0 12.158 5.068 23.906 13.301 31.714l28.887 28.828C337.42 415.727 349.402 421 362 421s24.58-5.273 31.699-13.286l59.443-59.443C461.932 339.906 467 328.158 467 316c0-12.144-5.068-23.906-12.744-31.157zM377 241c8.291 0 15-6.709 15-15V76c0-24.814-20.186-45-45-45H45C20.186 31 0 51.186 0 76v180c0 24.814 20.186 45 45 45h228.201c5.361 0 10.312-2.871 13.008-7.515C304.812 261.112 339.617 241 377 241z" data-original="url(#a)" class=""></path><path fill="url(#b)" d="M377 211c-75.549 0-135 62.216-135 135 0 74.399 60.601 135 135 135s135-60.601 135-135c0-74.401-60.601-135-135-135zm55.499 115.499-60 60C369.8 389.5 365.9 391 362 391s-7.8-1.5-10.499-4.501l-30-30c-6.002-5.7-6.002-15.3 0-21 5.702-5.999 15.297-5.999 20.999 0l19.501 19.2 49.501-49.2c5.702-5.999 15.297-5.999 20.999 0 6 5.7 6 15.3-.002 21zM75 121h242c8.291 0 15-6.709 15-15s-6.709-15-15-15H75c-8.291 0-15 6.709-15 15s6.709 15 15 15zm30 90H75c-8.291 0-15 6.709-15 15s6.709 15 15 15h30c8.291 0 15-6.709 15-15s-6.709-15-15-15z" data-original="url(#b)" class=""></path></g></svg>
