<svg xmlns="http://www.w3.org/2000/svg" version="1.1" xmlns:xlink="http://www.w3.org/1999/xlink" xmlns:svgjs="http://svgjs.com/svgjs" width="512" height="512" x="0" y="0" viewBox="0 0 24 24" style="enable-background:new 0 0 512 512" xml:space="preserve" class=""><g><g data-name="Layer 2"><rect width="17.5" height="20.5" x="1.25" y="1.25" fill="#0db561" rx="1.75" data-original="#0db561" class=""></rect><circle cx="18" cy="18" r="4.75" fill="#ffcb27" data-original="#ffcb27"></circle><g fill="#fff"><path d="M19 20.14a.77.77 0 0 1-.61-.31l-1-1.39a.77.77 0 0 1-.14-.44v-2a.75.75 0 0 1 1.5 0v1.76l.86 1.24a.76.76 0 0 1-.17 1 .72.72 0 0 1-.44.14zM10 15.75H6a.75.75 0 0 1 0-1.5h4a.75.75 0 0 1 0 1.5zM14 11.25H6a.75.75 0 0 1 0-1.5h8a.75.75 0 0 1 0 1.5zM14 6.75H6a.75.75 0 0 1 0-1.5h8a.75.75 0 0 1 0 1.5z" fill="#ffffff" data-original="#ffffff"></path></g></g></g></svg>
