<svg xmlns="http://www.w3.org/2000/svg" version="1.1" xmlns:xlink="http://www.w3.org/1999/xlink" xmlns:svgjs="http://svgjs.com/svgjs" width="512" height="512" x="0" y="0" viewBox="0 0 512.061 512.061" style="enable-background:new 0 0 512 512" xml:space="preserve" class=""><g><path fill="#0b799d" d="M344.03 512H176.577c-53.234 0-96.543-43.309-96.543-96.543s43.309-96.544 96.543-96.544h55.664c16.419 0 29.776-13.357 29.776-29.776s-13.357-29.776-29.776-29.776h-58.202v-30h58.202c32.961 0 59.776 26.815 59.776 59.776s-26.815 59.776-59.776 59.776h-55.664c-36.692 0-66.543 29.851-66.543 66.543S139.884 482 176.577 482H344.03z" data-original="#0b799d" class=""></path><path fill="#e50058" d="M100.948 0 80.946 100.919l20.001 142.717 71.359-71.359c18.262-18.262 29.558-43.492 29.558-71.359C201.865 45.182 156.683 0 100.948 0z" data-original="#e50058"></path><path fill="#ff415b" d="M.03 100.917c0 27.867 11.296 53.097 29.558 71.359l71.359 71.359V0C45.213 0 .03 45.182.03 100.917z" data-original="#ff415b"></path><path fill="#ff415b" d="m100.948 30-20.001 70.919 20.001 70.919c39.104 0 70.919-31.814 70.919-70.919S140.052 30 100.948 30z" data-original="#ff415b"></path><path fill="#ff7c48" d="M30.029 100.919c0 39.105 31.814 70.919 70.919 70.919V30c-39.105 0-70.919 31.814-70.919 70.919z" data-original="#ff7c48"></path><path fill="#e1ebf0" d="M141.866 100.919C141.866 78.356 123.51 60 100.948 60l-20.001 40.919 20.001 40.919c22.562 0 40.918-18.356 40.918-40.919z" data-original="#e1ebf0"></path><path fill="#fff5f5" d="M60.029 100.919c0 22.563 18.356 40.919 40.919 40.919V60c-22.563 0-40.919 18.356-40.919 40.919z" data-original="#fff5f5"></path><path fill="#e50058" d="m432.026 318.913-20.001 96.574 20.001 96.574 56.572-56.571c15.11-15.112 23.432-35.203 23.432-56.572 0-44.115-35.889-80.005-80.004-80.005z" data-original="#e50058"></path><path fill="#ff415b" d="M352.022 398.917c0 21.37 8.321 41.461 23.431 56.572l56.573 56.571V318.913c-44.114 0-80.004 35.89-80.004 80.004z" data-original="#ff415b"></path></g></svg>
