<?xml version="1.0" encoding="utf-8"?>
<!-- Generator: Adobe Illustrator 27.0.0, SVG Export Plug-In . SVG Version: 6.00 Build 0)  -->
<svg version="1.2" baseProfile="tiny" id="Layer_1" xmlns="http://www.w3.org/2000/svg" xmlns:xlink="http://www.w3.org/1999/xlink"
	 x="0px" y="0px" viewBox="0 0 800 800" overflow="visible" xml:space="preserve">
<g id="Page-1">
	<g id="mastercard">
		<path id="Rectangle-1" fill="#034932" d="M42.7,148.8h714.7c23.6,0,42.7,19.1,42.7,42.7v417.1c0,23.6-19.1,42.7-42.7,42.7H42.7
			C19.1,651.2,0,632.1,0,608.5V191.5C0,167.9,19.1,148.8,42.7,148.8z"/>
	</g>
</g>
<g>
	<g>
		<g>
			<polygon fill="#C2D62F" points="91.9,400 91.9,487.1 127.2,471.9 127.2,384.9 			"/>
			<polygon fill="#C2D62F" points="172.2,328.1 172.2,415.1 208,400 208,312.9 			"/>
			<polygon fill="#C2D62F" points="131.8,382.8 131.8,469.8 167.6,416.8 167.6,329.8 			"/>
		</g>
		<g>
			<g>
				<path fill="#FFFFFF" d="M274.4,375.6c0,10.5,3.4,20.2,20.2,34.1l6.7,5.9c13.5,10.9,17.2,16.8,17.2,26.5
					c0,9.3-7.2,18.9-20.6,18.9c-5.5,0-18.9-1.3-21.5-14.7c-0.4-2.1-0.4-4.2-0.4-5.5c0-0.8,0-2.9-2.1-2.9s-2.1,2.5-2.5,3.4v1.7
					c-0.4,2.9-0.4,8.4-0.4,14.3c0,4.2,0,5.5,2.9,6.7l0,0c5.9,2.9,12.6,4.2,21,4.2c9.3,0,17.2-2.1,23.6-6.7
					c10.1-7.2,13.5-18.1,13.5-26.1c0-11.8-3.8-21.9-22.7-36.6l-4.2-3.4c-14.7-11.8-18.1-16.8-18.1-24.8c0-10.1,7.2-16.4,17.7-16.4
					c12.6,0,16.8,5,18.1,7.6c0.8,1.7,1.7,5.5,1.7,7.2c0,1.3,0.4,2.9,2.5,2.9c2.1,0,2.1-2.9,2.1-4.6c0-8,0.4-13,0.4-15.1v-1.3
					c0-1.3-0.8-2.1-2.5-2.1c-0.8,0-2.1,0-5-0.8c-4.2-0.8-8.8-1.7-14.3-1.7C287.5,347.4,274.4,358.8,274.4,375.6z"/>
				<path fill="#FFFFFF" d="M460.4,350.4c0,0-40.4,93-40.4,93.4c-0.4-0.4-42.1-93.4-42.1-93.4c-0.4-1.3-1.3-2.9-2.9-2.9
					c-2.1,0-2.5,2.5-2.5,3.8l-10.1,100.1c-0.4,5.5-0.8,10.5-4.6,10.9c-2.1,0.4-2.5,0.4-4.2,0.4c-1.3,0-2.5,0.8-2.5,1.7
					c0,0.8,0.4,2.5,3.4,2.5c2.5,0,7.2-0.4,8.8-0.4s2.5,0,2.5,0s1.7,0,3.4,0s6.7,0.4,10.5,0.4c1.3,0,3.8,0,3.8-2.5
					c0-0.8-0.8-1.7-2.1-1.7c-1.3,0-2.5,0-5-0.8c-1.7-0.4-2.9-1.7-2.9-3.8c0-2.5,0-5.5,0-7.6c0,0,5-67.3,5.5-67.3
					c-0.4,0,34.1,76.1,34.1,76.1c2.9,5.9,3.4,7.2,5,7.2c1.7,0,2.5-1.3,4.6-6.3l34.1-78.2l6.3,74.9c0,0.8,0,1.7,0,2.5
					c0,1.3,0,2.5-0.4,2.9c-1.3,0.4-1.3,1.3-1.3,2.1c0,2.1,2.1,2.5,5,2.5c5.5,0.4,20.6,0,23.6,0c3.8,0,4.2-1.7,4.2-2.5
					c0-0.4,0-1.7-2.1-1.7c-1.3,0-5,0-8.8-1.3c-5.5-2.1-6.3-10.1-6.7-15.1l-10.1-93.8c0-2.1-0.4-5-2.9-5
					C461.6,347.4,460.8,349.1,460.4,350.4z"/>
				<path fill="#FFFFFF" d="M533.1,357.1c0-0.4,0-0.4,0.8-0.4c2.1-0.4,5-0.8,7.2-0.8c14.3,0,19.4,13,19.4,25.2
					c0,5.5-1.7,10.9-5,14.7c-2.9,3.4-4.6,3.8-13,3.8c-5.5,0-8-0.4-8.8-0.4c0,0-0.4,0-0.4-0.4C533.1,397.5,533.1,357.1,533.1,357.1z
					 M531.9,349.5h-5.5h-2.1c-3.4,0-10.1-0.4-15.1-0.4c-0.8,0-3.4,0-3.4,2.1c0,1.3,0.8,2.1,2.1,2.1c1.3,0,3.8,0,5,0.4
					c4.2,0.8,5.5,2.5,5.9,7.6c0.4,4.6,0.4,9.3,0.4,32.8V421c0,14.3,0,26.5-0.8,32.8c-0.8,4.6-1.3,7.2-3.4,7.6
					c-1.7,0.4-3.4,0.4-4.2,0.4c-1.7,0-2.5,0.8-2.5,2.1c0,2.5,2.5,2.5,3.8,2.5c3.4,0,8-0.4,11.4-0.4h3.4l5.9,0.4
					c5,0.4,12.2,0.8,14.3,0.8c26.1,0,40-17.2,40-34.1c0-18.5-14.7-29.4-25.2-32.8c7.6-5,13.5-14.7,13.5-26.9c0-8.8-6.7-24-31.5-24
					C539,349.5,535.2,349.5,531.9,349.5z M537.8,458.1c-4.2-2.1-4.2-3.4-4.6-10.5v-0.4c0-2.1,0-21.5,0-32.8c0,0,0-8.4,0-8.8
					c6.3,0,10.1,0,11.4,0.4l0,0c3.4,0.4,7.2,0.8,12.2,4.2c13,8.8,14.3,23.6,14.3,29.4c0,19.8-18.1,20.6-20.2,20.6
					C549.5,460.2,542.4,459.7,537.8,458.1z"/>
				<path fill="#FFFFFF" d="M624,364.7c-11.4,13-15.1,30.7-14.7,42.9c0.4,19.4,6.7,34.5,18.5,45.4c12.2,10.9,27.3,16,48,15.6
					c8.4,0,19.8-1.7,25.7-4.2c2.9-1.3,3.4-2.1,4.2-5c1.3-5.5,2.5-18.5,2.5-19.8c0-2.9-1.7-3.4-2.1-3.4c-2.1,0-2.1,2.1-2.5,3.4
					c-0.4,2.9-2.1,9.3-4.6,12.2c-5,6.3-13,7.6-23.6,8c-13.9,0.4-26.9-5-36.6-15.6c-9.3-10.1-14.3-23.6-14.7-37.9
					c-0.4-13,0.8-27.8,11.4-39.1c6.7-7.6,16.8-11.4,31.5-11.8c12.6-0.4,23.1,3.8,27.8,7.6c3.4,2.9,5.5,8,5.9,14.7
					c0,1.7,0,4.2,2.1,4.2s2.1-2.5,2.1-4.2v-5.5c0-3.4,0-7.6,0-10.5c0-3.4,0.4-5.5,0.4-6.7v-2.1c0-1.7-0.8-2.5-2.9-2.5
					c-4.2,0-8.8-0.8-13.9-1.7h-0.4c-8.4-1.3-17.2-1.3-20.6-1.3C648,347.4,634.1,353.3,624,364.7z M627.8,453L627.8,453L627.8,453z"
					/>
			</g>
		</g>
	</g>
</g>
</svg>
