<svg xmlns="http://www.w3.org/2000/svg" version="1.1" xmlns:xlink="http://www.w3.org/1999/xlink" xmlns:svgjs="http://svgjs.com/svgjs" width="512" height="512" x="0" y="0" viewBox="0 0 497 497" style="enable-background:new 0 0 512 512" xml:space="preserve" class=""><g><path fill="#7e8a94" d="m71 125 17.5 10 17.5-10V42c0-23.1-18.9-42-42-42H54a5 5 0 0 0-5 5v25.5a5 5 0 0 0 5 5h11a6.236 6.236 0 0 1 6.229 6.229z" data-original="#7e8a94" class=""></path><path fill="#5f6c76" d="m71 125 .23-83.27c0-3.44-2.8-6.23-6.23-6.23h15c3.43 0 6.23 2.79 6.23 6.23L86 125zM106 125H71c-5.523 0-10 4.477-10 10v76l21.5 10 23.5-10 10-43z" data-original="#5f6c76"></path><path fill="#4f5a61" d="M61 211v-76c0-5.52 4.48-10 10-10h20c-5.52 0-10 4.48-10 10v76zM106 211H67c-11.046 0-20 8.954-20 20v73l59-10 10-41z" data-original="#4f5a61"></path><path fill="#7e8a94" d="m426 125-18.25 10L391 125V42c0-23.1 18.9-42 42-42h10a5 5 0 0 1 5 5v25.5a5 5 0 0 1-5 5h-11a6.236 6.236 0 0 0-6.229 6.229z" data-original="#7e8a94" class=""></path><path fill="#5f6c76" d="M390 125h35c5.523 0 10 4.477 10 10v76l-20.5 10-23.5-10-10.5-42.994z" data-original="#5f6c76"></path><path fill="#4f5a61" d="M391 211h39c11.046 0 20 8.954 20 20v73l-59-10-10-41.5z" data-original="#4f5a61"></path><path fill="#d82f3d" d="M106 85h285v191.5H106z" data-original="#d82f3d" class=""></path><path fill="#c42330" d="M106 256.5h285v20H106z" data-original="#c42330"></path><path fill="#5f6c76" d="M128 447v30c0 11.046-8.954 20-20 20H72c-11.046 0-20-8.954-20-20v-30zM445 447v30c0 11.046-8.954 20-20 20h-36c-11.046 0-20-8.954-20-20v-30z" data-original="#5f6c76"></path><path fill="#4f5a61" d="M92 497H72c-11.05 0-20-8.95-20-20v-30h20v30c0 11.05 8.95 20 20 20zM409 497h-20c-11.05 0-20-8.95-20-20v-30h20v30c0 11.05 8.95 20 20 20z" data-original="#4f5a61"></path><path fill="#d82f3d" d="M354 274.883h51c33.137 0 60 26.863 60 60V401H354l-10-63.059z" data-original="#d82f3d" class=""></path><path fill="#d82f3d" d="M470.342 449.823 369 467h-10l-15-3-20 3H173l-15-3-20 3h-10L26.658 449.823C17.039 448.193 10 439.861 10 430.105V411c0-5.523 4.477-10 10-10h123l106-14.989L354 401h123c5.523 0 10 4.477 10 10v19.105c0 9.756-7.039 18.088-16.658 19.718z" data-original="#d82f3d" class=""></path><path fill="#c42330" d="M486.99 410.52c-.19 9.58-7.17 17.69-16.65 19.3l-100.925 17.11c-.276.047-.556.07-.836.07H128.421c-.28 0-.56-.024-.836-.07l-93.421-15.837a5 5 0 0 1-4.164-4.93V411c0-5.52 4.48-10 10-10H20c-5.4 0-9.793 4.29-9.982 9.644-.001-.042-.007-.082-.008-.124-.01.16-.01.32-.01.48v19.1c0 9.76 7.04 18.09 16.66 19.72l100.925 17.11c.276.047.556.07.836.07H138l18.181-3L173 467h151l17.926-3L359 467h9.579c.28 0 .56-.024.836-.07l100.925-17.11c9.62-1.63 16.66-9.96 16.66-19.72V411c0-.16 0-.32-.01-.48z" data-original="#c42330"></path><path fill="#d82f3d" d="m143 275-50.406-.4C59.226 274.27 32 301.228 32 334.597V401h111z" data-original="#d82f3d" class=""></path><path fill="#c42330" d="M102.71 274.75C71.62 276.94 47 302.87 47 334.6V401H32v-66.4c0-32.59 25.97-59.07 58.26-59.97z" data-original="#c42330"></path><path fill="#f3d333" d="M364 321h61c5.523 0 10 4.477 10 10v25c0 5.523-4.477 10-10 10h-61l-10-22.5z" data-original="#f3d333"></path><path fill="#e8a42b" d="M394 366h-30l-10-22.5 10-22.5h30c-5.52 0-10 4.48-10 10v25c0 5.52 4.48 10 10 10z" data-original="#e8a42b"></path><path fill="#f3d333" d="M133 366H72c-5.523 0-10-4.477-10-10v-25c0-5.523 4.477-10 10-10h61l10 22.5z" data-original="#f3d333"></path><path fill="#e8a42b" d="M92 366H72c-5.52 0-10-4.48-10-10v-25c0-5.52 4.48-10 10-10h20c-5.52 0-10 4.48-10 10v25c0 5.52 4.48 10 10 10z" data-original="#e8a42b"></path><path fill="#f5faff" d="M354 191H143c-5.523 0-10-4.477-10-10v-56c0-5.523 4.477-10 10-10h211c5.523 0 10 4.477 10 10v56c0 5.523-4.477 10-10 10z" data-original="#f5faff"></path><path fill="#d7e1f2" d="M364 181v-5H158c-5.52 0-10-4.48-10-10v-51h-5c-5.52 0-10 4.48-10 10v56c0 5.52 4.48 10 10 10h211c5.52 0 10-4.48 10-10z" data-original="#d7e1f2"></path><path fill="#d82f3d" d="m391 85-20.581-58.313A40 40 0 0 0 332.699 0H164.301a40.002 40.002 0 0 0-37.72 26.687L106 85z" data-original="#d82f3d" class=""></path><path fill="#c42330" d="M391 85H106l7.06-20h270.88zM321 0v20c0 11.046-8.954 20-20 20H196c-11.046 0-20-8.954-20-20V0z" data-original="#c42330"></path><path fill="#f3d333" d="M168 432h-25a5 5 0 0 0-5 5v30h35v-30a5 5 0 0 0-5-5zM354 432h-25a5 5 0 0 0-5 5v30h35v-30a5 5 0 0 0-5-5z" data-original="#f3d333"></path><path fill="#e8a42b" d="M158 432c-2.76 0-5 2.24-5 5v30h-15v-30c0-2.76 2.24-5 5-5zM344 432c-2.76 0-5 2.24-5 5v30h-15v-30c0-2.76 2.24-5 5-5z" data-original="#e8a42b"></path><path fill="#c42330" d="M133 396V271c0-27.614 22.386-50 50-50h131c27.614 0 50 22.386 50 50v125a5 5 0 0 1-5 5H138a5 5 0 0 1-5-5z" data-original="#c42330"></path><path fill="#5f6c76" d="M334 346v-70c0-13.807-11.193-25-25-25H188c-13.807 0-25 11.193-25 25v70c0 13.807 11.193 25 25 25h121c13.807 0 25-11.193 25-25z" data-original="#5f6c76"></path><g fill="#4f5a61"><path d="M305 288.5H193c-4.142 0-7.5-3.357-7.5-7.5s3.358-7.5 7.5-7.5h112c4.142 0 7.5 3.357 7.5 7.5s-3.358 7.5-7.5 7.5zM305 318.5H193c-4.142 0-7.5-3.357-7.5-7.5s3.358-7.5 7.5-7.5h112c4.142 0 7.5 3.357 7.5 7.5s-3.358 7.5-7.5 7.5zM305 348.5H193c-4.142 0-7.5-3.357-7.5-7.5s3.358-7.5 7.5-7.5h112c4.142 0 7.5 3.357 7.5 7.5s-3.358 7.5-7.5 7.5z" fill="#4f5a61" data-original="#4f5a61"></path></g></g></svg>
