<svg xmlns="http://www.w3.org/2000/svg" version="1.1" xmlns:xlink="http://www.w3.org/1999/xlink" xmlns:svgjs="http://svgjs.com/svgjs" width="512" height="512" x="0" y="0" viewBox="0 0 512 511" style="enable-background:new 0 0 512 512" xml:space="preserve" class=""><g><path fill="#23292e" d="M300.96 460.367c.415-.21 21.825-12.613 21.825-12.613l-14.848-22.836c-3.914-13.73-12.578-26.711-22.644-32.523-13.742-7.934-24.879.484-24.879 18.804s11.137 39.602 24.879 47.531c5.937 3.43 11.39 3.797 15.668 1.637zM114.023 326.98 99.18 304.14c-3.918-13.73-12.582-26.71-22.649-32.523-13.742-7.933-24.879.488-24.879 18.809 0 18.316 11.137 39.597 24.88 47.531 6.511 3.758 12.437 3.84 16.87.938zm0 0" data-original="#23292e"></path><path fill="#72e8f1" d="M511.918 374.86c-1.059-55.305-15.754-116.169-32.02-160.587-3.957-12.562-12.152-22.187-23.558-28.77L138.45 1.978c-3.923-2.211-8.384-1.809-11.759.34h-.003L13.59 67.604c-3.133 1.711-5.488 4.852-5.899 8.86L0 151.953v80.672a18.71 18.71 0 0 0 4.652 12.352l33.485 38.156L368.27 474.027c8.82 5.098 18.53 8.063 28.414 8.926v.012c.156.012.312.02.464.031.356.031.711.078 1.067.102v-.024c10.726.7 21.61-1.09 31.746-5.476 22.496-9.743 43.727-22.11 63.305-36.785 8.078-7.075 14.199-16.317 17.011-26.508 0 0 1.473-6.383 1.66-10.395l.063.047v-20.758l-.082-8.34zm0 0" data-original="#72e8f1" class=""></path><path fill="#ffffff" d="M502.434 420.121a25.945 25.945 0 0 0 8.23-7.441c.691-2.864 1.14-5.793 1.274-8.77l.062.047v-20.758c-.004.375-9.566 14.16-9.566 36.922zM421.648 447.477h-23.316c4.898 14.777 21.52 22.054 35.7 15.628l2.234-1.011c0-8.074-6.543-14.617-14.618-14.617zm0 0" data-original="#ffffff"></path><path fill="#243b58" d="M378.082 317.93a434.387 434.387 0 0 1 9.64 35.968L501.5 289.383c-4.844-24.34-11.773-50.477-21.602-75.11-.011.008-.023.012-.035.02l-113.8 65.64c.003.016.011.032.019.051.11.328 12 37.946 12 37.946zM505.07 309.219l-113.297 65.129a435.864 435.864 0 0 1 6.372 67.418c.074 1.902.136 3.804.187 5.71h23.316c8.075 0 14.618 6.544 14.618 14.618 24.84-9.567 46.937-23.582 66.168-41.973 0-22.762 9.562-36.547 9.566-36.922.043-11.629-1.402-39.844-6.93-73.98zm0 0" data-original="#243b58"></path><path fill="#2eb3bd" d="M398.215 483.098V448.89c0-44.422-6.79-88.59-20.133-130.961l-11.644-36.965c-.102-.336-.247-.653-.36-.985a52.788 52.788 0 0 0-9.11-16.507c-4-4.899-8.933-9.118-14.413-12.278L24.773 67.723c-.449-.258-.902-.48-1.363-.672-6.914-2.88-14.93 1.683-15.719 9.414L0 151.953v80.672a18.71 18.71 0 0 0 4.652 12.352l33.485 38.156L368.27 474.027a68.68 68.68 0 0 0 29.945 9.07zm0 0" data-original="#2eb3bd" class=""></path><path fill="#304e75" d="m311.293 309.324-.016 55.176L0 184.687v1.633l72.574 41.914-.031 75.22 1.633.937v-42.196l54.863 31.688-.016 42.168 1.633.937v-75.207l55.285 31.93-.03 75.2 1.632.937v-75.211l55.488 32.043-.035 75.086 1.633.937v-75.098l66.648 38.493-.02 75.004 1.634.937V310.262zm-182.25-17.058L74.176 260.57v-31.41l54.879 31.695zm0 0" data-original="#304e75"></path><path fill="#2e373d" d="M310.168 439.926c0 18.32-11.137 26.738-24.875 18.808-13.738-7.933-24.879-29.214-24.879-47.535 0-18.316 11.14-26.738 24.879-18.804 13.738 7.93 24.875 29.21 24.875 47.53zm0 0" data-original="#2e373d"></path><path fill="#cecece" d="M296.898 432.625c0 9.008-5.476 13.148-12.23 9.246-6.754-3.898-12.23-14.363-12.23-23.371 0-9.004 5.476-13.145 12.23-9.246 6.754 3.902 12.23 14.363 12.23 23.371zm0 0" data-original="#cecece"></path><path fill="#627681" d="M291.3 429.395c0 4.882-2.968 7.128-6.632 5.011-3.664-2.113-6.637-7.789-6.637-12.672 0-4.886 2.973-7.132 6.637-5.015 3.664 2.113 6.633 7.789 6.633 12.676zm0 0" data-original="#627681"></path><path fill="#a4eff4" d="m284.438 206.691 94.816-54.683a72.48 72.48 0 0 0-26.23-26.031L151.64 9.672c-2.22-1.281-4.723-1.031-6.594.2l-94.14 54.296c-2.024 1-3.52 3.055-3.52 5.637zm0 0" data-original="#a4eff4" class=""></path><path fill="#2eb3bd" d="M284.438 206.691 47.387 69.805c0-4.844 5.246-7.875 9.441-5.45L258.211 180.66a72.44 72.44 0 0 1 26.226 26.031zm0 0" data-original="#2eb3bd" class=""></path><path fill="#304e75" d="m397.754 348.207 95.031-53.883a436.812 436.812 0 0 0-10.37-39.289L477 237.848l-94.836 54.77 5.398 17.144a435.522 435.522 0 0 1 10.192 38.445zM401.684 368.648a436.665 436.665 0 0 1 5.886 62.141l.086.41 94.778-54.68a436.423 436.423 0 0 0-5.868-62.414zm0 0" data-original="#304e75"></path><path fill="#243b58" d="M312.89 244.91 25.239 78.926c-3-1.73-6.789.183-7.176 3.625l-4.984 44.32 5.844 13.824L312.89 310.262zM327.633 341.047l1.918 8.926a123.682 123.682 0 0 0 59.308 81.226v-16.793a288.78 288.78 0 0 0-2.754-39.601zM381.64 350.348a288.631 288.631 0 0 0-16.304-50.036l-7.223-16.769a54.775 54.775 0 0 0-22.922-25.766l-12.816-7.394v65.347zm0 0" data-original="#243b58"></path><path fill="#59718b" d="m447.57 319.96 41.36-23.452a288.771 288.771 0 0 0-16.614-55.957L430.2 264.875l4.5 20.926a123.536 123.536 0 0 0 12.871 34.16zM458.3 336.105a123.656 123.656 0 0 0 35.708 30.926v-16.797c0-11.226-.672-22.418-1.973-33.52zm0 0" data-original="#59718b" class=""></path><g fill="#304e75"><path d="m242.996 270.008 3.719 2.144v-65.43l-3.719-2.144zM185.91 237.078l3.715 2.145V173.78l-3.715-2.144zM129.023 204.266l3.715 2.14v-65.449l-3.715-2.144zM72.543 171.688l3.715 2.144v-65.465l-3.715-2.148zm0 0" fill="#304e75" data-original="#304e75"></path></g><path fill="#2e373d" d="M101.406 319.148c0 18.32-11.136 26.739-24.875 18.809-13.738-7.934-24.879-29.215-24.879-47.531 0-18.32 11.141-26.742 24.88-18.809 13.738 7.934 24.874 29.211 24.874 47.531zm0 0" data-original="#2e373d"></path><path fill="#cecece" d="M88.2 312.16c0 9.008-5.477 13.149-12.231 9.246-6.758-3.898-12.23-14.36-12.23-23.367 0-9.008 5.472-13.148 12.23-9.246 6.754 3.898 12.23 14.36 12.23 23.367zm0 0" data-original="#cecece"></path><path fill="#627681" d="M82.602 308.93c0 4.882-2.97 7.129-6.633 5.015-3.664-2.117-6.637-7.793-6.637-12.675 0-4.887 2.973-7.13 6.637-5.016 3.664 2.113 6.633 7.789 6.633 12.676zm0 0" data-original="#627681"></path><path fill="#304e75" d="M11.402 213.254v24.64l43.559 25.38V238.64zm0 0" data-original="#304e75"></path></g></svg>
