<svg xmlns="http://www.w3.org/2000/svg" version="1.1" xmlns:xlink="http://www.w3.org/1999/xlink" xmlns:svgjs="http://svgjs.com/svgjs" width="512" height="512" x="0" y="0" viewBox="0 0 256 256" style="enable-background:new 0 0 512 512" xml:space="preserve" class=""><g><path fill="#609ba2" d="m11 137 6-4 12 7-6 4z" data-original="#609ba2" class=""></path><path fill="#527880" d="M11 137v12l12 7v-12z" data-original="#527880"></path><path fill="#354d5e" d="m23 144 6-4v12l-6 4z" data-original="#354d5e" class=""></path><path fill="#f09548" d="M4 165v36l75 46v-37l-34-21-6-4z" data-original="#f09548"></path><path fill="#fdfecc" d="M10 178v9l9 5v-9z" data-original="#fdfecc"></path><path fill="#527880" d="m4 165 19-21 17-44 75 43-18 44-18 23-34-21-6-4z" data-original="#527880"></path><path fill="#d57241" d="m79 247 173-99v-45l-7-4V67l-130 76-18 44-18 23z" data-original="#d57241" class=""></path><path fill="#c0c297" d="m133 174 10-6v6l-10 6z" data-original="#c0c297"></path><path fill="#354d5e" d="m79 234 173-98v12L79 247z" data-original="#354d5e" class=""></path><path fill="#ffb230" d="m40 100 132-75 73 42-130 76zM23 144l33 19 6 4 35 20-18 23-34-21-6-4-35-20z" data-original="#ffb230" class=""></path><path fill="#64d2e4" d="m34 141 10-29 60 35-12 27z" data-original="#64d2e4" class=""></path><path fill="#527880" d="m4 191 21 12v-16l30 18v15l24 14v13L4 201z" data-original="#527880"></path><path fill="#fdfecc" d="M62 208v9l9 5v-9z" data-original="#fdfecc"></path><g fill="#354d5e"><path d="m108 180.001 12-32 22.666-13v25zM150 155v-25l24-14v26zM182 137v-25l24-14v25zM214 119V94l24-14v24.001z" fill="#354d5e" data-original="#354d5e" class=""></path></g><path fill="#fdfecc" d="M31 197v12l17 11v-13z" data-original="#fdfecc"></path><path fill="#609ba2" d="m100 188 6-4 12 7-6 4z" data-original="#609ba2" class=""></path><path fill="#527880" d="M100 188v12l12 7v-12z" data-original="#527880"></path><path fill="#354d5e" d="m112 195 6-4v12l-6 4z" data-original="#354d5e" class=""></path><path fill="#609ba2" d="m127.411 211.99-7.603-4.345c-2.127-.709-5.891.014-8.689 1.629C103.321 213.773 97 225.2 97 234.798c0 4.93 1.666 8.158 4.344 9.775l7.602 4.344c2.538 1.534 5.98 1.456 9.776-.732 7.799-4.5 14.12-15.927 14.12-25.524 0-5.565-2.124-9.399-5.43-10.672z" data-original="#609ba2" class=""></path><path fill="#354d5e" d="M132.842 222.66c0 9.598-6.322 21.025-14.12 25.525-3.795 2.188-7.237 2.266-9.776.732-2.674-1.617-4.343-5.037-4.343-9.965 0-9.597 6.322-21.024 14.119-25.523 3.277-1.89 6.294-2.362 8.69-1.44 3.306 1.273 5.43 5.107 5.43 10.672z" data-original="#354d5e" class=""></path><path fill="#2ca8c8" d="M126.09 226.658c0 4.34-2.917 9.507-6.516 11.541a4.424 4.424 0 0 1-4.511.331c-1.236-.73-2.004-2.277-2.004-4.506 0-4.338 2.916-9.506 6.515-11.542a4.795 4.795 0 0 1 4.011-.65c1.525.576 2.506 2.31 2.506 4.826z" data-original="#2ca8c8" class=""></path><path fill="#609ba2" d="m236.411 148.99-7.603-4.345c-2.127-.709-5.891.014-8.689 1.629C212.321 150.773 206 162.2 206 171.798c0 4.93 1.666 8.158 4.344 9.775l7.602 4.344c2.538 1.534 5.98 1.456 9.776-.732 7.798-4.5 14.12-15.927 14.12-25.524 0-5.565-2.124-9.399-5.43-10.672z" data-original="#609ba2" class=""></path><path fill="#354d5e" d="M241.842 159.66c0 9.598-6.322 21.025-14.12 25.525-3.795 2.188-7.238 2.266-9.776.732-2.674-1.617-4.343-5.037-4.343-9.965 0-9.597 6.322-21.024 14.119-25.523 3.277-1.89 6.294-2.362 8.69-1.44 3.306 1.273 5.43 5.107 5.43 10.672z" data-original="#354d5e" class=""></path><path fill="#2ca8c8" d="M235.09 163.658c0 4.34-2.917 9.507-6.516 11.541a4.424 4.424 0 0 1-4.512.331c-1.235-.73-2.003-2.277-2.003-4.506 0-4.338 2.916-9.506 6.515-11.542a4.795 4.795 0 0 1 4.011-.65c1.525.576 2.506 2.31 2.506 4.826z" data-original="#2ca8c8" class=""></path><path fill="#f09548" d="m39 185 17-22 6 4-17 22z" data-original="#f09548"></path></g></svg>
