<svg xmlns="http://www.w3.org/2000/svg" version="1.1" xmlns:xlink="http://www.w3.org/1999/xlink" xmlns:svgjs="http://svgjs.com/svgjs" width="512" height="512" x="0" y="0" viewBox="0 0 130 130" style="enable-background:new 0 0 512 512" xml:space="preserve" class=""><g><path fill="#3f434f" d="M24.24 91.64c-.015 1.984-.687 3.375-1.782 4.016l-7.721 4.47c1.094-.625 1.485-1.943 1.485-3.928.016-3.83-2.22-8.513-5.362-10.327-1.531-.875-2.907-.953-3.938-.36l7.706-4.47c1.031-.61 2.422-.531 3.938.344 3.142 1.814 5.69 6.409 5.674 10.254zM47.943 105.367c-.015 1.985-.687 3.376-1.782 4.017l-7.721 4.47c1.094-.625 1.485-1.943 1.485-3.928.016-3.83-2.22-8.513-5.361-10.327-1.532-.875-2.908-.953-3.94-.36l7.707-4.47c1.031-.61 2.422-.53 3.938.344 3.142 1.814 5.69 6.409 5.674 10.254z" data-original="#3f434f"></path><path fill="#fed57a" d="M57.524 62.248 26.866 80.047 2.788 66.15c-.483-.284-.914-.31-1.233-.13l30.658-17.798c.31-.181.75-.156 1.233.12z" data-original="#fed57a"></path><path fill="#f9bb4a" d="m59.257 65.24-.008 2.939L28.59 85.987l.01-2.949c0-1.095-.768-2.44-1.734-2.991l30.658-17.8c.957.553 1.733 1.889 1.733 2.992zM75.645 79.645l-.034 12.716c-.009.543-.198.93-.509 1.112L44.444 111.28c.31-.18.509-.569.509-1.112l.034-12.724z" data-original="#f9bb4a"></path><path fill="#fed57a" d="M75.645 79.645 44.987 97.444c0-1.095-.767-2.44-1.732-2.992L28.59 85.987 59.25 68.179l14.664 8.466c.957.56 1.732 1.896 1.732 3z" data-original="#fed57a"></path><path fill="#efac41" d="M26.87 80.049c.958.553 1.731 1.893 1.728 2.993l-.008 2.941 14.668 8.469c.958.553 1.732 1.893 1.729 2.993l-.036 12.72c-.004 1.1-.782 1.543-1.74.99L2.728 87.783C1.77 87.23.997 85.89 1 84.789l.05-17.652c.003-1.1.782-1.544 1.74-.991z" data-original="#efac41"></path><path fill="#474b59" d="m3.683 37.227 30.38-17.654-.084 29.403L3.6 66.631z" data-original="#474b59"></path><path fill="#474b59" d="m4.508 35.411 30.38-17.655c-.511.298-.823.927-.825 1.817L3.683 37.227c.002-.89.314-1.519.825-1.816z" data-original="#474b59"></path><path fill="#5b5e71" d="m3.636 33.919 30.38-17.655c.659-.383 1.548-.38 2.553.087a45.506 45.506 0 0 1 3.532 1.838L9.72 35.844a45.507 45.507 0 0 0-3.532-1.838c-1.004-.466-1.894-.47-2.553-.087zM36.65 76.634 67.03 58.98 70.11 74.6l-30.38 17.656z" data-original="#5b5e71"></path><path fill="#5b5e71" d="M60.738 40.908c-5.25-10.207-12.182-17.837-20.639-22.716L9.72 35.848c8.457 4.88 15.389 12.508 20.639 22.716a68.275 68.275 0 0 1 6.293 18.069l30.38-17.656a68.274 68.274 0 0 0-6.293-18.069zM31.892 57.78c-4.88-9.491-11.198-16.836-18.82-21.888l25.924-15.07c7.155 4.699 13.466 11.371 18.06 20.311a67.145 67.145 0 0 1 5.889 16.406l-25.5 14.82a70.81 70.81 0 0 0-5.553-14.579z" data-original="#5b5e71"></path><path fill="#416e84" d="m19.838 61.676 11.04-6.416 11.476 6.625-11.04 6.416z" data-original="#416e84"></path><path fill="#32586b" d="m31.313 68.3 11.04-6.415-.008 3.212-11.04 6.416z" data-original="#32586b"></path><path fill="#4c7891" d="m30.871 55.26-11.033 6.422c.08-.746 1.705-14.738-4.718-18.443a2.94 2.94 0 0 0-.293-.16l11.06-6.422c.08.053.187.106.294.16 6.396 3.704 4.77 17.696 4.69 18.442z" data-original="#4c7891"></path><path fill="#37617b" d="M15.13 43.237c6.413 3.703 4.793 17.702 4.708 18.439L31.313 68.3l-.009 3.212-14.991-8.656L14.84 43.08c.098.05.195.102.29.157z" data-original="#37617b"></path><path fill="#ffffff" d="M57.059 41.128c-4.595-8.933-10.906-15.609-18.063-20.303L13.071 35.89c7.62 5.051 13.944 12.4 18.824 21.888A70.472 70.472 0 0 1 37.44 72.36l25.5-14.82a66.89 66.89 0 0 0-5.882-16.413z" opacity=".4" data-original="#ffffff"></path><path fill="#525566" d="m65.091 58.115-2.146-.577a67.145 67.145 0 0 0-5.888-16.406c-4.595-8.94-10.906-15.612-18.061-20.31l1.095-.63c7.776 4.724 14.207 11.957 19.12 21.51a67.182 67.182 0 0 1 5.88 16.413z" data-original="#525566" class=""></path><path fill="#5b5e71" d="m65.091 58.115-27.25 15.837c-.13-.535-.268-1.06-.397-1.595l25.5-14.82z" data-original="#5b5e71"></path><path fill="#525566" d="M9.72 35.844c8.46 4.883 15.389 12.511 20.641 22.722a68.546 68.546 0 0 1 6.289 18.068l3.082 15.622-1.185-.33-3.081-15.62a65.786 65.786 0 0 0-6.043-17.37c-5.059-9.842-11.498-16.955-19.605-21.635a45.492 45.492 0 0 0-3.511-1.828c-1.493-.69-2.62.06-2.624 1.754l-.084 29.404-1.227-.709.083-29.403c.007-2.423 1.615-3.496 3.734-2.513a45.507 45.507 0 0 1 3.532 1.838z" data-original="#525566" class=""></path><path fill="#37617b" d="m47.553 55.64 2.43-1.411-.164 57.719-2.43 1.412z" data-original="#37617b"></path><path fill="#416e84" d="m76.859 127.557-2.431 1.413c.008-1.19-.837-2.646-1.871-3.25l-22.578-13.026-2.586-1.5 2.43-1.414 2.587 1.5 22.578 13.027c1.035.603 1.88 2.06 1.87 3.25z" data-original="#416e84"></path><path fill="#416e84" d="m47.553 55.64-.164 57.72-2.945-1.7.164-57.72z" data-original="#416e84"></path><path fill="#4c7891" d="m44.608 53.94 2.43-1.412 2.945 1.7-2.43 1.413zM72.555 125.723c1.04.6 1.88 2.054 1.876 3.25L47.389 113.36l.006-2.163 2.587 1.5z" data-original="#4c7891"></path><path fill="#37617b" d="m67.948 43.146 2.43-1.413-.164 57.72-2.43 1.412z" data-original="#37617b"></path><path fill="#416e84" d="m97.254 115.062-2.431 1.413c.008-1.19-.837-2.646-1.871-3.25L70.374 100.2l-2.586-1.5 2.43-1.414 2.587 1.5 22.578 13.026c1.035.604 1.88 2.06 1.87 3.25z" data-original="#416e84"></path><path fill="#416e84" d="m67.948 43.146-.164 57.719-2.945-1.7.164-57.72z" data-original="#416e84"></path><path fill="#4c7891" d="m65.003 41.446 2.43-1.413 2.945 1.7-2.43 1.413zM92.95 113.228c1.04.6 1.88 2.054 1.876 3.25l-27.042-15.613.006-2.163 2.587 1.5z" data-original="#4c7891"></path><path fill="#363a44" d="m26.905 101.78.547.316 11.058 6.364 3.11 1.796.576.317c.029-.23.029-.46.029-.72a12.34 12.34 0 0 0-.633-3.887c-1.037-3.37-3.341-6.537-6.048-8.12-1.152-.663-2.304-1.009-3.427-1.009-.69 0-1.353.144-2.015.403-1.555.663-2.822 2.12-3.197 4.54z" data-original="#363a44"></path><path fill="#5b5e71" d="M34.547 99.597c3.144 1.815 5.68 6.403 5.67 10.245s-2.565 5.48-5.71 3.665-5.699-6.403-5.688-10.245 2.585-5.48 5.728-3.665z" data-original="#5b5e71"></path><path fill="#cad0dd" d="M34.533 101.09c2.623 1.514 4.746 5.191 4.737 8.205-.008 3.024-2.145 4.232-4.768 2.718-2.623-1.515-4.746-5.182-4.737-8.206.008-3.014 2.145-4.232 4.768-2.717z" data-original="#cad0dd"></path><path fill="#525566" d="M33.08 107.028a.314.314 0 0 0-.095-.037l-1.925-.415a9.352 9.352 0 0 0 1.693 2.928l.607-1.864c.066-.192-.088-.5-.28-.612zM30.842 103.052c-.127.359-.194.785-.195 1.267-.002.481.063.98.188 1.488l1.79-.041c.217-.003.218-.356.002-.61zM32.776 101.576c-.733.004-1.331.345-1.705.969l1.922 1.803a.5.5 0 0 0 .094.072c.193.112.348-.019.283-.287zM34.529 102.106a3.988 3.988 0 0 0-1.2-.474l.929 2.595c.055.157.16.28.264.34.105.06.21.059.266-.034l.94-1.517a6.345 6.345 0 0 0-1.199-.91zM35.943 108.681c-.191-.11-.343.021-.283.287l.6 2.56a1.939 1.939 0 0 0 1.701-.967l-1.924-1.808a.5.5 0 0 0-.094-.072zM34.51 108.54c-.104-.06-.209-.06-.265.03l-.94 1.517c.376.359.78.668 1.199.91.419.241.82.398 1.2.474l-.929-2.596a.644.644 0 0 0-.264-.335zM36.282 103.6l-.612 1.861c-.062.195.089.502.28.613.031.017.063.03.095.036l1.928.42a9.223 9.223 0 0 0-1.691-2.93zM38.2 107.3l-1.795.038c-.212.006-.213.36-.001.61l1.789 2.107c.125-.363.194-.785.196-1.267a6.269 6.269 0 0 0-.188-1.488z" data-original="#525566" class=""></path><path fill="#363a44" d="m3.202 88.051.547.317 11.057 6.403 3.11 1.796.576.317c.029-.23.03-.5.03-.759a12.34 12.34 0 0 0-.633-3.887c-1.037-3.37-3.341-6.537-6.048-8.121-1.152-.662-2.304-1.008-3.427-1.008-.69 0-1.353.144-2.015.403-1.555.662-2.823 2.12-3.197 4.54z" data-original="#363a44"></path><path fill="#5b5e71" d="M10.844 85.869c3.144 1.815 5.68 6.403 5.669 10.245s-2.564 5.48-5.708 3.665-5.7-6.403-5.689-10.245 2.585-5.48 5.728-3.665z" data-original="#5b5e71"></path><path fill="#cad0dd" d="M10.83 87.362c2.623 1.514 4.746 5.191 4.737 8.205-.008 3.024-2.145 4.232-4.768 2.717-2.623-1.514-4.746-5.181-4.737-8.205.008-3.014 2.145-4.232 4.768-2.717z" data-original="#cad0dd"></path><path fill="#525566" d="M9.377 93.3a.314.314 0 0 0-.095-.037l-1.925-.415a9.352 9.352 0 0 0 1.693 2.927l.607-1.863c.066-.192-.088-.501-.28-.612zM7.14 89.324c-.128.359-.195.785-.196 1.267-.002.481.063.98.188 1.488l1.79-.041c.217-.003.218-.356.002-.61zM9.073 87.848c-.733.004-1.331.345-1.705.969L9.29 90.62a.5.5 0 0 0 .094.072c.193.111.348-.019.283-.287zM10.826 88.378a3.988 3.988 0 0 0-1.2-.475l.928 2.596c.056.157.16.28.265.34.105.06.21.059.266-.034l.94-1.517a6.345 6.345 0 0 0-1.199-.91zM12.24 94.953c-.191-.11-.343.021-.283.287l.6 2.56a1.939 1.939 0 0 0 1.701-.967l-1.924-1.808a.5.5 0 0 0-.094-.072zM10.808 94.812c-.105-.06-.21-.06-.266.03l-.94 1.517c.376.359.78.667 1.199.91.419.241.82.398 1.2.474l-.929-2.596a.644.644 0 0 0-.264-.335zM12.579 89.873l-.612 1.86c-.062.195.089.502.28.613.031.017.063.03.095.036l1.928.42a9.223 9.223 0 0 0-1.691-2.93zM14.498 93.572l-1.796.038c-.212.006-.213.36-.001.61l1.789 2.107c.125-.363.194-.785.196-1.267a6.27 6.27 0 0 0-.188-1.488z" data-original="#525566" class=""></path><path fill="#db9837" d="m21.352 86.192-.01 3.304 7.028 4.057.01-3.304z" data-original="#db9837"></path><path fill="#f34858" d="M3.337 74.558c.174.1.315.343.314.533l-.01 7.573c0 .19-.142.27-.316.17l-2.3-1.328.012-8.276z" data-original="#f34858"></path><path fill="#525566" d="m95.343 70.843-1.117-.65-.014-4.896 1.117.65z" data-original="#525566" class=""></path><path fill="#5b5e71" d="m80.578 73.17-1.118-.65 14.748-8.514 1.117.65z" data-original="#5b5e71"></path><path fill="#525566" d="m95.325 64.655-1.117-.649-.048-16.946 1.117.65z" data-original="#525566" class=""></path><path fill="#3f434f" d="m79.786 72.707-1.118-.65 14.69-25.443 1.117.65z" data-original="#3f434f"></path><path fill="#5b5e71" d="m80.523 54.026-1.117-.65 14.748-8.514 1.117.649z" data-original="#5b5e71"></path><path fill="#525566" d="m95.271 45.511-1.117-.65-.048-16.946 1.117.65z" data-original="#525566" class=""></path><path fill="#3f434f" d="m79.731 53.563-1.117-.65 14.69-25.443 1.117.65z" data-original="#3f434f"></path><path fill="#5b5e71" d="m80.47 34.881-1.118-.65L94.1 25.718l1.117.65z" data-original="#5b5e71"></path><path fill="#525566" d="m95.217 26.367-1.117-.65-.049-16.946 1.118.65z" data-original="#525566" class=""></path><path fill="#3f434f" d="m79.677 34.418-1.117-.65L93.25 8.326l1.117.65z" data-original="#3f434f"></path><path fill="#5b5e71" d="m95.149 2.325-1.118-.649 1.124-.649 1.117.65z" data-original="#5b5e71"></path><path fill="#525566" d="m95.163 7.21-1.118-.649-.014-4.885 1.118.65z" data-original="#525566" class=""></path><path fill="#5b5e71" d="m79.625 16.18-1.117-.648 15.537-8.97 1.118.648z" data-original="#5b5e71"></path><path fill="#525566" d="m78.668 75.566-.002-.652-.052-18.493-.004-1.291-.05-17.853-.004-1.291-.052-18.505-.002-.651-.014-4.885-1.117-.65.013 4.885.002.651.053 18.505.003 1.291.051 17.854.004 1.29.052 18.494.002.651.014 4.897 1.117.65z" data-original="#525566" class=""></path><path fill="#5b5e71" d="m78.488 11.945-1.117-.65 1.123-.648 1.118.649z" data-original="#5b5e71"></path><path fill="#474b59" d="m80.159 33.557.196.098.832-.49-.587-.343zm.612-1.054.44-.245-.22-.147zm-.196 20.184.539.318.539-.93zm-.22-19.032.612.367.44-.735.197-.343.196-.367.588-1.004-.515.269-.661.416-.441.245-.024.025-.147.294.587.343zm-1.862-21.702v5.535l.049 13.521v1.617l.024 1.151v3.503l.05 14.598v4.532l.048 15.651v3.503l.025 4.899 1.127-.661-.025-4.875.784-.44.833-.49 12.81-7.422 1.103-.637.024 4.899 1.127-.637-.025-4.899v-3.43l-.049-15.724v-5.144l-.049-13.986V23.44l-.024-.956v-.44L96.275 7.2V1.665l-1.126.662.025 4.874-1.936 1.127-10.336 5.976-3.282 1.886v-4.899l-.956.564zm16.73 14.402-12.1 7.006-.809.465-.833.49-1.004.563.49-.857.44-.735.197-.343.196-.367.588-1.004v-.025l.808-1.42.024-.025 6.785-11.708 4.042-7.03v-.025l1.127-1.91.024 11.953.024 1.764v3.208zm-15.53 10.263 2.89-1.665.858-.49.808-.466 7.96-4.604 1.887-1.103.318-.171-.318.539-4.752 8.279-.417.71-.416.71-8.254 14.33-.123.196-.049.097-.294.515-.049.073v-2.62zm15.579 8.892-1.911 1.102-11.66 6.736-.832.49-.343.196.171-.294.319-.564.098-.171.539-.93.171-.295.025-.049 7.446-12.908.416-.735.417-.686 3.968-6.907v-.025l1.126-1.91.025 11.782.025.955v4.213zm.049 19.154-1.103.637-13.643 7.863 1.127-1.935 6.907-11.978.417-.71.416-.71 4.727-8.23v-.025l1.103-1.862.049 13.496zM81.163 54.94l.833-.465.832-.466 9.406-5.462h.025l1.91-1.102.294-.172-.294.515-5.535 9.577-.392.71-.417.71-7.715 13.35v.024l-.319.54v-2.597l-.049-14.33zm-1.494-23.294-.05-14.158 4.41-2.547 8.083-4.678h.024l1.91-1.127.32-.171-.32.538-4.849 8.426-7.593 13.13-.613 1.052-.22.392-.024.025-.147.294-.441.735-.172.318-.318.539zm.686 2.009.612.367.44-.735.197-.343.196-.367.588-1.004v-.025l-.515.294-.661.416-.441.245-.024.025-.147.294.587.343zm.22 19.032.539.318.539-.93zm.196-20.184.44-.245-.22-.147zm-.612 1.054.196.098.832-.49-.587-.343z" data-original="#474b59"></path><path fill="#d4dae8" d="M113.838 51.07v.955l.245-.147 9.773-5.682 2.768-1.593 1.102-.636 1.127-.662v-.955l-1.127.661-1.102.637-11.708 6.785z" data-original="#d4dae8"></path><path fill="#cad0dd" d="m113.838 51.074-.004.953L80.375 32.71l.005-.954z" data-original="#cad0dd"></path><path fill="#e4e8f4" d="m80.379 31.769.612.342.22.147.589.319.196.122 1.126.662 1.127.636 3.968 2.303 1.127.637.784.465 3.992 2.303 1.127.637 1.151.66 13.545 7.839 1.103.612 1.15.662.246.147 1.151.66.245.148 1.078-.637 11.708-6.785 1.102-.637 1.127-.661v-1.862l-2.254-1.273-3.894-2.254-.784-.465-1.151-.661-3.846-2.205-1.126-.661-1.127-.637-2.547-1.47-.564-.343-1.127-.637-13.447-7.764-.27.147-.391.22-1.103.662-1.126.636v.025L83.22 30.103l-1.616.955z" data-original="#e4e8f4"></path><path fill="#d4dae8" d="M113.838 71.914v.931l11.757-6.81.588-.342 2.743-1.592v-.955l-1.126.66-.54.295z" data-original="#d4dae8"></path><path fill="#cad0dd" d="m113.838 71.903-.004.953-33.459-19.317.005-.954z" data-original="#cad0dd"></path><path fill="#e4e8f4" d="M80.379 52.589v.024h.025l.171.074.539.318.098.073.49.27 1.126.661 4.703 2.72 1.103.636.808.465 4.776 2.744 1.103.636 1.126.662 13.57 7.838 1.102.637.662.367.465.27.637.367.318.196h.025l.465.27.147.097 13.423-7.813.539-.294 1.126-.661v-1.764l-1.126-.637v-.024l-1.127-.637-4.654-2.695-.808-.465-1.102-.637-4.605-2.67h-.025l-1.102-.637-.686-.391-.44-.245-.368-.22-.686-.393-.441-.27-.686-.391-1.102-.637-12.982-7.495-.27.171h-.024l-.294.172-1.126.661-1.127.637v.024l-12.296 7.128z" data-original="#e4e8f4"></path><path fill="#d4dae8" d="M113.838 92.734v.956l12.884-7.495 1.127-.637 1.126-.662v-.955l-1.347.784-.906.514z" data-original="#d4dae8"></path><path fill="#cad0dd" d="m113.838 92.732-.004.953-33.459-19.318.005-.953z" data-original="#cad0dd"></path><path fill="#e4e8f4" d="M80.379 73.409v.024h.025l.832.465.172.098 28.658 16.559 1.127.636v.025l2.645 1.518 12.884-7.495.906-.514 1.347-.784v-1.715l-1.126-.636-1.127-.662-5.389-3.11-.808-.466-1.102-.637-5.34-3.086-2.94-1.69-1.126-.661-13.03-7.52-.27.171h-.025l-.245.147-2.18 1.25-.049.048z" data-original="#e4e8f4"></path><path fill="#efac41" d="m86.11 66.647.024 7.472L92.9 78.05l-.023-7.472z" data-original="#efac41"></path><path fill="#f9bb4a" d="m92.872 70.58.027 7.47 6.809-3.934-.023-7.463v-.01h-.01l-2.955 1.71-.67.393-.202.111z" data-original="#f9bb4a"></path><path fill="#fed57a" d="m86.11 66.652 6.766 3.931 2.974-1.722.861-.487.017-.009 2.958-1.713-6.767-3.931z" data-original="#fed57a"></path><path fill="#efac41" d="m96.732 64.93-6.767 3.93-.86-.486-.018-.009 6.784-3.931.008.009z" data-original="#efac41"></path><path fill="#d8983a" d="m89.968 68.857-.012 1.68-.872-.503.01-1.669.672.38z" data-original="#d8983a"></path><path fill="#3f434f" d="m93.745 74.091.29.552-.18.103-.396.227z" data-original="#3f434f"></path><path fill="#3f434f" d="m93.855 74.746.003 1.09-.216.125-.003-1.09zM94.93 75.315v.233l-1.493.863-.001-.234zM98.833 71.586l.002.776c.001.246-.14.53-.329.675l.002.7c.132-.06.232-.055.232.018l-.583.336c0-.073.1-.193.231-.285l-.002-.7c-.086.035-.16.026-.218-.01-.069-.051-.114-.146-.114-.283l-.002-.776zM94.72 74.246l.004 1.09-.217.125-.003-1.09z" data-original="#3f434f"></path><path fill="#3f434f" d="m94.612 73.59.288.553-.18.103-.394.226z" data-original="#3f434f"></path><path fill="#ffffff" d="M86.738 72.058v1.465l1.75 1.006.01-1.454z" data-original="#ffffff"></path><path fill="#efac41" d="m96.283 72.616.024 7.471 6.764 3.932-.023-7.472z" data-original="#efac41"></path><path fill="#f9bb4a" d="m103.044 76.55.027 7.469 6.809-3.934-.022-7.463v-.011h-.012l-2.953 1.712-.672.391-.201.112z" data-original="#f9bb4a"></path><path fill="#fed57a" d="m96.281 72.62 6.767 3.932 2.974-1.722.861-.488.018-.008 2.957-1.714-6.767-3.93z" data-original="#fed57a"></path><path fill="#efac41" d="m106.904 70.898-6.767 3.932-.86-.488-.018-.008 6.784-3.931.009.008z" data-original="#efac41"></path><path fill="#d8983a" d="m100.14 74.826-.012 1.68-.872-.503.01-1.67.672.381z" data-original="#d8983a"></path><path fill="#3f434f" d="m103.917 80.06.29.551-.18.104-.396.227zM104.027 80.715l.003 1.09-.216.125-.003-1.09zM105.102 81.283v.234l-1.493.862-.001-.233zM109.005 77.554l.002.777c.001.245-.14.53-.329.675l.002.7c.132-.061.232-.055.232.018l-.583.336c0-.073.1-.193.231-.285l-.002-.7c-.086.034-.16.026-.218-.01-.069-.051-.113-.147-.114-.283l-.002-.777zM104.893 80.215l.003 1.09-.216.125-.004-1.09zM104.784 79.56l.288.551-.18.104-.393.226z" data-original="#3f434f"></path><path fill="#ffffff" d="M96.91 78.027v1.465l1.75 1.006.01-1.454z" data-original="#ffffff"></path><path fill="#efac41" d="m106.382 79.373.024 7.471 6.765 3.931-.024-7.471z" data-original="#efac41"></path><path fill="#f9bb4a" d="m113.143 83.306.028 7.47 6.809-3.935-.023-7.462v-.011h-.011l-2.954 1.711-.671.392-.202.112z" data-original="#f9bb4a"></path><path fill="#fed57a" d="m106.38 79.377 6.767 3.931 2.975-1.722.86-.487.018-.008 2.957-1.714-6.766-3.931z" data-original="#fed57a"></path><path fill="#efac41" d="m117.003 77.655-6.766 3.931-.861-.487-.017-.008 6.783-3.932.01.01z" data-original="#efac41"></path><path fill="#d8983a" d="m110.24 81.583-.012 1.68-.873-.504.012-1.668.67.38z" data-original="#d8983a"></path><path fill="#3f434f" d="m114.016 86.817.29.551-.18.104-.395.226zM114.127 87.472l.003 1.09-.217.125-.003-1.09zM115.202 88.04v.233l-1.494.863v-.233zM119.105 84.311l.002.777c0 .245-.141.53-.33.674l.003.7c.132-.06.231-.055.231.019l-.582.336c0-.073.099-.194.23-.285l-.001-.7c-.086.034-.16.026-.219-.01-.068-.052-.113-.147-.113-.283l-.002-.777zM114.992 86.972l.004 1.09-.217.125-.003-1.09z" data-original="#3f434f"></path><path fill="#3f434f" d="m114.884 86.316.288.552-.18.104-.394.226z" data-original="#3f434f"></path><path fill="#ffffff" d="M107.01 84.783v1.466l1.75 1.006.01-1.455z" data-original="#ffffff"></path><path fill="#efac41" d="m86.11 45.922.024 7.472 6.765 3.93-.023-7.47z" data-original="#efac41"></path><path fill="#f9bb4a" d="m92.872 49.855.027 7.47 6.809-3.934-.023-7.463v-.011h-.01l-2.955 1.712-.67.391-.202.112z" data-original="#f9bb4a"></path><path fill="#fed57a" d="m86.11 45.927 6.766 3.93 2.974-1.721.861-.487.017-.009 2.958-1.713-6.767-3.932z" data-original="#fed57a"></path><path fill="#efac41" d="m96.732 44.205-6.767 3.93-.86-.486-.018-.009 6.784-3.931.008.009z" data-original="#efac41"></path><path fill="#d8983a" d="m89.968 48.132-.012 1.68-.872-.503.01-1.669.672.38z" data-original="#d8983a"></path><path fill="#3f434f" d="m93.745 53.366.29.551-.18.104-.396.227zM93.855 54.021l.003 1.09-.216.125-.003-1.09zM94.93 54.59v.233l-1.493.863-.001-.234zM98.833 50.86l.002.777c.001.246-.14.53-.329.675l.002.7c.132-.06.232-.055.232.018l-.583.336c0-.073.1-.193.231-.285l-.002-.7c-.086.034-.16.026-.218-.01-.069-.051-.114-.146-.114-.283l-.002-.776zM94.72 53.521l.004 1.09-.217.125-.003-1.09z" data-original="#3f434f"></path><path fill="#3f434f" d="m94.612 52.866.288.552-.18.103-.394.226z" data-original="#3f434f"></path><path fill="#ffffff" d="M86.738 51.333v1.465l1.75 1.006.01-1.454z" data-original="#ffffff"></path><path fill="#efac41" d="m96.283 51.89.024 7.472 6.764 3.932-.023-7.472z" data-original="#efac41"></path><path fill="#f9bb4a" d="m103.044 55.824.027 7.47 6.809-3.934-.022-7.463v-.011h-.012l-2.953 1.711-.672.392-.201.112z" data-original="#f9bb4a"></path><path fill="#fed57a" d="m96.281 51.895 6.767 3.932 2.974-1.723.861-.487.018-.008 2.957-1.714-6.767-3.93z" data-original="#fed57a"></path><path fill="#efac41" d="m106.904 50.173-6.767 3.931-.86-.487-.018-.008 6.784-3.931.009.008z" data-original="#efac41"></path><path fill="#d8983a" d="m100.14 54.101-.012 1.68-.872-.504.01-1.668.672.38z" data-original="#d8983a"></path><path fill="#3f434f" d="m103.917 59.335.29.551-.18.104-.396.226zM104.027 59.99l.003 1.09-.216.125-.003-1.09zM105.102 60.558v.234l-1.493.862-.001-.233zM109.005 56.83l.002.776c.001.245-.14.53-.329.675l.002.7c.132-.061.232-.056.232.018l-.583.336c0-.073.1-.194.231-.285l-.002-.7c-.086.034-.16.026-.218-.01-.069-.052-.113-.147-.114-.283l-.002-.777zM104.893 59.49l.003 1.09-.216.125-.004-1.09zM104.784 58.834l.288.552-.18.104-.393.226z" data-original="#3f434f"></path><path fill="#ffffff" d="M96.91 57.302v1.465l1.75 1.006.01-1.454z" data-original="#ffffff"></path><path fill="#efac41" d="m106.457 57.825.023 7.471 6.765 3.932-.024-7.472z" data-original="#efac41"></path><path fill="#f9bb4a" d="m113.218 61.758.027 7.47 6.809-3.934-.023-7.463v-.011h-.01l-2.955 1.711-.671.392-.201.112z" data-original="#f9bb4a"></path><path fill="#fed57a" d="m106.455 57.83 6.766 3.93 2.975-1.722.861-.487.017-.008 2.957-1.714-6.766-3.93z" data-original="#fed57a"></path><path fill="#efac41" d="m117.078 56.107-6.767 3.931-.861-.487-.017-.008 6.784-3.932.008.01z" data-original="#efac41"></path><path fill="#d8983a" d="m110.313 60.035-.01 1.68-.874-.504.012-1.668.671.38z" data-original="#d8983a"></path><path fill="#3f434f" d="m114.09 65.269.29.551-.18.104-.395.226zM114.2 65.924l.004 1.09-.216.125-.004-1.09zM115.276 66.492v.233l-1.494.863v-.233zM119.179 62.763l.002.777c0 .245-.14.53-.33.674l.003.7c.132-.06.231-.055.232.019l-.583.336c0-.073.099-.194.23-.285l-.001-.7c-.086.034-.16.026-.218-.01-.069-.052-.114-.147-.114-.283l-.002-.777zM115.067 65.424l.003 1.09-.217.125-.003-1.09zM114.958 64.768l.288.552-.18.104-.394.226z" data-original="#3f434f"></path><path fill="#ffffff" d="M107.084 63.236V64.7l1.75 1.006.01-1.455z" data-original="#ffffff"></path><path fill="#efac41" d="m86.11 25.197.024 7.471L92.9 36.6l-.023-7.472z" data-original="#efac41"></path><path fill="#f9bb4a" d="m92.872 29.13.027 7.47 6.809-3.934-.023-7.463v-.011h-.01l-2.955 1.712-.67.391-.202.112z" data-original="#f9bb4a"></path><path fill="#fed57a" d="m86.11 25.202 6.766 3.93 2.974-1.721.861-.487.017-.009 2.958-1.713-6.767-3.932z" data-original="#fed57a"></path><path fill="#efac41" d="m96.732 23.48-6.767 3.93-.86-.486-.018-.009 6.784-3.931.008.008z" data-original="#efac41"></path><path fill="#d8983a" d="m89.968 27.407-.012 1.68-.872-.503.01-1.67.672.381z" data-original="#d8983a"></path><path fill="#3f434f" d="m93.745 32.641.29.551-.18.104-.396.227zM93.855 33.296l.003 1.09-.216.125-.003-1.09zM94.93 33.864v.234l-1.493.862-.001-.233zM98.833 30.135l.002.777c.001.245-.14.53-.329.675l.002.7c.132-.061.232-.055.232.018l-.583.336c0-.073.1-.193.231-.285l-.002-.7c-.086.034-.16.026-.218-.01-.069-.051-.114-.147-.114-.283l-.002-.777zM94.72 32.796l.004 1.09-.217.125-.003-1.09z" data-original="#3f434f"></path><path fill="#3f434f" d="m94.612 32.14.288.553-.18.103-.394.226z" data-original="#3f434f"></path><path fill="#ffffff" d="M86.738 30.608v1.465l1.75 1.006.01-1.454z" data-original="#ffffff"></path><path fill="#efac41" d="m96.283 31.166.024 7.471 6.764 3.931-.023-7.471z" data-original="#efac41"></path><path fill="#f9bb4a" d="m103.044 35.099.027 7.47 6.809-3.935-.022-7.462v-.011h-.012l-2.953 1.711-.672.392-.201.112z" data-original="#f9bb4a"></path><path fill="#fed57a" d="m96.281 31.17 6.767 3.931 2.974-1.722.861-.487.018-.008 2.957-1.714-6.767-3.931z" data-original="#fed57a"></path><path fill="#efac41" d="m106.904 29.448-6.767 3.931-.86-.487-.018-.008 6.784-3.932.009.01z" data-original="#efac41"></path><path fill="#d8983a" d="m100.14 33.376-.012 1.68-.872-.504.01-1.668.672.38z" data-original="#d8983a"></path><path fill="#3f434f" d="m103.917 38.61.29.551-.18.104-.396.226zM104.027 39.265l.003 1.09-.216.125-.003-1.09zM105.102 39.833v.233l-1.493.863-.001-.233zM109.005 36.104l.002.777c.001.245-.14.53-.329.674l.002.7c.132-.06.232-.055.232.019l-.583.336c0-.073.1-.194.231-.285l-.002-.7c-.086.034-.16.026-.218-.01-.069-.052-.113-.147-.114-.283l-.002-.777zM104.893 38.765l.003 1.09-.216.125-.004-1.09zM104.784 38.11l.288.551-.18.104-.393.226z" data-original="#3f434f"></path><path fill="#ffffff" d="M96.91 36.576v1.466l1.75 1.006.01-1.455z" data-original="#ffffff"></path><path fill="#efac41" d="m106.457 37.1.023 7.471 6.765 3.931-.024-7.471z" data-original="#efac41"></path><path fill="#f9bb4a" d="m113.218 41.033.027 7.47 6.809-3.935-.023-7.462v-.011h-.01l-2.955 1.711-.671.392-.201.112z" data-original="#f9bb4a"></path><path fill="#fed57a" d="m106.455 37.104 6.766 3.931 2.975-1.722.861-.487.017-.008 2.957-1.714-6.766-3.931z" data-original="#fed57a"></path><path fill="#efac41" d="m117.078 35.382-6.767 3.931-.861-.487-.017-.008 6.784-3.932.008.01z" data-original="#efac41"></path><path fill="#d8983a" d="m110.313 39.31-.01 1.68-.874-.504.012-1.668.671.38z" data-original="#d8983a"></path><path fill="#3f434f" d="m114.09 44.544.29.551-.18.104-.395.226zM114.2 45.199l.004 1.09-.216.125-.004-1.09zM115.276 45.767V46l-1.494.863v-.233zM119.179 42.038l.002.777c0 .245-.14.53-.33.674l.003.7c.132-.06.231-.055.232.019l-.583.336c0-.073.099-.194.23-.285l-.001-.7c-.086.034-.16.026-.218-.01-.069-.052-.114-.147-.114-.283l-.002-.777zM115.067 44.699l.003 1.09-.217.125-.003-1.09zM114.958 44.043l.288.552-.18.104-.394.226z" data-original="#3f434f"></path><path fill="#ffffff" d="M107.084 42.51v1.466l1.75 1.006.01-1.455z" data-original="#ffffff"></path><path fill="#525566" d="m127.864 89.741-1.117-.649-.014-4.897 1.117.65z" data-original="#525566" class=""></path><path fill="#5b5e71" d="m113.1 92.068-1.118-.649 14.747-8.515 1.118.65z" data-original="#5b5e71"></path><path fill="#525566" d="m127.847 83.554-1.118-.65-.048-16.946 1.118.65z" data-original="#525566" class=""></path><path fill="#3f434f" d="m112.307 91.605-1.117-.649 14.69-25.443 1.117.649z" data-original="#3f434f"></path><path fill="#5b5e71" d="m113.045 72.924-1.118-.65 14.748-8.514 1.118.65z" data-original="#5b5e71"></path><path fill="#525566" d="m127.793 64.41-1.118-.65-.048-16.946 1.117.65z" data-original="#525566" class=""></path><path fill="#3f434f" d="m112.253 72.46-1.118-.648 14.69-25.444 1.117.65z" data-original="#3f434f"></path><path fill="#5b5e71" d="m112.99 53.78-1.117-.65 14.748-8.515 1.117.65z" data-original="#5b5e71"></path><path fill="#525566" d="m127.738 45.265-1.117-.65-.048-16.946 1.117.65z" data-original="#525566" class=""></path><path fill="#3f434f" d="m112.198 53.316-1.117-.649 14.69-25.443 1.117.649z" data-original="#3f434f"></path><path fill="#5b5e71" d="m127.67 21.224-1.117-.65 1.123-.648 1.118.65z" data-original="#5b5e71"></path><path fill="#525566" d="m127.684 26.109-1.117-.65-.014-4.885 1.117.65z" data-original="#525566" class=""></path><path fill="#5b5e71" d="m112.147 35.08-1.118-.65 15.538-8.97 1.117.649z" data-original="#5b5e71"></path><path fill="#525566" d="m111.19 94.464-.002-.652-.053-18.493-.003-1.29-.05-17.854-.004-1.291-.053-18.505-.002-.651-.014-4.885-1.117-.65.014 4.886.002.65.052 18.506.004 1.29.05 17.854.004 1.291.053 18.493.001.651.014 4.897 1.118.65z" data-original="#525566" class=""></path><path fill="#5b5e71" d="m111.01 30.843-1.118-.65 1.124-.648 1.117.65z" data-original="#5b5e71"></path><path fill="#474b59" d="m112.883 52.123.367.22.441.246.392-.71h-.025l-.048.024-.074.024-.098.074h-.024l-.637-.368zm1.2-.27v.025l.025-.024zm-1.2.27.367.22.441.246.392-.71h-.025l-.048.024-.074.024-.098.074h-.024l-.637-.368zm0 0 .367.22.441.246.392-.71h-.025l-.048.024-.074.024-.098.074h-.024l-.637-.368zm1.2-.27v.025l.025-.024zm-3.062-21.015v5.535l.025 13.08.024.956v5.756l.05 14.182.024.93v4.042l.049 15.627v8.426l1.127-.661v-4.899l.857-.49h.024l.637-.392 12.884-7.446 1.127-.637v.71l.024 4.19 1.127-.662-.025-4.189v-2.67l-.049-17.17v-3.674l-.049-15.48-.024-1.274v-4.14l-.049-14.378v-5.535l-1.127.637v4.898l-1.91 1.103-9.97 5.756-3.649 2.106v-1.298l-.024-2.915v-.661l-.564.318zm16.705 14.427-1.91 1.102-11.44 6.613-1.395.809.71-1.2.392-.71.025-.025v-.025l.808-1.396 7.789-13.472 3.87-6.711v-.05l1.127-1.885.024 11.537v5.413zm-15.53 10.263 3.283-1.91h.025l9.185-5.292 1.935-1.126.318-.172-.318.54-5.413 9.356-8.328 14.427-.319.563-.098.147-.22.392v-2.547zm15.604 8.891-1.91 1.102-12.052 6.957-.318.171-.466.27.22-.392.417-.71.49-.833 7.838-13.595 4.605-7.985v-.073l1.127-1.862.049 13.252zm.049 17.17v1.96l-1.103.637-.024.024-13.619 7.863 1.127-1.96 7.103-12.295 5.34-9.284v-.049L127.8 66.6zm-13.766-7.96 10.704-6.197 1.886-1.078.318-.196-.318.54-6.148 10.654-7.912 13.692-.318.564v-2.572l-.025-14.354zm-1.886-23.514-.049-13.742 4.776-2.743 7.716-4.458 1.935-1.127.318-.171-.318.539-4.654 8.083-8.328 14.427-.416.71-.294.49-.368.637-.318.563v-3.208zm.686 2.008.367.22.441.246.392-.71h-.025l-.048.024-.074.024-.098.074h-.024l-.637-.368zm1.2-.27v.025l.025-.024zm-1.2.27.367.22.441.246.392-.71h-.025l-.048.024-.074.024-.098.074h-.024l-.637-.368z" data-original="#474b59"></path><path fill="#6eba6e" d="m94.827 92.815-.05 15.863-34.25 19.901.05-15.862z" data-original="#6eba6e"></path><path fill="#e4e8f4" d="M73.27 107.4v2.508l-.014.256v2.45l-11.07 6.441v-.926l.014-.656v-2.108l.014-.67v-.855z" data-original="#e4e8f4"></path><path fill="#75ca75" d="m60.577 112.717-.05 15.862-14.457-8.346.05-15.863z" data-original="#75ca75"></path><path fill="#9ad898" d="m94.83 92.825-34.253 19.901-6.315-3.656-1.828-1.034-.037-.018-6.278-3.638 29.39-17.075 6.316 3.637.018.019 1.81 1.034z" data-original="#9ad898"></path><path fill="#6eba6e" d="M83.653 91.995 54.262 109.07l-1.828-1.034-.037-.018 29.428-17.076.018.019z" data-original="#6eba6e"></path><path fill="#6eba6e" d="m54.262 109.07-.017 6.001-1.848-1.055.017-6.001z" data-original="#6eba6e"></path><path fill="#3f434f" d="m63.775 121.583.497.947-.308.178-.68.39z" data-original="#3f434f"></path><path fill="#3f434f" d="m63.964 122.708.005 1.873-.371.214-.006-1.872zM65.811 123.684l.001.401-2.567 1.482v-.4zM68.54 118.832l.003 1.335c.002.421-.242.91-.565 1.159l.003 1.202c.227-.104.398-.094.398.031l-1 .578c0-.126.17-.332.396-.49l-.003-1.202c-.148.059-.276.044-.375-.018-.118-.088-.195-.251-.196-.485l-.003-1.335zM65.451 121.85l.006 1.872-.372.215-.005-1.873zM65.265 120.723l.495.948-.309.178-.677.388z" data-original="#3f434f"></path><path fill="#a4a9b3" d="m73.27 109.908-.014.256-11.056 6.383v-.242zM73.256 110.82v.27L62.2 117.473v-.256zM73.256 111.746v.27l-11.07 6.384v-.271zM73.27 108.982v.256l-11.07 6.397v-.27zM73.27 108.056v.256l-11.056 6.383v-.256z" data-original="#a4a9b3"></path><path fill="#f34858" d="m94.827 75.676-.05 15.863-34.25 19.901.05-15.862z" data-original="#f34858"></path><path fill="#e4e8f4" d="M73.27 90.261v2.508l-.014.256v2.451l-11.07 6.44v-.926l.014-.655v-2.11l.014-.669v-.855z" data-original="#e4e8f4"></path><path fill="#fa5168" d="m60.577 95.578-.05 15.862-14.457-8.346.05-15.863z" data-original="#fa5168"></path><path fill="#f9607f" d="M94.83 75.686 60.577 95.587l-6.315-3.656-1.828-1.034-.037-.018-6.278-3.638 34.254-19.9 6.315 3.637.018.018 1.81 1.034z" data-original="#f9607f"></path><path fill="#fa5168" d="M88.516 72.03 54.262 91.931l-1.828-1.034-.037-.018 34.29-19.901.019.018z" data-original="#fa5168"></path><path fill="#f34858" d="m54.262 91.931-.017 6.001-1.848-1.055.017-6.001z" data-original="#f34858"></path><path fill="#3f434f" d="m63.775 104.444.497.947-.308.178-.68.39z" data-original="#3f434f"></path><path fill="#3f434f" d="m63.964 105.569.005 1.873-.371.214-.006-1.872zM65.811 106.546l.001.4-2.567 1.483v-.401zM68.54 101.693l.003 1.335c.002.421-.242.91-.565 1.159l.003 1.202c.227-.104.398-.094.398.031l-1 .578c0-.126.17-.332.396-.49l-.003-1.202c-.148.059-.276.044-.375-.018-.118-.088-.195-.251-.196-.485l-.003-1.335zM65.451 104.71l.006 1.873-.372.215-.005-1.873z" data-original="#3f434f"></path><path fill="#3f434f" d="m65.265 103.584.495.948-.309.178-.677.388z" data-original="#3f434f"></path><path fill="#a4a9b3" d="m73.27 92.769-.014.256L62.2 99.408v-.242zM73.256 93.68v.271L62.2 100.335v-.257zM73.256 94.607v.27l-11.07 6.384v-.271zM73.27 91.843v.256L62.2 98.497v-.271zM73.27 90.917v.256l-11.056 6.383V97.3z" data-original="#a4a9b3"></path></g></svg>
