<svg xmlns="http://www.w3.org/2000/svg" version="1.1" xmlns:xlink="http://www.w3.org/1999/xlink" xmlns:svgjs="http://svgjs.com/svgjs" width="512" height="512" x="0" y="0" viewBox="0 0 512 512" style="enable-background:new 0 0 512 512" xml:space="preserve" class=""><g><path fill="#2eb3bd" d="m507.602 290.293-16.356-8.645v16.575zm0 0" data-original="#2eb3bd"></path><path fill="#23292e" d="m137.91 291.73-52.824-37.164c-7.773-19.421-20.719-36.683-35.383-45.152-23.77-13.723-43.043.848-43.043 32.54 0 31.694 19.274 68.515 43.043 82.241 11.266 6.504 21.52 6.645 29.192 1.625zM338.078 408.73l-52.824-37.164c-7.774-19.421-20.719-36.683-35.383-45.148-23.773-13.727-43.043.844-43.043 32.539s19.27 68.516 43.043 82.238c11.27 6.508 21.52 6.645 29.192 1.625zm0 0" data-original="#23292e"></path><path fill="#63dbff" d="m499.91 290.477-1.46.843a121.744 121.744 0 0 0-34.087-63.55l-40.93-40.305-8.542-15.91c-21.477-40-53.711-73.2-93.063-95.852L190.305 0 22.828 97.078l-2.98 31.887A177.186 177.186 0 0 0 0 210.453v5.777a57.859 57.859 0 0 0 28.887 50.083l274.32 158.69c.234.15.465.302.707.438.418.243.844.473 1.27.707l1.414.817a17.66 17.66 0 0 0 1.554.793c.13.058.258.113.387.172.45.191.899.363 1.348.515.058.02.117.051.176.07a58.604 58.604 0 0 0 52.437-3.109l125.887-72.765A47.27 47.27 0 0 0 512 311.715v-14.262c0-6.203-6.719-10.082-12.09-6.976zm0 0" data-original="#63dbff" class=""></path><path fill="#2eb3bd" d="m499.91 290.477-147.894 85.488a42.132 42.132 0 0 1-22.563 5.613 121.708 121.708 0 0 0-32.566-56.726l-40.926-40.309-8.543-15.906a243.517 243.517 0 0 0-93.063-95.852L22.828 97.078l-2.984 31.887A177.23 177.23 0 0 0 0 210.453v5.777a57.859 57.859 0 0 0 28.887 50.082l274.316 158.692c.238.148.469.3.707.437.422.243.848.473 1.274.707l1.414.817a18.135 18.135 0 0 0 3.464 1.55 58.591 58.591 0 0 0 52.438-3.109l125.887-72.765A47.27 47.27 0 0 0 512 311.715v-14.262c0-6.203-6.719-10.082-12.09-6.976zm0 0" data-original="#2eb3bd"></path><path fill="#2e373d" d="M292.914 408.656c0 31.696-19.273 46.266-43.043 32.54-23.773-13.723-43.043-50.544-43.043-82.239 0-31.695 19.27-46.262 43.043-32.539 23.77 13.723 43.043 50.543 43.043 82.238zm0 0" data-original="#2e373d"></path><path fill="#cecece" d="M271.031 396.023c0 15.586-9.472 22.747-21.16 16-11.687-6.75-21.164-24.851-21.164-40.433 0-15.586 9.477-22.746 21.164-16 11.688 6.75 21.16 24.851 21.16 40.433zm0 0" data-original="#cecece"></path><path fill="#627681" d="M261.348 390.434c0 8.453-5.137 12.336-11.477 8.675s-11.476-13.476-11.476-21.93c0-8.452 5.136-12.335 11.476-8.675s11.477 13.476 11.477 21.93zm0 0" data-original="#627681"></path><path fill="#2e373d" d="M92.746 291.656c0 31.696-19.273 46.266-43.043 32.54-23.77-13.723-43.043-50.544-43.043-82.243 0-31.691 19.274-46.262 43.043-32.539 23.774 13.727 43.043 50.547 43.043 82.242zm0 0" data-original="#2e373d"></path><path fill="#cecece" d="M70.867 279.023c0 15.582-9.476 22.747-21.164 16-11.687-6.75-21.16-24.851-21.16-40.437 0-15.582 9.473-22.746 21.16-15.996 11.688 6.746 21.164 24.851 21.164 40.433zm0 0" data-original="#cecece"></path><path fill="#627681" d="M61.18 273.434c0 8.449-5.137 12.336-11.477 8.675s-11.476-13.476-11.476-21.93c0-8.452 5.136-12.34 11.476-8.679s11.477 13.48 11.477 21.934zm0 0" data-original="#627681"></path><path fill="#304e75" d="m264.844 279.414 150.511-87.234-33.68-50.176c-8.66-12.91-25.866-16.856-39.288-9.016l-93.575 54.668c-14.707 8.594-19.84 27.367-11.55 42.246zm0 0" data-original="#304e75" class=""></path><path fill="#ffffff" d="m491.414 267.938-24.918 14.523a11.814 11.814 0 0 0-5.86 10.203v20.606l37.825-21.84a122.301 122.301 0 0 0-7.047-23.492zm0 0" data-original="#ffffff"></path><path fill="#ef9910" d="m491.133 295.66 7.324-4.23a121.668 121.668 0 0 0-7.047-23.493l-7.293 4.25a128.769 128.769 0 0 1 7.016 23.473zm0 0" data-original="#ef9910"></path><path fill="#ffffff" d="m339.734 383.07 27.618-15.945v-13.754c0-6.148-6.657-9.988-11.98-6.918l-23.735 13.707a15.674 15.674 0 0 1-15.657 0l-16.066-9.277a33.584 33.584 0 0 0 16.82 29.097l5.387 3.102a17.64 17.64 0 0 0 17.613-.012zm0 0" data-original="#ffffff"></path><path fill="#ef9910" d="M322.66 362.105c-2.312-.171-4.605-.75-6.68-1.945l-16.066-9.277a33.584 33.584 0 0 0 16.82 29.097l5.387 3.102a17.58 17.58 0 0 0 8.203 2.313 121.642 121.642 0 0 0-7.664-23.29zm0 0" data-original="#ef9910"></path><path fill="#2eb3bd" d="m264.844 279.414 90.527 67.04 111.125-63.993-51.14-90.281zm0 0" data-original="#2eb3bd"></path><path fill="#243b58" d="m132.133 221.45 109.898 62.038-31.808-45.25a113.335 113.335 0 0 0-36.032-32.949l-42.058-24.281zm0 0" data-original="#243b58"></path><path fill="#59718b" d="M402.813 189.914 371 144.672c-3.969-5.645-8.457-10.871-13.352-15.676a29.304 29.304 0 0 0-15.261 3.992l-19.864 11.606zm0 0" data-original="#59718b" class=""></path><path fill="#243b58" d="M117.398 172.5 70.66 145.516c-12.758-7.368-29.086-1.875-34.8 11.703l-3.364 7.984 84.902 47.93zm0 0" data-original="#243b58"></path></g></svg>
