<svg xmlns="http://www.w3.org/2000/svg" version="1.1" xmlns:xlink="http://www.w3.org/1999/xlink" xmlns:svgjs="http://svgjs.com/svgjs" width="512" height="512" x="0" y="0" viewBox="0 0 64 64" style="enable-background:new 0 0 512 512" xml:space="preserve" class=""><g><g data-name="Layer 18"><path fill="#e2e7f6" d="M52 12H31v15h21z" data-original="#e2e7f6" class=""></path><path fill="#f2f2f2" d="M50 21v-9H31v11h17a2 2 0 0 0 2-2z" data-original="#f2f2f2" class=""></path><path fill="#cccccc" d="M11 25V7a5 5 0 0 1 5-5h5v4h-3a3 3 0 0 0-3 3v16" data-original="#cccccc"></path><path fill="#f0ae42" d="M54 36v-8a2 2 0 0 0-2-2H28.908a2 2 0 0 0-1.506.683L21 34H4a2 2 0 0 0-2 2v15a2 2 0 0 0 2 2h50z" data-original="#f0ae42"></path><path fill="#f6b940" d="M19 50h29V26H28.908a2 2 0 0 0-1.506.683L21 34H4a2 2 0 0 0-2 2v14z" data-original="#f6b940"></path><path fill="#686868" d="M62 50v-6h-2.362a12.9 12.9 0 0 0-1.582-3.814l1.672-1.671-4.243-4.243-1.672 1.672A12.883 12.883 0 0 0 50 34.362V32h-6v2.362a12.883 12.883 0 0 0-3.813 1.582l-1.672-1.672-4.243 4.243 1.672 1.671A12.9 12.9 0 0 0 34.362 44H32v6h2.362a12.9 12.9 0 0 0 1.582 3.814l-1.672 1.671 4.243 4.243 1.671-1.672A12.9 12.9 0 0 0 44 59.638V62h6v-2.362a12.9 12.9 0 0 0 3.814-1.582l1.671 1.672 4.243-4.243-1.672-1.671A12.9 12.9 0 0 0 59.638 50z" data-original="#686868"></path><circle cx="47" cy="47" r="7" fill="#cccccc" data-original="#cccccc"></circle><circle cx="47" cy="47" r="3" fill="#939393" data-original="#939393" class=""></circle><path fill="#f4a93c" d="M26 8h28v4H26z" data-original="#f4a93c"></path><path fill="#f6b940" d="M26 8h24v2H26z" data-original="#f6b940"></path><circle cx="17" cy="53" r="9" fill="#686868" data-original="#686868"></circle><circle cx="17" cy="53" r="4" fill="#939393" data-original="#939393" class=""></circle><path fill="#686868" d="M9 34v-8a2 2 0 0 1 2-2h4a2 2 0 0 1 2 2v8" data-original="#686868"></path><g fill="#fce797"><path d="M11 37h11v2H11zM28 30h5v2h-5zM28 34h5v2h-5z" fill="#fce797" data-original="#fce797"></path></g><path fill="#939393" d="M15 28v-4h-4a2 2 0 0 0-2 2v5h3a3 3 0 0 0 3-3z" data-original="#939393" class=""></path></g></g></svg>
