<svg xmlns="http://www.w3.org/2000/svg" version="1.1" xmlns:xlink="http://www.w3.org/1999/xlink" xmlns:svgjs="http://svgjs.com/svgjs" width="512" height="512" x="0" y="0" viewBox="0 0 512 512" style="enable-background:new 0 0 512 512" xml:space="preserve" class=""><g><path fill="#ffdc5a" d="M471 346H36c-20 0-36-16-36-35V159c0-6 2-13 5-18h417c8 0 16 1 24 2 6 4 11 9 16 14 18 20 31 46 36 77l13 70c2 9-1 19-7 27-8 9-21 15-33 15z" data-original="#ffdc5a" class=""></path><path fill="#ffc84b" d="M42 141h12v50h319c1 0 3 0 4 1 40 41 70 64 125 64l3 12c-59 1-90-22-135-65H48c-3 0-6-3-6-6z" data-original="#ffc84b"></path><path fill="#ed5757" d="M511 302v2c1 3 1 7 0 10h-34c-14 0-25-11-25-25v-12c0-4 2-6 6-6 3 0 6 2 6 6v12c0 7 6 13 13 13zM0 302v-50h3c18 0 33 11 33 25v19c0 3-3 6-8 6z" data-original="#ed5757"></path><path fill="#f7b92a" d="M290 346h-68V234c0-3 3-6 6-6h56c3 0 6 3 6 6z" data-original="#f7b92a"></path><path fill="#ffc84b" d="M373 203c-4 0-6-3-6-6v-66c0-3 2-5 6-5 3 0 6 2 6 5v66c0 3-3 6-6 6zM124 246H66c-4 0-6-3-6-6 0-4 2-6 6-6h58c3 0 6 2 6 6 0 3-3 6-6 6z" data-original="#ffc84b"></path><path fill="#ffc84b" d="M5 141c6-10 18-17 31-17h351c22 0 42 6 59 19-8-1-16-2-24-2z" data-original="#ffc84b"></path><g fill="#62b4fe"><path d="M109 191v-50H54v50zM173 191v-50h-52v50zM236 191v-50h-51v50zM300 191v-50h-52v50zM367 191v-50h-55v50zM498 234c-5-31-18-57-36-77-5-5-10-10-16-14-8-1-16-2-24-2h-43v53c39 39 69 62 123 62z" fill="#62b4fe" data-original="#62b4fe" class=""></path></g><path fill="#58535a" d="M370 388c-27 0-49-22-49-49 0-26 22-48 49-48 28 0 50 22 50 48 0 27-22 49-50 49z" data-original="#58535a"></path><path fill="#918e92" d="M370 309c-17 0-31 14-31 30 0 17 14 31 31 31s31-14 31-31c0-16-14-30-31-30z" data-original="#918e92"></path><path fill="#58535a" d="M142 388c-28 0-50-22-50-49 0-26 22-48 50-48 27 0 49 22 49 48 0 27-22 49-49 49z" data-original="#58535a"></path><path fill="#918e92" d="M142 309c-17 0-31 14-31 30 0 17 14 31 31 31s31-14 31-31c0-16-14-30-31-30z" data-original="#918e92"></path></g></svg>
