<svg xmlns="http://www.w3.org/2000/svg" version="1.1" xmlns:xlink="http://www.w3.org/1999/xlink" xmlns:svgjs="http://svgjs.com/svgjs" width="512" height="512" x="0" y="0" viewBox="0 0 512 512" style="enable-background:new 0 0 512 512" xml:space="preserve" class=""><g><linearGradient id="a"><stop offset="0" stop-color="#ff4757"></stop><stop offset="1" stop-color="#ff7a85"></stop></linearGradient><linearGradient xlink:href="#a" id="i" x1="360.437" x2="336.275" y1="409.732" y2="367.882" gradientUnits="userSpaceOnUse"></linearGradient><linearGradient id="j" x1="240.585" x2="240.585" y1="299.774" y2="104.596" gradientUnits="userSpaceOnUse"><stop offset=".17" stop-color="#ba5c25"></stop><stop offset=".825" stop-color="#cb8140"></stop><stop offset="1" stop-color="#dea861"></stop></linearGradient><linearGradient id="b"><stop offset="0" stop-color="#dea861"></stop><stop offset=".993" stop-color="#ebcba0"></stop></linearGradient><linearGradient xlink:href="#b" id="k" x1="188.051" x2="327.74" y1="227.313" y2="227.313" gradientUnits="userSpaceOnUse"></linearGradient><linearGradient id="c"><stop offset="0" stop-color="#ba5c25"></stop><stop offset="1" stop-color="#cb8140"></stop></linearGradient><linearGradient xlink:href="#c" id="l" x1="194.3" x2="194.3" y1="273.815" y2="239.331" gradientUnits="userSpaceOnUse"></linearGradient><linearGradient xlink:href="#b" id="m" x1="128.374" x2="268.064" y1="193.208" y2="193.208" gradientUnits="userSpaceOnUse"></linearGradient><linearGradient xlink:href="#c" id="n" x1="134.624" x2="134.624" y1="239.01" y2="204.525" gradientUnits="userSpaceOnUse"></linearGradient><linearGradient id="d"><stop offset="0" stop-color="#ff4757"></stop><stop offset=".998" stop-color="#ff7a85"></stop></linearGradient><linearGradient xlink:href="#d" id="o" x1="172.988" x2="172.988" y1="375.027" y2="259.182" gradientTransform="matrix(.866 .5 0 1.155 32.312 -168.227)" gradientUnits="userSpaceOnUse"></linearGradient><linearGradient id="e"><stop offset="0" stop-color="#43386b"></stop><stop offset="1" stop-color="#594a8e"></stop></linearGradient><linearGradient xlink:href="#e" id="p" x1="294.836" x2="294.836" y1="432.589" y2="345.944" gradientUnits="userSpaceOnUse"></linearGradient><linearGradient id="f"><stop offset="0" stop-color="#a996eb"></stop><stop offset="1" stop-color="#d7d1eb"></stop></linearGradient><linearGradient xlink:href="#f" id="q" x1="294.836" x2="294.836" y1="417.293" y2="371.64" gradientUnits="userSpaceOnUse"></linearGradient><linearGradient id="g"><stop offset="0" stop-color="#c5baeb"></stop><stop offset="1" stop-color="#fff"></stop></linearGradient><linearGradient xlink:href="#g" id="r" x1="294.836" x2="294.836" y1="407.728" y2="378.6" gradientUnits="userSpaceOnUse"></linearGradient><linearGradient xlink:href="#e" id="s" x1="87.585" x2="87.585" y1="313.433" y2="226.788" gradientUnits="userSpaceOnUse"></linearGradient><linearGradient xlink:href="#f" id="t" x1="87.585" x2="87.585" y1="298.137" y2="252.484" gradientUnits="userSpaceOnUse"></linearGradient><linearGradient xlink:href="#g" id="u" x1="87.585" x2="87.585" y1="288.571" y2="259.443" gradientUnits="userSpaceOnUse"></linearGradient><linearGradient id="h"><stop offset="0" stop-color="#d7d1eb"></stop><stop offset="1" stop-color="#f7f4ff"></stop></linearGradient><linearGradient xlink:href="#h" id="v" x1="285.383" x2="226.05" y1="215.049" y2="113.533" gradientUnits="userSpaceOnUse"></linearGradient><linearGradient id="w" x1="259.235" x2="327.477" y1="234.367" y2="166.126" gradientUnits="userSpaceOnUse"><stop offset="0" stop-color="#fff"></stop><stop offset="1" stop-color="#fff" stop-opacity="0"></stop></linearGradient><linearGradient xlink:href="#a" id="x" x1="195.247" x2="364.931" y1="203.425" y2="203.425" gradientUnits="userSpaceOnUse"></linearGradient><linearGradient xlink:href="#h" id="y" x1="337.167" x2="512" y1="370.805" y2="370.805" gradientUnits="userSpaceOnUse"></linearGradient><linearGradient xlink:href="#h" id="z" x1="0" x2="18.003" y1="198.72" y2="198.72" gradientUnits="userSpaceOnUse"></linearGradient><linearGradient xlink:href="#g" id="A" x1="428.088" x2="428.088" y1="396.445" y2="376.343" gradientTransform="matrix(-1 0 0 1 803.03 0)" gradientUnits="userSpaceOnUse"></linearGradient><linearGradient xlink:href="#g" id="B" x1="490.053" x2="490.053" y1="329.166" y2="311.38" gradientUnits="userSpaceOnUse"></linearGradient><linearGradient xlink:href="#d" id="C" x1="325.069" x2="325.069" y1="372.09" y2="231.6" gradientUnits="userSpaceOnUse"></linearGradient><linearGradient xlink:href="#d" id="D" x1="418.203" x2="418.203" y1="321.267" y2="180.777" gradientUnits="userSpaceOnUse"></linearGradient><linearGradient xlink:href="#d" id="E" x1="207.391" x2="64.786" y1="187.27" y2="104.938" gradientUnits="userSpaceOnUse"></linearGradient><path fill="#322a50" d="m106.936 315.448 37.615-21.717-35.572-17.715zM314.186 434.604l37.616-21.717-35.572-17.714z" data-original="#322a50"></path><path fill="url(#i)" d="M481.427 272.33 364.93 193.572l-6.508 1.252-85.716-49.546-13.66-12.896-45.137-26.06-50.193-28.936c-3.426-1.978-6.551-2.097-8.955-.718l-.014-.011-143.094 82.638 340.783 265.3 110.805-41.848c.317-.151 32.028-40.641 32.321-40.84l.152-.088-.006-.005c2.557-1.833 4.152-5.537 4.152-10.665v-21.248c.001-13.979-7.991-30.269-18.433-37.571z" data-original="url(#i)"></path><path fill="url(#j)" d="m134.845 254.675 72.762 30.962 14.515-9.601 142.809-82.464-6.509 1.252-85.715-49.545-13.66-12.897-142.809 82.465z" data-original="url(#j)"></path><path fill="url(#k)" d="M327.74 185.964a19.07 19.07 0 0 0-3.374-10.824l-10.641-6.151a5.564 5.564 0 0 0-1.045.467l-124.629 71.965 11.368 40.732 8.188 3.484 14.516-9.601 105.618-60.989v-29.083z" data-original="url(#k)"></path><path fill="url(#l)" d="M185.42 259.833V246.1c0-4.216 4.564-6.851 8.215-4.743a19.09 19.09 0 0 1 9.545 16.533v12.197z" data-original="url(#l)"></path><path fill="url(#m)" d="M258.518 134.625c-1.841-1.063-3.912-.918-5.515.025l-124.629 71.965 15.13 45.915 124.56-71.926v-29.446a19.09 19.09 0 0 0-9.546-16.533z" data-original="url(#m)"></path><path fill="url(#n)" d="M125.743 225.028v-13.733c0-4.216 4.564-6.851 8.215-4.743a19.09 19.09 0 0 1 9.546 16.533v12.197z" data-original="url(#n)"></path><path fill="url(#o)" d="m71.101 188.787 45.137 26.06 13.66 12.897 85.716 49.546 6.508-1.253 116.497 78.758c10.441 7.302 18.434 23.592 18.434 37.572v21.248c0 10.059-6.116 14.682-13.66 10.327L88.884 277.615c-6.231-3.598-12.382-9.025-17.994-15.878l-52.243-46.694c-7.008-8.558-11.462-20.591-11.462-30.967v-13.852c0-10.105 6.144-14.749 13.722-10.374z" data-original="url(#o)"></path><path fill="url(#p)" d="M325.637 409.269c0 22.682-13.79 33.107-30.802 23.286s-30.802-36.17-30.802-58.852 13.79-33.107 30.802-23.286 30.802 36.17 30.802 58.852z" data-original="url(#p)"></path><path fill="url(#q)" d="M309.98 400.229c0 11.152-6.78 16.278-15.144 11.449s-15.144-17.784-15.144-28.936 6.78-16.278 15.144-11.449c8.363 4.83 15.144 17.785 15.144 28.936z" data-original="url(#q)"></path><path fill="url(#r)" d="M307.818 398.981c0 9.56-5.812 13.955-12.982 9.815-7.17-4.139-12.983-15.246-12.983-24.806s5.812-13.954 12.983-9.814c7.169 4.14 12.982 15.245 12.982 24.805z" data-original="url(#r)"></path><path fill="url(#s)" d="M118.387 290.113c0 22.682-13.79 33.107-30.802 23.285-17.011-9.821-30.802-36.17-30.802-58.852s13.79-33.107 30.802-23.285c17.011 9.821 30.802 36.17 30.802 58.852z" data-original="url(#s)"></path><path fill="url(#t)" d="M102.729 281.073c0 11.152-6.78 16.278-15.144 11.449s-15.144-17.784-15.144-28.936 6.78-16.278 15.144-11.449 15.144 17.784 15.144 28.936z" data-original="url(#t)"></path><path fill="url(#u)" d="M100.567 279.825c0 9.561-5.812 13.954-12.982 9.815s-12.983-15.246-12.983-24.806 5.812-13.954 12.983-9.814c7.17 4.139 12.982 15.245 12.982 24.805z" data-original="url(#u)"></path><path fill="url(#v)" d="m196.63 221.276 25.493 54.76 74.799-43.193 68.01-39.272-26.432-56.778c-2.562-5.503-9.289-7.626-14.546-4.591l-121.316 70.042c-6.633 3.829-9.24 12.09-6.008 19.032z" data-original="url(#v)"></path><path fill="url(#w)" d="M323.953 132.203 259 169.703l53.909 53.909 52.022-30.04-26.432-56.778c-2.562-5.503-9.29-7.626-14.546-4.591z" data-original="url(#w)"></path><path fill="url(#x)" d="m206.539 209.002 121.316-70.042a2.482 2.482 0 0 1 1.257-.343c.788 0 1.809.386 2.313 1.47l26.913 57.291 6.593-3.807-26.432-56.778c-1.765-3.792-5.51-5.98-9.387-5.98-1.749 0-3.525.445-5.159 1.388l-121.316 70.042c-6.632 3.829-9.239 12.09-6.007 19.032l25.493 54.76 6.971-4.025-25.39-54.028a6.933 6.933 0 0 1 2.835-8.98z" data-original="url(#x)"></path><g fill="#322a50"><path d="M376.448 371.626a17.044 17.044 0 0 0-11.517 16.133v19.855l12.915-5.27a463.679 463.679 0 0 0 16.288-7.029v-30.116c-4.646 1.885-11.684 4.371-17.686 6.427zM467.83 323.309a323.642 323.642 0 0 1-47.762 30.014c-11.694 5.996-18.981 18.104-18.981 31.245v7.524a465.14 465.14 0 0 0 77.411-46.33v-17.175c.001-5.499-6.284-8.599-10.668-5.278zM489.853 305.079c-1.45 1.315-2.929 2.593-4.401 3.881v31.562a466.163 466.163 0 0 0 11.596-9.187V308.267c0-3.734-4.429-5.696-7.195-3.188z" fill="#322a50" data-original="#322a50"></path></g><path fill="url(#y)" d="m357.215 406.027-8.249-4.762c-5.244-3.028-11.799.757-11.799 6.812a16.282 16.282 0 0 0 7.918 13.97 40.47 40.47 0 0 0 27.014 5.265l16.597-2.585a167.087 167.087 0 0 0 105.624-61.805l10.941-13.911a31.483 31.483 0 0 0 6.737-19.465c0-7.401-5-13.868-12.163-15.731l-1.13 12.301-2.814 4.063a172.518 172.518 0 0 1-115.513 72.273z" data-original="url(#y)"></path><path fill="url(#z)" d="M18.003 193.591c0-.81-.432-1.559-1.133-1.964l-6.66-3.853c-4.533-2.63-10.21.641-10.21 5.88 0 5.089 2.715 9.792 7.122 12.337l7.481 4.298c1.513.869 3.4-.223 3.4-1.968z" data-original="url(#z)"></path><path fill="url(#A)" d="M365.982 390.409c0 6.598 4.011 9.63 8.959 6.774 4.949-2.857 8.96-10.522 8.96-17.119s-4.011-9.63-8.96-6.773c-4.947 2.856-8.959 10.52-8.959 17.118z" data-original="url(#A)"></path><path fill="url(#B)" d="M485.452 330.769a8.174 8.174 0 0 0 1.124-.533c4.461-2.576 8.078-9.486 8.078-15.434s-3.616-8.682-8.078-6.106a10.73 10.73 0 0 0-1.124.765z" data-original="url(#B)"></path><path fill="url(#C)" d="m383.901 346.721-117.666-78.005 108.707 82.511z" data-original="url(#C)"></path><path fill="url(#D)" d="M477.036 295.898 359.37 217.893l108.707 82.511z" data-original="url(#D)"></path><path fill="url(#E)" d="m229.901 133.883-87.213-50.262-2.602 1.503 84.609 48.761-109.696 63.333-84.594-48.752-2.602 1.503L115 200.221z" data-original="url(#E)"></path></g></svg>
