<svg xmlns="http://www.w3.org/2000/svg" version="1.1" xmlns:xlink="http://www.w3.org/1999/xlink" xmlns:svgjs="http://svgjs.com/svgjs" width="512" height="512" x="0" y="0" viewBox="0 0 511.999 511" style="enable-background:new 0 0 512 512" xml:space="preserve" class=""><g><path fill="#2e373d" d="M165.637 251.992c0-35.398-21.52-76.52-48.07-91.847-11.794-6.81-22.587-7.368-30.95-2.793v-.008s-25.39 14.375-26.527 15.16l-.188.105.008.016c-9.129 6.39-14.816 19.512-14.816 37.7 0 35.394 21.52 76.515 48.07 91.843 11.477 6.629 22.008 7.332 30.27 3.148l.004.012.203-.113c.546-.285 24.265-13.746 24.265-13.746l-.008-.02c10.82-5.5 17.739-19.398 17.739-39.457zm0 0" data-original="#2e373d"></path><path fill="#63dbff" d="m434.371 80.094-74.492 42.738a88.12 88.12 0 0 0-44.274 76.438v37.367l-38.312-22.285 18.32-10.403v-27.054l5.328-3.079c9.782-4.863 16.227-14.898 16.227-26.16 0-11.02-5.879-21.199-15.418-26.707L194.203 58.855a71.446 71.446 0 0 0-35.723-9.57 71.313 71.313 0 0 0-40.07 12.313L71.234 88.836a71.436 71.436 0 0 0-33.007 33.324l-21.692 12.317A33.057 33.057 0 0 0 0 163.113v42.957a35.698 35.698 0 0 0 17.852 30.918l108.96 62.91 12.399-7.039 93.777 62.223c26.914 21.68 64.375 24.629 94.352 7.43l103.476-59.36v-.007c22.309-12.81 38.262-36.672 38.262-66.07v-136.88c0-17.812-19.258-28.965-34.707-20.101zm0 0" data-original="#63dbff" class=""></path><path fill="#2eb3bd" d="m295.613 176.895-18.554 10.714a34.734 34.734 0 0 0-7.872 22.028l8.106 4.715 18.32-10.403zm0 0" data-original="#2eb3bd" class=""></path><path fill="#23292e" d="M491.04 431.992c0-35.398-21.52-76.52-48.067-91.847-11.801-6.813-22.602-7.372-30.97-2.793l-22.917 13.097a23.58 23.58 0 0 0-3.656 2.086l-.125.07.004.012c-9.125 6.399-14.813 19.516-14.813 37.703 0 35.399 21.52 76.52 48.07 91.848 11.477 6.625 22.008 7.336 30.274 3.16h.004c.719-.367 1.43-.762 2.113-1.2l22.352-12.66v-.003c10.82-5.508 17.73-19.414 17.73-39.473zm0 0" data-original="#23292e"></path><path fill="#2e373d" d="M466.637 445.828c0 35.399-21.524 51.668-48.07 36.34-26.551-15.328-48.07-56.45-48.07-91.848 0-35.398 21.519-51.668 48.07-36.34 26.546 15.329 48.07 56.45 48.07 91.848zm0 0" data-original="#2e373d"></path><path fill="#cecece" d="M442.2 431.719c0 17.406-10.583 25.406-23.634 17.867-13.054-7.535-23.636-27.754-23.636-45.156 0-17.407 10.582-25.403 23.636-17.868 13.051 7.536 23.633 27.754 23.633 45.157zm0 0" data-original="#cecece" class=""></path><path fill="#2e373d" d="M431.383 425.477c0 9.437-5.738 13.777-12.817 9.691-7.082-4.09-12.82-15.055-12.82-24.492 0-9.442 5.738-13.781 12.82-9.692 7.079 4.086 12.817 15.051 12.817 24.493zm0 0" data-original="#2e373d"></path><path fill="#2e373d" d="M466.637 445.828c0 35.399-21.524 51.668-48.07 36.34-26.551-15.328-48.07-56.45-48.07-91.848 0-35.398 21.519-51.668 48.07-36.34 26.546 15.329 48.07 56.45 48.07 91.848zm0 0" data-original="#2e373d"></path><path fill="#cecece" d="M442.2 431.719c0 17.406-10.583 25.406-23.634 17.867-13.054-7.535-23.636-27.754-23.636-45.156 0-17.407 10.582-25.403 23.636-17.868 13.051 7.536 23.633 27.754 23.633 45.157zm0 0" data-original="#cecece" class=""></path><path fill="#2e373d" d="M431.383 425.477c0 9.437-5.738 13.777-12.817 9.691-7.082-4.09-12.82-15.055-12.82-24.492 0-9.442 5.738-13.781 12.82-9.692 7.079 4.086 12.817 15.051 12.817 24.493zm0 0" data-original="#2e373d"></path><path fill="#23868e" d="M279.672 245.98a26.206 26.206 0 0 1-10.485-20.968v-15.375c0-8.274 2.97-15.961 7.946-22.024l-.028-.031-28.453 16.43a29.197 29.197 0 0 1-9.218 4.215c-15.348 3.972-26.067 17.816-26.067 33.668v16.921a16.813 16.813 0 0 0 10.793 15.7l91.445 26.87v-26.175zm0 0" data-original="#23868e"></path><path fill="#2eb3bd" d="M224.16 274.516a16.813 16.813 0 0 1-10.793-15.7v-16.921c0-15.852 10.723-29.696 26.067-33.668 12.906-3.34 21.918-14.985 21.918-28.313 0-11.02-5.88-21.2-15.418-26.707l-107.547-62.09a71.41 71.41 0 0 0-35.723-9.574c-27.727 0-52.68 16.008-64.441 40.617l17.136-9.73a33.069 33.069 0 0 1 33.067 0l20.562 11.87a113.332 113.332 0 0 1 44.278 46.634 113.328 113.328 0 0 1 12.375 51.492v45.96l47.726 27.462 102.227 30.73.015-25.191zm0 0" data-original="#2eb3bd" class=""></path><path fill="#2e373d" d="M232.559 32.977 179.727 2.473a14.745 14.745 0 0 0-14.743 0l-52.832 30.504c-2.05 1.187-3.078 3.261-3.078 5.336v35.652c0 2.074 1.028 4.148 3.078 5.332l52.832 30.504a14.736 14.736 0 0 0 14.743 0l52.832-30.504c2.011-1.16 3.007-3.18 3.05-5.211h.024V38.44c.043-2.117-.977-4.254-3.074-5.464zm0 0" data-original="#2e373d"></path><path fill="#627681" d="m112.152 43.648 52.832 30.508a14.745 14.745 0 0 0 14.743 0l52.832-30.508c4.109-2.37 4.109-8.296 0-10.668L179.727 2.477a14.745 14.745 0 0 0-14.743 0l-52.832 30.5c-4.105 2.375-4.105 8.3 0 10.671zm0 0" data-original="#627681"></path><path fill="#2eb3bd" d="M126.813 299.898v-55.43a113.29 113.29 0 0 0-56.649-98.12l-20.562-11.875a33.076 33.076 0 0 0-33.07 0A33.073 33.073 0 0 0 0 163.113v42.957a35.698 35.698 0 0 0 17.852 30.918zM440.578 418.32a82.603 82.603 0 0 0-9.023-37.539 82.585 82.585 0 0 0-32.278-34l-14.992-8.652a24.1 24.1 0 0 0-24.11 0 24.105 24.105 0 0 0-12.054 20.875v32.055c0 8.195 6.04 15.14 14.156 16.277zm0 0" data-original="#2eb3bd" class=""></path><path fill="#63dbff" d="M488.953 347.918a82.585 82.585 0 0 0-32.277-34l-14.992-8.652a24.1 24.1 0 0 0-24.11 0l-57.394 32.859a24.102 24.102 0 0 1 24.105.004l14.992 8.652a82.619 82.619 0 0 1 32.282 34 82.61 82.61 0 0 1 9.02 37.54l57.398-32.864a82.615 82.615 0 0 0-9.024-37.539zm0 0" data-original="#63dbff" class=""></path><path fill="#2eb3bd" d="M467.2 90.965a22.936 22.936 0 0 0-5.028-7.293 23.658 23.658 0 0 0-7.27-4.836c-5.386-2.285-11.656-2.578-17.593-.172-.989.402-1.97.879-2.938 1.43l-74.492 42.738a88.006 88.006 0 0 0-26.043 22.766 88.105 88.105 0 0 0-18.23 53.672v125.847c0 18.422-6.278 34.656-16.442 47.371 9.734-1.593 19.285-4.875 28.176-9.976l103.476-59.36v-.007c22.305-12.813 38.258-36.676 38.258-66.07v-136.88c.004-3.34-.672-6.445-1.875-9.23zm0 0" data-original="#2eb3bd" class=""></path><path fill="#2e373d" d="M315.75 106.398a14.44 14.44 0 0 0-2.625-8.594L276.441 45.5c-4.675-6.668-13.671-8.648-20.714-4.563L195.57 75.837c-3.52 2.043-5.113 5.672-4.879 9.187l-.035-.007v29.46l.035.004c.086 3.56 2.016 7.063 5.766 8.762l70.426 31.84a36.462 36.462 0 0 0 33.285-1.668l8.348-4.836c4.793-2.777 7.316-7.832 7.183-12.945l.055.008v-29.239zm0 0" data-original="#2e373d"></path><path fill="#627681" d="m195.574 75.832 60.153-34.898c7.043-4.086 16.039-2.102 20.714 4.562l36.684 52.309c4.883 6.96 2.754 16.617-4.605 20.879l-8.348 4.836a36.45 36.45 0 0 1-33.285 1.671L196.46 93.348c-7.313-3.305-7.824-13.489-.887-17.516zm0 0" data-original="#627681"></path><path fill="#23868e" d="M379.2 111.746a23.324 23.324 0 0 1 11.663 20.2v111.242a38.345 38.345 0 0 0 19.168 33.203v38.879L379.2 332.762zm0 0" data-original="#23868e"></path><path fill="#63dbff" d="M411.598 231.223V119.984a23.32 23.32 0 0 0-11.664-20.199l-20.735 11.961a23.324 23.324 0 0 1 11.664 20.2v111.242a38.35 38.35 0 0 0 19.168 33.203v38.68l20.739-11.766v-38.88a38.336 38.336 0 0 1-19.172-33.202zm0 0" data-original="#63dbff" class=""></path><path fill="#ededed" d="m410.031 276.39 20.739-11.964v38.879L410.03 315.27zm0 0" data-original="#ededed" class=""></path><path fill="#2e373d" d="M506.41 30.043c0-6.695-4.07-14.465-9.09-17.363-2.21-1.278-4.207-1.336-5.785-.496-.242.129-.492.238-.71.41L453.968 33.82 465.8 58.922l36.64-21.164v-.004c2.395-.797 3.97-3.555 3.97-7.711zm0 0" data-original="#2e373d"></path><path fill="#2e373d" d="M468.773 51.715c0 6.691-4.066 9.765-9.086 6.867-5.019-2.895-9.085-10.668-9.085-17.36s4.066-9.769 9.086-6.87c5.019 2.898 9.085 10.671 9.085 17.363zm0 0" data-original="#2e373d"></path><path fill="#63dbff" d="M386.688 125.559a68.839 68.839 0 0 1 34.421-59.618l6.996-4.3c10.153-5.864 21.72-4.371 29.973 1.738l7.723-4.457-.008-.012c9.605-6.148-4-31.918-12.727-24.523v-.004l-6.074 3.504a32.975 32.975 0 0 1-32.93.023l-.011.012c-7.633-3.594-16.91-3.781-25.258 1.035-30.406 16.523-35.398 52.656-64.465 69.207-9.351 4.992 1.02 28.875 10.906 25.57v.004c4.137-2.39 8.274-4.777 12.41-7.168a32.347 32.347 0 0 1 32.426.051l10.422 6.059c-2.238-1.504-3.804-4.035-3.804-7.121zm0 0" data-original="#63dbff" class=""></path><path fill="#2e373d" d="M339.203 126.023c0-6.691-4.07-14.464-9.09-17.363-2.21-1.277-4.21-1.336-5.785-.496l-.004.004c-.238.129-37.148 21.394-37.148 21.394-2.285.88-3.781 3.59-3.781 7.641 0 6.692 4.066 14.465 9.085 17.363 2.516 1.45 4.79 1.403 6.434.153l36.32-20.977v-.004c2.395-.8 3.97-3.558 3.97-7.715zm0 0" data-original="#2e373d"></path><path fill="#627681" d="M301.566 147.695c0 6.692-4.066 9.766-9.086 6.871-5.02-2.898-9.085-10.671-9.085-17.363s4.066-9.77 9.085-6.871c5.02 2.898 9.086 10.672 9.086 17.363zm0 0" data-original="#627681"></path><path fill="#2e373d" d="M330.117 161.016c-23.238-2.7 22.028-44.16 26.32-46.711 3.68-2.188 5.852-6.188 10.59-2.043 5.93 5.183-7.316 13.425-9.957 15.89-6.636 6.192-19.765 15.996-22.004 25.453 1.383 3.329-1.386 7.41-4.949 7.41-1.726 0 1.028 0 0 0zM450.605 72.766c-8.878 0-3.414-8.68-.18-11.18 3.99-3.082 11.22-4.856 15.919-6.61 10.41-3.878 25.183-10.054 36.543-7.433 3.855.89 12.207 4.133 7.918 9.715-2.836 3.695-10.504.547-14.672.695-7.38.262-15.574 3.469-22.473 5.871-6.844 2.383-15.98 8.942-23.055 8.942zm0 0" data-original="#2e373d"></path><path fill="#cecece" d="M386.688 125.559c0 6.629 7.175 10.773 12.917 7.457l63.18-36.739a12.658 12.658 0 0 0 6.328-10.957c0-21.047-22.785-34.199-41.008-23.68l-6.996 4.301a68.839 68.839 0 0 0-34.422 59.618zm0 0" data-original="#cecece" class=""></path><path fill="#ededed" d="M441.73 67.406c8.618 0 17.915 6.848 17.915 17.914 0 1.133-.61 2.192-1.622 2.774l-61.847 35.965c.523-20.57 11.793-39.598 29.89-50.051 4.907-3.02 9.63-6.602 15.664-6.602" data-original="#ededed" class=""></path></g></svg>
