<svg xmlns="http://www.w3.org/2000/svg" version="1.1" xmlns:xlink="http://www.w3.org/1999/xlink" xmlns:svgjs="http://svgjs.com/svgjs" width="512" height="512" x="0" y="0" viewBox="0 0 512 512" style="enable-background:new 0 0 512 512" xml:space="preserve" class=""><g><path d="m498.2 220.667-85.296-14.216-41.29-107.355h-99.097c-9.122 0-16.516 7.395-16.516 16.516v90.89H8.258A8.257 8.257 0 0 0 0 214.76v115.613c0 9.122 7.396 16.517 16.518 16.516l487.225-.051A8.258 8.258 0 0 0 512 338.58V236.958a16.514 16.514 0 0 0-13.8-16.291z" style="" fill="#ffdc64" data-original="#ffdc64"></path><path d="M0 305.598h512v33.032a8.258 8.258 0 0 1-8.258 8.258H16.516C7.395 346.889 0 339.493 0 330.371v-24.773z" style="" fill="#ffc850" data-original="#ffc850"></path><path d="M181.147 346.871c-4.096-37.145-35.555-66.047-73.792-66.047-38.241 0-69.705 28.911-73.794 66.063l147.586-.016zM503.211 346.871c-4.096-37.145-35.555-66.047-73.792-66.047-38.241 0-69.705 28.911-73.794 66.063l147.586-.016z" style="" fill="#e1a546" data-original="#e1a546"></path><path d="M289.032 239.534H512v-2.576a16.515 16.515 0 0 0-13.801-16.291l-84.99-14.165H289.032c-9.122 0-16.516 7.395-16.516 16.516 0 9.121 7.395 16.516 16.516 16.516z" style="" fill="#fff082" data-original="#fff082"></path><circle cx="429.42" cy="355.099" r="57.806" style="" fill="#5b5d6e" data-original="#5b5d6e"></circle><circle cx="429.42" cy="355.099" r="32.981" style="" fill="#c7cfe2" data-original="#c7cfe2"></circle><circle cx="429.42" cy="355.099" r="16.465" style="" fill="#afb9d2" data-original="#afb9d2"></circle><circle cx="107.36" cy="355.099" r="57.806" style="" fill="#5b5d6e" data-original="#5b5d6e"></circle><circle cx="107.36" cy="355.099" r="32.981" style="" fill="#c7cfe2" data-original="#c7cfe2"></circle><path d="M478.968 247.792v16.516c0 9.122 7.395 16.516 16.516 16.516H512v-41.29h-24.774a8.257 8.257 0 0 0-8.258 8.258z" style="" fill="#fffabe" data-original="#fffabe"></path><circle cx="107.36" cy="355.099" r="16.465" style="" fill="#afb9d2" data-original="#afb9d2"></circle><path d="M379.871 115.663h-99.097a8.256 8.256 0 0 1-8.258-8.258 8.256 8.256 0 0 1 8.258-8.258h99.097a8.256 8.256 0 0 1 8.258 8.258 8.256 8.256 0 0 1-8.258 8.258z" style="" fill="#fff082" data-original="#fff082"></path><path d="M313.806 206.451h99.097l-28.586-74.323h-78.769a8.258 8.258 0 0 0-8.258 8.258v49.548c0 9.122 7.395 16.517 16.516 16.517z" style="" fill="#00d7ff" data-original="#00d7ff" class=""></path><path d="m390.69 148.695-6.353-16.516h-79.041c-4.437.141-8.006 3.736-8.006 8.207v8.309h93.4z" style="" fill="#00c3ff" data-original="#00c3ff"></path><path d="m244.052 346.865 28.199-.003c-8.996-.145-16.251-7.459-16.251-16.489V206.501h-16.516v123.871c0 6.038 1.739 11.623 4.568 16.493z" style="" fill="#e1a546" data-original="#e1a546"></path><path d="M214.71 239.534H24.774a8.258 8.258 0 0 1-8.258-8.258 8.258 8.258 0 0 1 8.258-8.258H214.71a8.259 8.259 0 0 1 0 16.516z" style="" fill="#fff082" data-original="#fff082"></path></g></svg>
