<svg xmlns="http://www.w3.org/2000/svg" version="1.1" xmlns:xlink="http://www.w3.org/1999/xlink" xmlns:svgjs="http://svgjs.com/svgjs" width="512" height="512" x="0" y="0" viewBox="0 0 50 50" style="enable-background:new 0 0 512 512" xml:space="preserve" class=""><g><path fill="#111d33" d="M12.957 29.883c-.004.948-.338 1.616-.88 1.932l-1.91 1.111c.541-.316.88-.984.88-1.937.005-1.914-1.336-4.244-3.003-5.206-.84-.483-1.598-.528-2.149-.208l1.91-1.11c.551-.317 1.31-.276 2.145.211 1.666.962 3.012 3.288 3.007 5.207zM32.641 41.098c-.004.948-.338 1.616-.88 1.933l-1.91 1.11c.542-.316.88-.984.88-1.937.005-1.914-1.336-4.244-3.002-5.206-.84-.483-1.599-.528-2.15-.208l1.91-1.11c.551-.317 1.31-.276 2.145.212 1.666.961 3.012 3.287 3.007 5.206z" data-original="#111d33" class=""></path><path fill="#e9e7fc" d="M1 23.61c0 .128.07.28.179.378l3.53 3.251.816.752c.182.172.367.306.556.414l5.492 3.17 12.851 7.42 6.13 3.542.697.4 1.064.617c.533.307 1.035.287 1.328-.054a2.84 2.84 0 0 0 .35-.586c.826-1.853-.343-4.36-1-5.536a3.035 3.035 0 0 0-.866-.997l-5.681-4.037a2.29 2.29 0 0 1-.603-.67l-4.303-7.066a2.156 2.156 0 0 0-.728-.748L4.64 14.523c-.394-.229-.762-.188-.95.105l-.132.208L9.04 18c.405.236.597.92.294 1.058l-2.029 1.45c-.39.174-.9.11-1.425-.193l-4.225-2.44.074-.114 1.759-2.813-1.338 2.099-.074.114-.398.62a1.181 1.181 0 0 0-.162.64c-.3.763-.161 2.196-.01 3.65 0 .158-.114.222-.252.141-.142-.08-.25-.01-.25.145z" data-original="#e9e7fc"></path><path fill="#dedffb" d="M6.213 26.726a6.861 6.861 0 0 1 2.41-5.059l-.163-.193a7.117 7.117 0 0 0-2.5 5.247zM22.847 37.35l.203.153a7.817 7.817 0 0 0 1.435-3.37 7.77 7.77 0 0 0-.07-3.06l-.247.058a7.484 7.484 0 0 1 .078 2.911 7.659 7.659 0 0 1-1.399 3.309zM13.95 32.01a19.95 19.95 0 0 1 1.15-6.267l-.237-.084a20.21 20.21 0 0 0-1.165 6.346z" data-original="#dedffb"></path><path fill="#e9e7fc" d="m3.485 14.95-1.757 2.81 1.477.854 1.812-2.78z" data-original="#e9e7fc"></path><path fill="#e9e7fc" d="m3.205 18.614 1.812-2.78-1.532-.884.072-.112 5.481 3.165c.407.234.596.918.294 1.056l-2.027 1.449c-.393.177-.899.112-1.426-.192l-4.225-2.44.074-.115zm2.674 1.544c.493.284.97.351 1.336.182l2.027-1.45c.117-.049.12-.21.083-.343a.692.692 0 0 0-.287-.391l-3.754-2.168-1.814 2.779z" data-original="#e9e7fc"></path><path fill="#e9e7fc" d="M5.284 15.988 3.47 18.767l2.41 1.39c.492.285.968.352 1.335.183l2.027-1.45c.117-.049.12-.21.083-.343a.692.692 0 0 0-.287-.391z" data-original="#e9e7fc"></path><path fill="#111d33" d="m24.638 30.93-3.854-6.173a.419.419 0 0 0-.146-.141L10.536 18.81a.794.794 0 0 0-.398-.115.595.595 0 0 0-.431.18l-.018.017-1.604 2.21c-.12.137-.17.332-.142.551.042.341.26.686.54.859l15.59 9.002a.419.419 0 0 0 .565-.585z" data-original="#111d33" class=""></path><path fill="#1d2943" d="M24.282 31.234a.082.082 0 0 0 .07-.125l-3.853-6.173a.08.08 0 0 0-.029-.028l-10.102-5.805a.464.464 0 0 0-.23-.07.257.257 0 0 0-.19.077l-1.59 2.19a.378.378 0 0 0-.081.312c.03.242.187.494.382.614l15.583 8.997a.08.08 0 0 0 .04.01z" data-original="#1d2943"></path><path fill="#f3f1fc" d="m21.54 24.61 14.724-8.557c-.197-.324-.457-.59-.728-.747l-14.724 8.556c.271.157.531.423.729.747z" data-original="#f3f1fc" class=""></path><path fill="#f3f1fc" d="m25.841 31.673 14.724-8.557-4.3-7.063-14.724 8.556z" data-original="#f3f1fc" class=""></path><path fill="#f3f1fc" d="m26.445 32.343 14.723-8.556a2.26 2.26 0 0 1-.603-.67L25.84 31.672c.165.273.378.51.604.67z" data-original="#f3f1fc" class=""></path><path fill="#f3f1fc" d="M32.128 36.382c5.709-.719 12.01-4.911 14.724-8.556l-5.684-4.04-14.723 8.557z" data-original="#f3f1fc" class=""></path><path fill="#f3f1fc" d="M32.127 36.38c.333.237.637.587.866.998.73 1.304 2.089 4.252.65 6.122l14.724-8.555c1.095-1.425.566-3.48-.07-4.953a13.656 13.656 0 0 0-.58-1.172 4.917 4.917 0 0 0-.138-.226 3.005 3.005 0 0 0-.728-.768zM3.874 14.449c.199-.118.475-.094.765.074l16.173 9.337 14.725-8.555-16.174-9.337C15.6 4.88 8.905 8.762 6.152 11.578c-.886.883-1.665 1.847-2.278 2.871z" data-original="#f3f1fc" class=""></path><path fill="#111d33" d="m22.473 24.848 3.34 5.485c.185.3.501.502.855.516 3.36.148 11.524-4.502 12.797-7.366.142-.32.111-.69-.07-.99l-3.363-5.526c-2.274 2.76-7.2 5.364-13.559 7.88z" data-original="#111d33" class=""></path><g fill="#1d2943"><path d="m22.966 25.012 3.133 5.146a.74.74 0 0 0 .583.356h.145c1.724 0 4.547-1.141 7.07-2.622a28.11 28.11 0 0 0 1.771-1.125c.578-.398 1.11-.805 1.585-1.208.923-.785 1.61-1.554 1.904-2.214a.718.718 0 0 0-.052-.676l-.139-.233-2.983-4.898c-.676.743-1.548 1.487-2.627 2.245-1.038.723-2.26 1.456-3.68 2.194-.63.335-1.3.666-2.013 1.001-.67.32-1.378.64-2.121.96h-.005c-.816.356-1.667.713-2.57 1.074zM1 23.611c0 .128.07.28.179.378l3.53 3.251.816.751c.182.172.367.307.556.415l5.492 3.17 12.851 7.42 6.13 3.541.697.401 1.064.617c.533.306 1.035.286 1.328-.054.145-.185.26-.384.35-.586.36-.812-3.44-2.618-3.44-2.618l-6.129-3.542-12.85-7.42-5.493-3.17a2.905 2.905 0 0 1-.556-.414l-.815-.752-3.205-2.951v.023c0 .159-.114.223-.252.142-.142-.081-.25-.01-.25.145z" fill="#1d2943" data-original="#1d2943"></path><path d="m30.553 42.537 1.419.819.01.007c.525.34 1.017.768 1.125.906.151.206.741.226 1.082.03 5.153-2.277 9.754-4.74 13.17-7.604.341-.2.678-.57.887-.984.226-.435.34-.812.39-1.028l-1.202.694c-.492.283-.94.347-1.257.175-.313-.168-.761-.104-1.253.18l-7.834 4.52c-.489.284-.977.762-1.361 1.335s-1.247.769-1.739 1.052l-.003.293c0-.007.003-.01.006-.017-.808-.593-1.624-1.19-2.436-1.783-.131-.098-.28-.195-.438-.172-.25.04-.347.344-.39.593-.058.327-.119.657-.176.984z" fill="#1d2943" data-original="#1d2943"></path></g><path fill="#111d33" d="M24.384 38.37c0 .205.013.414.04.626l6.13 3.541.697.401a3.94 3.94 0 0 0 .04-.58c.007-2.193-1.533-4.861-3.443-5.963-1.907-1.102-3.457-.22-3.464 1.974zM4.706 27.008c0 .077 0 .155.004.232l.815.751c.182.172.367.307.556.415l5.492 3.17a3.94 3.94 0 0 0 .04-.579c.007-2.193-1.532-4.862-3.443-5.964-1.907-1.102-3.457-.219-3.464 1.975z" data-original="#111d33" class=""></path><path fill="#febc1f" d="M37.515 36.029s.914 1.363.781 1.629-4.454 1.313-5.634.565c-1.18-.748-1.18-2.377-1.18-2.377s3.042 1.014 6.033.183zM46.336 31.02l.003.007v.003l.687 1.873s1.058-.96 1.227-1.684c.08-.455.094-.863.044-1.227a13.656 13.656 0 0 0-.58-1.172 4.917 4.917 0 0 0-.138-.226c-.047 1.098-1.132 2.311-1.237 2.426z" data-original="#febc1f"></path><path fill="#dedffb" d="M45.996 31.263s.749 1.622.237 2.403c-.512.781-6.538 4.142-6.717 4.157-.18.016-1.485-1.523-1.479-1.953s2.767-.68 7.959-4.607z" data-original="#dedffb"></path><path fill="#ffffff" d="M39.15 39.857a.485.485 0 0 0-.215.341l-.1.996c-.014.144.074.217.2.161.926-.41 1.857-.885 2.787-1.423s1.861-1.136 2.787-1.796c.124-.087.213-.263.198-.39-.035-.292-.07-.584-.107-.876-.013-.118-.107-.155-.214-.093a27.765 27.765 0 0 1-5.335 3.08z" data-original="#ffffff"></path><path fill="#e9e7fc" d="m39.79 25.772-.46.395c1.769.947 6.133 4.036 6.363 4.198-.083-1.155-6.048-4.463-5.903-4.593zM29.309 31.824c.224-.084 5.915 3.382 7.91 3.434-.28-.134-5.598-2.672-7.23-3.698z" data-original="#e9e7fc"></path><path fill="#111d33" d="M17.083 22.584s-2.551 3.176-2.637 3.16-1.331-.76-1.331-.76l3.084-2.908z" data-original="#111d33" class=""></path><path fill="#f45170" d="M1.404 21.043v-.01a.636.636 0 0 1 .856-.607.19.19 0 0 0 .206-.053c.212-.236.465-.435.74-.584-.32-.12-.643-.245-.93-.438a1.706 1.706 0 0 1-.437-.414 1.32 1.32 0 0 1-.135-.23c-.034-.076-.044-.184-.094-.252-.135-.178-.253.138-.297.243a2.41 2.41 0 0 0-.192 1.088c.027.458.014.886.283 1.257z" data-original="#f45170"></path><path fill="#1d2943" d="m17.659 6.847-.002.231.436-.253v-.231c0-.206.075-.352.194-.422l-.437.253c-.117.07-.191.216-.191.422z" data-original="#1d2943"></path><path fill="#4c5c75" d="M18.32 5.968c4.601 2.885 9.618 5.756 14.927 8.617.605.35 1.096 1.199 1.093 1.895v.228l.435-.253.002-.229c0-.696-.49-1.544-1.094-1.893L18.757 5.714c-.305-.175-.583-.191-.783-.076l-.435.254c.2-.116.476-.1.781.076z" data-original="#4c5c75" class=""></path><path fill="#111d33" d="M18.32 5.968c-.604-.35-1.099-.069-1.101.626v.23l.439.254v-.23c.002-.417.297-.587.661-.377l14.927 8.618c.363.21.658.72.657 1.138l-.001.23.438.252v-.23c.003-.695-.488-1.544-1.093-1.893z" data-original="#111d33" class=""></path><path fill="#4c5c75" d="M18.32 5.968c4.601 2.885 9.618 5.756 14.927 8.617.605.35 1.096 1.199 1.093 1.895v.228l.435-.253.002-.229c0-.696-.49-1.544-1.094-1.893L18.757 5.714c-.305-.175-.583-.191-.783-.076l-.435.254c.2-.116.476-.1.781.076z" data-original="#4c5c75" class=""></path><path fill="#111d33" d="M18.32 5.968c-.604-.35-1.099-.069-1.101.626v.23l.439.254v-.23c.002-.417.297-.587.661-.377l14.927 8.618c.363.21.658.72.657 1.138l-.001.23.438.252v-.23c.003-.695-.488-1.544-1.093-1.893z" data-original="#111d33" class=""></path><path fill="#1d2943" d="m5.457 13.92-.002.231.437-.253v-.23c0-.207.074-.353.194-.423l-.437.253c-.118.07-.192.217-.192.423z" data-original="#1d2943"></path><path fill="#4c5c75" d="m6.119 13.041 14.926 8.617c.606.35 1.096 1.199 1.094 1.895v.229l.435-.254.002-.228c0-.697-.49-1.545-1.094-1.894L6.555 12.788c-.305-.176-.583-.192-.782-.077l-.435.254c.2-.116.476-.1.78.076z" data-original="#4c5c75" class=""></path><path fill="#111d33" d="M6.12 13.041c-.606-.35-1.1-.069-1.102.626l-.001.23.44.254v-.23c.001-.417.297-.587.66-.377l14.927 8.618c.363.21.658.72.657 1.138v.23l.437.252.001-.23c.002-.695-.488-1.544-1.093-1.893z" data-original="#111d33" class=""></path><path fill="#4c5c75" d="M27.726 37c1.667.961 3.012 3.29 3.006 5.205-.005 1.915-1.359 2.686-3.025 1.724-1.664-.96-3.011-3.29-3.006-5.206.006-1.914 1.362-2.684 3.025-1.724z" data-original="#4c5c75" class=""></path><path fill="#ffffff" d="M29.964 41.825c0 1.462-.996 2.024-2.254 1.301-1.258-.726-2.237-2.444-2.24-3.88.01-1.428 1.004-2 2.25-1.284 1.253.723 2.24 2.428 2.244 3.863zm-2.9-2.337c-.126-.371-.26-.745-.39-1.117-.004-.01-.013-.018-.028-.042a.658.658 0 0 0-.462.346c-.072.129-.119.287-.168.442-.027.075-.004.118.075.163l.775.432c.115.063.247-.078.199-.224m-.475 1.928c.008.013.02.022.043.046.065-.096.125-.19.187-.283.075-.118.15-.236.221-.36.055-.09-.056-.373-.175-.45-.148-.097-.735-.452-.806-.498a.242.242 0 0 0-.018-.011c-.051-.03-.076-.012-.064.06.088.514.278 1.013.612 1.496m1.583-2.606a2.842 2.842 0 0 0-.439-.319 1.59 1.59 0 0 0-.547-.204c-.068-.01-.073.023-.04.104l.402 1.017c.03.076.106.151.182.195.069.04.137.053.17.017.164-.183.32-.378.492-.582-.084-.089-.15-.167-.22-.228m.239 2.798c.12.347.248.69.369 1.034.019.056.038.087.062.1.019.012.04.01.065.001.267-.107.44-.33.533-.662.053-.189.058-.209-.098-.299a5.258 5.258 0 0 0-.155-.088l-.198-.115v.018l-.194-.112a11.976 11.976 0 0 0-.193-.11c-.117-.066-.244.085-.191.233m1.05-.602a3.74 3.74 0 0 0-.548-1.332c-.018-.027-.038-.046-.063-.078-.082.115-.16.224-.237.335l-.19.289c-.052.076.05.376.157.448.292.189.584.372.896.572-.004-.08 0-.154-.015-.234m-2.067 1.36c.103.083.207.154.31.213.175.101.349.17.521.209.024.006.045.003.07.007.058.009.066-.025.032-.108-.131-.319-.26-.64-.392-.96a.486.486 0 0 0-.196-.237c-.079-.046-.159-.049-.204.01-.14.179-.282.355-.422.531-.006.008-.01.017-.027.05.109.104.207.206.308.285m.672-1.634a.76.76 0 0 0-.347-.595l-.002-.001c-.19-.109-.348-.018-.344.204a.74.74 0 0 0 .37.604c.159.092.322.017.323-.212m-.6.132h-.001c-.026-.016-.056.002-.106.006.049.068.077.122.1.135h.002c.025.012.049-.019.071-.03-.02-.038-.042-.095-.066-.11m.075-.974c-.023-.042-.042-.1-.067-.118l-.003-.002c-.025-.014-.055.005-.104.013.05.064.077.114.105.13.022.011.045-.016.069-.023m.65.92c.047.064.07.114.097.13.022.013.063-.007.06-.032a.22.22 0 0 0-.058-.112l-.003-.002c-.022-.013-.05.008-.097.015m-1.007-.475c.037-.03.07-.04.07-.063a.225.225 0 0 0-.063-.114c-.017-.01-.058.004-.058.027-.004.028.024.078.051.15m.905-.127c-.022-.04-.042-.095-.067-.116a.044.044 0 0 0-.004-.003c-.024-.014-.052.006-.077.01v.036c.026.033.053.081.078.095l.001.001c.024.014.045-.012.07-.023m-.155.984v.037c.026.034.052.082.076.096h.002c.022.012.06-.006.06-.032a.186.186 0 0 0-.062-.107c-.024-.014-.05.002-.076.006" data-original="#ffffff"></path><path fill="#4c5c75" d="M8.042 25.784c1.667.962 3.011 3.292 3.006 5.206-.005 1.915-1.359 2.686-3.025 1.724-1.664-.96-3.012-3.291-3.006-5.206.005-1.915 1.362-2.684 3.025-1.724z" data-original="#4c5c75" class=""></path><path fill="#ffffff" d="M10.323 30.599c0 1.461-.996 2.024-2.254 1.3-1.258-.725-2.237-2.443-2.24-3.878.01-1.429 1.004-2.002 2.25-1.285 1.253.723 2.24 2.428 2.244 3.863zm-2.9-2.337c-.126-.372-.26-.745-.39-1.117-.004-.01-.013-.019-.028-.042a.658.658 0 0 0-.462.345c-.072.13-.119.288-.168.443-.027.075-.004.117.075.163l.775.431c.115.063.247-.078.199-.223m-.475 1.928c.008.013.02.022.043.046l.187-.284c.075-.118.15-.235.221-.359.055-.09-.056-.374-.175-.45-.148-.097-.735-.452-.806-.498a.242.242 0 0 0-.018-.012c-.051-.03-.076-.011-.064.06.089.515.278 1.014.612 1.497m1.583-2.607a2.842 2.842 0 0 0-.439-.318 1.59 1.59 0 0 0-.547-.204c-.068-.01-.073.022-.04.104l.402 1.017c.03.076.107.15.182.194.07.04.138.054.17.018.164-.183.32-.379.492-.582-.084-.09-.15-.167-.22-.229m.239 2.799c.121.346.248.69.369 1.034.019.056.038.087.062.1.019.011.04.01.065.001.267-.107.44-.33.533-.662.053-.19.058-.21-.098-.299a5.215 5.215 0 0 0-.155-.088l-.198-.115v.017l-.194-.112a12.004 12.004 0 0 0-.193-.11c-.117-.066-.244.085-.191.234m1.05-.602a3.74 3.74 0 0 0-.548-1.332c-.018-.027-.038-.046-.063-.078-.082.115-.16.223-.237.335-.063.096-.126.193-.19.288-.052.077.05.377.157.449.292.189.584.372.896.572-.004-.08 0-.155-.014-.234m-2.068 1.36c.103.083.207.154.31.213.175.101.349.17.521.209.024.005.045.003.07.006.058.01.066-.024.032-.107l-.392-.961a.486.486 0 0 0-.196-.236c-.079-.046-.158-.049-.204.01-.14.179-.282.354-.422.531-.006.008-.01.017-.027.05.109.104.207.205.308.285m.672-1.635a.76.76 0 0 0-.347-.594l-.002-.002c-.19-.108-.348-.017-.344.204a.74.74 0 0 0 .346.59l.003.002.02.013c.16.092.323.017.324-.213m-.6.133-.001-.001c-.026-.015-.056.003-.106.006.049.068.077.122.1.136h.002c.025.012.049-.02.071-.03-.02-.038-.042-.096-.065-.11m.074-.975c-.022-.042-.042-.1-.067-.117l-.003-.002c-.025-.015-.055.005-.104.013.05.064.077.113.105.13.022.01.045-.017.069-.024m.65.92c.047.064.07.115.097.13.022.013.063-.007.06-.03a.22.22 0 0 0-.058-.114l-.003-.001c-.022-.013-.05.008-.097.015m-1.007-.475c.037-.03.07-.04.07-.064a.225.225 0 0 0-.063-.113c-.017-.01-.058.003-.058.026-.004.028.024.078.051.15m.905-.126c-.022-.04-.042-.095-.067-.116a.044.044 0 0 0-.004-.003c-.024-.014-.052.005-.077.01v.036c.026.032.053.08.078.095l.001.001c.024.014.045-.013.07-.023m-.155.984v.037c.026.034.052.082.076.096h.002c.022.012.06-.006.06-.032a.186.186 0 0 0-.062-.107c-.024-.014-.05.001-.076.006" data-original="#ffffff"></path><g fill="#fff"><ellipse cx="36.36" cy="37.164" rx=".571" ry=".54" transform="rotate(-86.5 36.344 37.169)" fill="#ffffff" data-original="#ffffff"></ellipse><ellipse cx="47.208" cy="31.371" rx=".422" ry=".571" transform="rotate(-5.4 47.204 31.371)" fill="#ffffff" data-original="#ffffff"></ellipse><ellipse cx="47.793" cy="30.214" rx=".342" ry=".462" transform="rotate(-5.4 47.79 30.208)" fill="#ffffff" data-original="#ffffff"></ellipse><ellipse cx="33.974" cy="37.344" rx=".663" ry=".737" transform="rotate(-86.56 33.979 37.352)" fill="#ffffff" data-original="#ffffff"></ellipse></g><g fill="#4c5c75"><path d="m29.676 21.977 7.577 3.582c.923-.785 1.61-1.554 1.904-2.214a.718.718 0 0 0-.052-.676l-.139-.233-5.61-2.653c-1.038.723-2.26 1.456-3.68 2.194zM25.542 23.938l8.356 3.954a28.11 28.11 0 0 0 1.77-1.125l-8.005-3.789c-.67.32-1.378.64-2.121.96z" fill="#4c5c75" data-original="#4c5c75" class=""></path></g></g></svg>
