<svg xmlns="http://www.w3.org/2000/svg" version="1.1" xmlns:xlink="http://www.w3.org/1999/xlink" xmlns:svgjs="http://svgjs.com/svgjs" width="512" height="512" x="0" y="0" viewBox="0 0 510 510" style="enable-background:new 0 0 512 512" xml:space="preserve" class=""><g><path fill="#f9de69" d="m210 112.5-90 15-90-15v-60h180z" data-original="#f9de69"></path><path fill="#535362" d="M240 112.5H0v30h60v30l15 15 15-15v-30h60v30l15 15 15-15v-30h60z" data-original="#535362"></path><path fill="#f76cff" d="M255 172.5H0v127.537l10 14-10 15.998V382.5l165 15 90-15 15-105z" data-original="#f76cff"></path><path fill="#b033ff" d="M510 382.5v-52.707l-12-12.004 12-18v-19.996l-98.926-16.487L290 172.5h-35v210l120 15zM0 382.5v11.712l71.361 17.84L75 412.5h180l15-15-15-15z" data-original="#b033ff"></path><path fill="#8d29cc" d="M255 382.5v30h180l3.638-.448L510 394.212V382.5z" data-original="#8d29cc"></path><circle cx="120" cy="397.5" r="60" fill="#535362" data-original="#535362"></circle><circle cx="120" cy="397.5" r="30" fill="#edf5ff" data-original="#edf5ff"></circle><circle cx="390" cy="397.5" r="60" fill="#474754" data-original="#474754"></circle><circle cx="390" cy="397.5" r="30" fill="#d5e8fe" data-original="#d5e8fe"></circle><path fill="#d5e8fe" d="m360 262.5-80-60h-25v60z" data-original="#d5e8fe"></path><path fill="#edf5ff" d="M30 202.5h75v60H30zM135 202.5h90v60h-90z" data-original="#edf5ff"></path><path fill="#535362" d="M225 322.5v30h30l15-15-15-15z" data-original="#535362"></path><path fill="#474754" d="M255 322.5h29.999v30H255z" data-original="#474754"></path><path fill="#ecbd2c" d="M480 299.789h30v30h-30z" data-original="#ecbd2c"></path><path fill="#bc084d" d="M0 300.039h30v30H0z" data-original="#bc084d"></path></g></svg>
