<svg xmlns="http://www.w3.org/2000/svg" version="1.1" xmlns:xlink="http://www.w3.org/1999/xlink" xmlns:svgjs="http://svgjs.com/svgjs" width="512" height="512" x="0" y="0" viewBox="0 0 59 52" style="enable-background:new 0 0 512 512" xml:space="preserve" class=""><g><g fill="none" fill-rule="nonzero"><path fill="#9fc9d3" d="M36.8 25 35 4H9L6.57 18H16c1.34-.003 2.678.107 4 .33A18.151 18.151 0 0 1 34 29h3.14z" data-original="#9fc9d3" class=""></path><path fill="#464f5d" d="M29 39c0 .34-.01.67-.04 1a12.563 12.563 0 0 1-1.24 4.61c-.21.452-.45.89-.72 1.31-.09.14-.18.28-.28.42a13.205 13.205 0 0 1-3.37 3.38 14.2 14.2 0 0 1-1.73 1.01A12.8 12.8 0 0 1 17 51.96c-.33.03-.66.04-1 .04s-.67-.01-1-.04a12.8 12.8 0 0 1-4.61-1.23 12.949 12.949 0 0 1-1.73-1 13.254 13.254 0 0 1-4.39-5.11A12.645 12.645 0 0 1 3.05 40 8.269 8.269 0 0 1 3 39c0-.34.01-.67.04-1a12.563 12.563 0 0 1 1.24-4.61c.286-.608.624-1.19 1.01-1.74a13.049 13.049 0 0 1 3.37-3.38c.551-.376 1.13-.71 1.73-1A12.75 12.75 0 0 1 15 26.04c.33-.03.66-.04 1-.04.334-.004.668.013 1 .05a12.645 12.645 0 0 1 6.35 2.23 12.858 12.858 0 0 1 3.37 3.37A12.8 12.8 0 0 1 28.96 38c.03.33.04.66.04 1zM59 44a8 8 0 0 1-9 7.94 7.954 7.954 0 0 1-3.9-1.63 7.529 7.529 0 0 1-1.42-1.4A7.976 7.976 0 0 1 43 44a6.632 6.632 0 0 1 .07-1 7.812 7.812 0 0 1 1.62-3.9.359.359 0 0 1 .07-.1 7.225 7.225 0 0 1 1.34-1.31A7.825 7.825 0 0 1 51 36c.335-.002.669.021 1 .07a7.812 7.812 0 0 1 3.9 1.62c.534.405 1.011.88 1.42 1.41.168.206.322.423.46.65A8.067 8.067 0 0 1 58.94 43c.04.332.06.666.06 1z" data-original="#464f5d"></path><path fill="#a5a5a4" d="M44.76 39A7.963 7.963 0 0 0 43 44v3a2.006 2.006 0 0 1-2 2H29a2.006 2.006 0 0 1-2-2v-1.08A12.878 12.878 0 0 0 29 39z" data-original="#a5a5a4"></path><path fill="#4fba6f" d="M59 31v2a15.8 15.8 0 0 1-1.22 6.75A8 8 0 0 0 44.76 39H38l-.86-10-.34-4H53a5.99 5.99 0 0 1 5.91 5c.06.33.09.665.09 1z" data-original="#4fba6f"></path><path fill="#7f8284" d="M39 43a1 1 0 0 1-1 1h-2v5h-2v-5h-2a1 1 0 0 1 0-2h6a1 1 0 0 1 1 1z" data-original="#7f8284"></path><path fill="#ffffff" d="M32 10a1 1 0 0 1-.707-.293l-1-1a1 1 0 1 1 1.414-1.414l1 1A1 1 0 0 1 32 10zM32 15a1 1 0 0 1-.707-.293l-6-6a1 1 0 1 1 1.414-1.414l6 6A1 1 0 0 1 32 15z" data-original="#ffffff" class=""></path><g fill="#2c2f38"><path d="M17 26.05V28a1 1 0 0 1-2 0v-1.96c.33-.03.66-.04 1-.04.334-.004.668.013 1 .05zM23.35 28.28l-.98 1.69a1 1 0 1 1-1.73-1l.98-1.7c.602.292 1.18.63 1.73 1.01zM27.73 33.39l-1.7.98a1.003 1.003 0 0 1-1-1.74l1.69-.98c.383.552.72 1.134 1.01 1.74zM29 39c0 .34-.01.67-.04 1H27a1 1 0 0 1 0-2h1.96c.03.33.04.66.04 1zM27.72 44.61c-.21.452-.45.89-.72 1.31-.09.14-.18.28-.28.42l-1.69-.97a1.003 1.003 0 0 1 1-1.74zM23.35 49.72a14.2 14.2 0 0 1-1.73 1.01l-.98-1.7a1 1 0 1 1 1.73-1zM17 50v1.96c-.33.03-.66.04-1 .04s-.67-.01-1-.04V50a1 1 0 0 1 2 0zM11.37 49.03l-.98 1.7a12.949 12.949 0 0 1-1.73-1l.98-1.7a.988.988 0 0 1 1.36-.37 1 1 0 0 1 .37 1.37zM6.98 45.37l-1.7.98c-.38-.55-.718-1.128-1.01-1.73l1.71-.99a1.003 1.003 0 0 1 1 1.74zM6 39a1 1 0 0 1-1 1H3.05A8.269 8.269 0 0 1 3 39c0-.34.01-.67.04-1H5a1 1 0 0 1 1 1zM7.34 34a1 1 0 0 1-1.36.37l-1.7-.98c.286-.608.624-1.19 1.01-1.74l1.69.98A1 1 0 0 1 7.34 34zM11 30.34a1 1 0 0 1-1.36-.37l-.98-1.7c.551-.376 1.13-.71 1.73-1l.98 1.7a1 1 0 0 1-.37 1.37z" fill="#2c2f38" data-original="#2c2f38"></path></g><circle cx="16.004" cy="39" r="3" fill="#f0c419" data-original="#f0c419"></circle><circle cx="16.004" cy="39" r="4.996" fill="#f0c419" data-original="#f0c419"></circle><path fill="#2c2f38" d="M16 45a6 6 0 1 1 0-12 6 6 0 0 1 0 12zm0-10a4 4 0 1 0 0 8 4 4 0 0 0 0-8z" data-original="#2c2f38"></path><circle cx="51.004" cy="44" r="2" fill="#f0c419" data-original="#f0c419"></circle><path fill="#2c2f38" d="M52 36.07V38a1 1 0 0 1-2 0v-1.94c.332-.04.666-.06 1-.06.335-.002.669.021 1 .07zM57.32 39.1l-1.37 1.36a.978.978 0 0 1-1.41 0 1 1 0 0 1 0-1.41l1.36-1.36c.534.405 1.011.88 1.42 1.41zM59 44c0 .334-.02.668-.06 1H57a1 1 0 0 1 0-2h1.94c.04.332.06.666.06 1zM57.32 48.9a7.9 7.9 0 0 1-1.41 1.42l-1.37-1.37a1 1 0 0 1 1.41-1.41zM52 50v1.94c-.664.08-1.336.08-2 0V50a1 1 0 0 1 2 0zM47.47 48.95l-1.37 1.36a7.529 7.529 0 0 1-1.42-1.4l1.37-1.37a1.008 1.008 0 0 1 1.42 0 1 1 0 0 1 0 1.41zM46 44a1 1 0 0 1-1 1h-1.94a8.262 8.262 0 0 1-.06-1 6.632 6.632 0 0 1 .07-1H45a1 1 0 0 1 1 1zM47.47 40.46a.992.992 0 0 1-1.42 0l-1.36-1.36a.359.359 0 0 1 .07-.1 7.225 7.225 0 0 1 1.34-1.31l1.37 1.36a1 1 0 0 1 0 1.41z" data-original="#2c2f38"></path><path fill="#f9eab0" d="M59 31v1h-3a1 1 0 0 1 0-2h2.91c.06.33.09.665.09 1z" data-original="#f9eab0"></path><path fill="#4c8056" d="M38 39h-9a12.994 12.994 0 0 0-23.33-7.88 10.705 10.705 0 0 1-2.83-2.88c.706-.86 1.493-1.65 2.35-2.36A17.062 17.062 0 0 1 20 22.47v-4.14A18.151 18.151 0 0 1 34 29h3.14z" data-original="#4c8056"></path><path fill="#4fba6f" d="M20 18.33v4.14a17.062 17.062 0 0 0-14.81 3.41L6.57 18H16c1.34-.003 2.678.107 4 .33z" data-original="#4fba6f"></path><path fill="#24ae5f" d="M1 32a1 1 0 0 1-.882-1.469 17.5 17.5 0 0 1 1.95-2.931 18 18 0 0 1 29.824 2.925 1 1 0 1 1-1.765.942 16.009 16.009 0 0 0-24.3-4.819c-.808.67-1.55 1.414-2.215 2.225a15.611 15.611 0 0 0-1.728 2.592A1 1 0 0 1 1 32z" data-original="#24ae5f"></path><path fill="#24ae5f" d="M20 23a1 1 0 0 1-1-1V2a1 1 0 0 1 2 0v20a1 1 0 0 1-1 1z" data-original="#24ae5f"></path><path fill="#4fba6f" d="M38 2a1.987 1.987 0 0 1-.58 1.41A1.961 1.961 0 0 1 36 4H8a2.006 2.006 0 0 1-2-2 2.015 2.015 0 0 1 2-2h28a2 2 0 0 1 2 2z" data-original="#4fba6f"></path></g></g></svg>
