<svg xmlns="http://www.w3.org/2000/svg" version="1.1" xmlns:xlink="http://www.w3.org/1999/xlink" xmlns:svgjs="http://svgjs.com/svgjs" width="512" height="512" x="0" y="0" viewBox="0 0 512 512.001" style="enable-background:new 0 0 512 512" xml:space="preserve" class=""><g><path fill="#23292e" d="m121.25 334.438-45.71-32.16c-6.728-16.805-17.927-31.743-30.618-39.067-20.567-11.879-37.242.726-37.242 28.152 0 27.43 16.675 59.29 37.242 71.164 9.75 5.63 18.621 5.75 25.262 1.407zM371.852 479.438 326.14 447.28c-6.723-16.808-17.926-31.742-30.618-39.07-20.566-11.875-37.242.73-37.242 28.156s16.676 59.285 37.242 71.16c9.75 5.63 18.622 5.75 25.262 1.41zm0 0" data-original="#23292e"></path><path fill="#ffd613" d="M510.383 343.629c0-4.957-1.797-9.746-5.055-13.48l-32.02-36.72h-.003L448.71 185.82a66.824 66.824 0 0 0-31.281-41.218L171.398 2.398c-6.609-3.816-14.14-2.824-19.492 1.18L11.691 86.094C5.094 88.5 0 94.734 0 102.742V280.23c0 8.625 4.605 16.59 12.078 20.895l331.824 191.188a93.345 93.345 0 0 0 46.606 12.464c6.8 0 13.48-1.793 19.367-5.195l88.953-51.453a23.144 23.144 0 0 0 11.555-20.035zm0 0" data-original="#ffd613" class=""></path><path fill="#c98000" d="m503.09 361.766-3.04 1.757-100.136 56.239.043.07a36.283 36.283 0 0 1-8.93 1.129h-15.886a21.117 21.117 0 0 1-15.914-7.234l-25.477-29.215-5.29-6.063-24.597-107.61a66.818 66.818 0 0 0-31.277-41.218L26.555 87.418C14.754 80.602 0 89.113 0 102.742V280.23c0 8.625 4.605 16.59 12.078 20.899l331.824 191.184a93.345 93.345 0 0 0 46.606 12.464c6.8 0 13.48-1.793 19.367-5.195l88.953-51.453a23.144 23.144 0 0 0 11.555-20.035V349.12a14.61 14.61 0 0 1-7.293 12.645zm0 0" data-original="#c98000"></path><g fill="#23292e"><path d="m12.078 301.129 6.461 3.723c2.973-12.895-2.605-33.82-2.605-33.82L0 263.558v16.671c0 8.625 4.605 16.59 12.078 20.899zM292.16 420.96 35.895 272.626l.855 21.371L291.434 441.04zM510.383 428.094V417.82l-83.371 48.133a71 71 0 0 1-71.012 0l-30.527-17.621v33.363l18.43 10.618a93.345 93.345 0 0 0 46.183 12.464c6.973.032 13.84-1.757 19.879-5.25l88.863-51.398a23.152 23.152 0 0 0 11.555-20.035zm0 0" fill="#23292e" data-original="#23292e"></path></g><path fill="#ffffff" d="m503.09 361.766-3.04 1.757v29.868c0 5.3 5.743 8.617 10.333 5.964v-50.234a14.61 14.61 0 0 1-7.293 12.645zM399.914 419.758h-.004a38.653 38.653 0 0 1-9.508 1.203h-15.261a21.12 21.12 0 0 1-15.914-7.238l-9.48-10.871 8.745 36.14c3.43 14.164 16.11 24.14 30.68 24.14 7.047 0 13.973-1.788 20.14-5.198 5.528-3.055 7.418-10.086 4.176-15.504zm0 0" data-original="#ffffff"></path><path fill="#e7c712" d="m308.629 293.43-4.762-22.59a66.824 66.824 0 0 0-31.281-41.219L26.555 87.418C14.754 80.602 0 89.113 0 102.742v11.38zm0 0" data-original="#e7c712"></path><path fill="#304e75" d="m316.5 288.887 20.277 84.683 125.918-73.91-17.222-85.238zm0 0" data-original="#304e75"></path><path fill="#2e373d" d="M332.77 479.375c0 27.426-16.676 40.031-37.247 28.156-20.566-11.875-37.242-43.734-37.242-71.164 0-27.426 16.676-40.031 37.242-28.152 20.57 11.875 37.247 43.734 37.247 71.16zm0 0" data-original="#2e373d"></path><path fill="#cecece" d="M313.836 468.445c0 13.485-8.2 19.68-18.313 13.844-10.113-5.84-18.312-21.504-18.312-34.988s8.2-19.684 18.312-13.844c10.114 5.836 18.313 21.504 18.313 34.988zm0 0" data-original="#cecece"></path><path fill="#627681" d="M305.457 463.605c0 7.317-4.45 10.676-9.934 7.508-5.484-3.168-9.93-11.664-9.93-18.976s4.446-10.676 9.93-7.508c5.485 3.168 9.934 11.664 9.934 18.976zm0 0" data-original="#627681"></path><path fill="#2e373d" d="M82.168 334.371c0 27.43-16.676 40.035-37.242 28.156-20.57-11.875-37.246-43.734-37.246-71.16 0-27.426 16.675-40.031 37.246-28.156 20.566 11.875 37.242 43.734 37.242 71.16zm0 0" data-original="#2e373d"></path><path fill="#cecece" d="M63.234 323.441c0 13.485-8.199 19.684-18.312 13.844s-18.313-21.504-18.313-34.988 8.2-19.68 18.313-13.844c10.117 5.84 18.312 21.504 18.312 34.988zm0 0" data-original="#cecece"></path><path fill="#627681" d="M54.855 318.605c0 7.313-4.445 10.672-9.933 7.508-5.484-3.168-9.93-11.664-9.93-18.976 0-7.317 4.446-10.676 9.93-7.508 5.488 3.164 9.933 11.66 9.933 18.976zm0 0" data-original="#627681"></path><path fill="#243b58" d="m302.672 308.14 13.828 64.02-56.082-32.379a68.02 68.02 0 0 1-34.016-58.91V246.25l54.145 31.457a46.555 46.555 0 0 1 22.125 30.434zm0 0" data-original="#243b58"></path><path fill="#59718b" d="m397.648 261.617 56.082 32.38-13.824-64.02c-.777-3.59-2.008-7.024-3.57-10.282l-53.168 30.7a67.872 67.872 0 0 0 14.48 11.222zm0 0" data-original="#59718b"></path><path fill="#23292e" d="m399.914 419.758 13.574 22.672c7.84 14.195 25.778 11.468 39.856 3.422l25.015-14.594c13.434-7.836 21.692-14.457 21.692-30.008v-37.727zm0 0" data-original="#23292e"></path><path fill="#e7c712" d="m336.777 373.57 63.137 46.188 100.137-56.235-37.356-63.863zm0 0" data-original="#e7c712"></path></g></svg>
