<svg xmlns="http://www.w3.org/2000/svg" version="1.1" xmlns:xlink="http://www.w3.org/1999/xlink" xmlns:svgjs="http://svgjs.com/svgjs" width="512" height="512" x="0" y="0" viewBox="0 0 468.293 468.293" style="enable-background:new 0 0 512 512" xml:space="preserve" class=""><g><path d="m86.086 162.187-23.352 7.18-.125-33.467c2.81 5.494 13.3 18.357 23.477 26.287z" style="" fill="#d15241" data-original="#d15241"></path><path d="M468.293 251.136v32.398c0 1.797-.55 3.544-1.598 4.992-1.248 1.747-3.095 2.995-5.192 3.394-15.076 3.095-30.65 3.095-46.125 3.095H46.777l-10.783-2.895-13.927-3.694C9.038 284.931.003 273.15.003 259.722v-56.259c79.072-61.001 193.086-76.126 285.536-38.388 19.169 7.837 37.439 17.721 56.409 26.157 26.008 11.581 53.264 17.522 81.118 20.367 16.074 1.647 30.7 10.034 40.035 23.162a28.361 28.361 0 0 1 5.192 16.375z" style="" fill="#e56353" data-original="#e56353"></path><path d="M38.89 211.799S17.475 217.69.003 229.82v-25.758c8.836 3.045 21.964 6.489 38.887 7.737z" style="" fill="#d15241" data-original="#d15241"></path><path d="M0 254.002h31.7v4.989H0zM152.704 225.773c-4.063 0-8.124-1.238-12.073-3.71a3.746 3.746 0 0 1 3.978-6.348c5.518 3.461 10.669 3.461 16.202 0a3.76 3.76 0 0 1 5.16 1.185 3.748 3.748 0 0 1-1.187 5.163c-3.951 2.477-8.017 3.71-12.08 3.71zM230.119 225.793c-3.893 0-7.878-.858-11.929-2.564a3.747 3.747 0 0 1-1.994-4.909 3.75 3.75 0 0 1 4.904-1.994c6.196 2.618 11.865 2.642 17.335.063a3.738 3.738 0 0 1 4.982 1.794c.88 1.872.076 4.1-1.794 4.982-3.721 1.75-7.565 2.628-11.504 2.628z" style="" fill="#2f4859" data-original="#2f4859"></path><path d="M468.093 247.592h-43.779c-12.929 0-23.412-10.483-23.412-23.412h52.365c3.894 3.245 7.388 6.988 10.283 11.232 2.496 3.643 4.093 7.837 4.543 12.18z" style="" fill="#e1e6e9" data-original="#e1e6e9"></path><path d="M415.428 292.519c0 .849 0 1.697-.05 2.496H315.74c-.05-.799-.05-1.647-.05-2.496 0-27.505 22.364-49.919 49.869-49.919s49.869 22.413 49.869 49.919z" style="" fill="#64798a" data-original="#64798a"></path><path d="M325.662 292.496c0 22.048 17.849 39.897 39.901 39.897 22.044 0 39.892-17.849 39.892-39.897s-17.849-39.895-39.892-39.895c-22.052.001-39.901 17.847-39.901 39.895z" style="" fill="#2f4859" data-original="#2f4859"></path><path d="M340.098 292.35c0 14.121 11.478 25.596 25.6 25.596 13.827 0 25.298-11.475 25.298-25.596s-11.471-25.301-25.298-25.301c-14.122 0-25.6 11.18-25.6 25.301z" style="" fill="#64798a" data-original="#64798a"></path><path d="M340.099 292.344c0 2.007.183 3.924.729 5.749 3.469-.73 7.027.274 8.943 3.559 1.825 3.194 1.005 6.936-1.459 9.491 2.738 2.555 6.022 4.472 9.674 5.658 1.003-3.377 3.832-6.023 7.575-6.023 3.741 0 6.568 2.647 7.573 6.115 3.652-1.186 6.936-3.103 9.674-5.749-2.464-2.556-3.286-6.206-1.459-9.491 1.916-3.285 5.474-4.289 8.943-3.559.546-1.825.729-3.741.729-5.749 0-1.917-.183-3.742-.639-5.476-3.467.822-7.116-.274-9.032-3.468-1.918-3.285-1.005-7.118 1.459-9.674a26.863 26.863 0 0 0-9.674-5.567c-1.094 3.468-3.832 6.114-7.573 6.114-3.743 0-6.481-2.646-7.575-6.023a26.486 26.486 0 0 0-9.765 5.567c2.556 2.646 3.375 6.388 1.551 9.582-1.825 3.103-5.566 4.198-9.035 3.468-.457 1.734-.639 3.56-.639 5.476z" style="" fill="#ebf0f3" data-original="#ebf0f3"></path><path d="M135.732 292.519c0 .849 0 1.697-.05 2.496H46.777l-10.783-2.895c.2-27.306 22.513-49.52 49.869-49.52 27.506 0 49.869 22.413 49.869 49.919z" style="" fill="#64798a" data-original="#64798a"></path><path d="M45.967 292.496c0 22.048 17.849 39.897 39.901 39.897 22.044 0 39.892-17.849 39.892-39.897s-17.849-39.895-39.892-39.895c-22.053.001-39.901 17.847-39.901 39.895z" style="" fill="#2f4859" data-original="#2f4859"></path><path d="M60.402 292.35c0 14.121 11.478 25.596 25.6 25.596 13.827 0 25.298-11.475 25.298-25.596s-11.471-25.301-25.298-25.301c-14.122 0-25.6 11.18-25.6 25.301z" style="" fill="#64798a" data-original="#64798a"></path><path d="M60.403 292.344c0 2.007.183 3.924.729 5.749 3.469-.73 7.027.274 8.943 3.559 1.825 3.194 1.005 6.936-1.459 9.491 2.738 2.555 6.022 4.472 9.674 5.658 1.003-3.377 3.832-6.023 7.575-6.023 3.741 0 6.568 2.647 7.573 6.115 3.652-1.186 6.936-3.103 9.674-5.749-2.464-2.556-3.286-6.206-1.459-9.491 1.916-3.285 5.474-4.289 8.943-3.559.546-1.825.729-3.741.729-5.749 0-1.917-.183-3.742-.639-5.476-3.467.822-7.116-.274-9.032-3.468-1.918-3.285-1.005-7.118 1.459-9.674a26.863 26.863 0 0 0-9.674-5.567c-1.094 3.468-3.832 6.114-7.573 6.114-3.743 0-6.481-2.646-7.575-6.023a26.486 26.486 0 0 0-9.765 5.567c2.556 2.646 3.375 6.388 1.551 9.582-1.825 3.103-5.566 4.198-9.035 3.468-.456 1.734-.639 3.56-.639 5.476z" style="" fill="#ebf0f3" data-original="#ebf0f3"></path><path d="M199.379 155.26v54.911h-61.55c-25.259 0-46.474-17.621-51.966-41.283 35.143-11.232 72.582-15.974 109.423-13.828 1.398.001 2.746.101 4.093.2zM365.559 210.171h-166.18V155.26c1.348.1 2.696.2 4.044.349 28.254 2.346 56.059 8.786 82.116 19.469 19.169 7.837 37.439 17.721 56.409 26.157a217.837 217.837 0 0 0 23.611 8.936z" style="" fill="#27a2db" data-original="#27a2db"></path><path d="M203.423 155.61v54.561h-8.137v-55.11c1.398 0 2.746.1 4.093.2 1.348.099 2.696.199 4.044.349z" style="" fill="#2f4859" data-original="#2f4859"></path></g></svg>
